<?xml version="1.0" encoding="utf-8"?>
<!-- Generator: Adobe Illustrator 12.0.0, SVG Export Plug-In . SVG Version: 6.00 Build 51448)  -->
<!DOCTYPE svg PUBLIC "-//W3C//DTD SVG 1.1//EN" "http://www.w3.org/Graphics/SVG/1.1/DTD/svg11.dtd" [
	<!ENTITY ns_svg "http://www.w3.org/2000/svg">
	<!ENTITY ns_xlink "http://www.w3.org/1999/xlink">
]>
<svg  version="1.1" id="Layer_1" xmlns="&ns_svg;" xmlns:xlink="&ns_xlink;" width="454.338" height="297.692"
	 viewBox="0 0 454.338 297.692" overflow="visible" enable-background="new 0 0 454.338 297.692" xml:space="preserve">
<path fill-rule="evenodd" clip-rule="evenodd" fill="#F8CF19" d="M225.392,123.996c-1.401-1.318-2.189,3.832-4.977,3.46
	c0-4.613,0-9.227,0-13.84c1.746,0.459,6.523-0.562,8.533,1.384C228.326,119.175,226.662,119.606,225.392,123.996z"/>
<path fill-rule="evenodd" clip-rule="evenodd" fill="#F8CF19" d="M189.841,127.456c1.262-1.846,0.518,4.055,0.711,5.536
	C189.291,134.838,190.034,128.938,189.841,127.456z"/>
<path fill-rule="evenodd" clip-rule="evenodd" fill="#F8CF19" d="M134.382,141.296c1.399-2.146,0.926-1.82,2.133-4.152
	c0.573,0.479,1.947,1.077,2.133,0c2.916,0.392,1.351,5.144,4.266,5.536c0.604-0.127,0.671,0.27,0.711,0.692c0,0.23,0,0.461,0,0.692
	c-1.264-1.292-1.807,0.562-4.266,0C139.163,141.718,134.685,143.539,134.382,141.296z"/>
<path fill-rule="evenodd" clip-rule="evenodd" fill="#F8CF19" d="M263.075,164.825c-0.237,0-0.474,0-0.711,0
	c0.667-0.584,1.519-4.411,0-4.844c0.306-1.087,2.236-0.592,1.423-2.769c2.594,2.088,5.709,3.67,6.398,7.612
	c-0.35,1.329-2.867,4.057-1.422,4.845c-0.176,0.87-1.414,0.697-1.422,0C264.479,168.273,264.648,166.164,263.075,164.825z"/>
<path fill-rule="evenodd" clip-rule="evenodd" fill="#F8CF19" d="M190.552,187.662c0-1.153,0-2.307,0-3.46c0-2.999,0-5.998,0-8.996
	C190.785,157.397,192.307,186.358,190.552,187.662z"/>
<path fill-rule="evenodd" clip-rule="evenodd" fill="#FDFEFD" d="M221.125,181.433c0.454-2.557-0.92-6.894,0.711-8.304
	C221.383,175.686,222.757,180.023,221.125,181.433z"/>
<path fill-rule="evenodd" clip-rule="evenodd" fill="#FDFEFD" d="M111.629,194.582c-2.697,2.22-11.164-1.178-12.798,2.076
	C99.283,192.253,107.75,195.651,111.629,194.582z"/>
<path fill-rule="evenodd" clip-rule="evenodd" fill="#1CAAD7" d="M298.626,222.955c2.028,1.439-0.19,12.229,0,4.151
	C298.626,225.722,298.626,224.338,298.626,222.955z"/>
<path fill-rule="evenodd" clip-rule="evenodd" fill="#1CAAD7" d="M143.625,242.331c0,2.999,0,5.997,0,8.996
	C142.809,254.787,142.186,243.293,143.625,242.331z"/>
<path fill-rule="evenodd" clip-rule="evenodd" fill="#1C1112" d="M128.694,252.019c1.18,1.419,1.18,7.577,0,8.996
	C128.694,258.016,128.694,255.017,128.694,252.019z"/>
<path fill-rule="evenodd" clip-rule="evenodd" fill="#1C1112" d="M129.405,265.859c0.899-2.929,1.384,9.532,0,11.072
	C129.405,273.241,129.405,269.55,129.405,265.859z"/>
<path fill-rule="evenodd" clip-rule="evenodd" fill="#FDFEFD" d="M226.813,0.817c-3.469-3.073-6.735,3.351-9.243,5.536
	c-0.797,0.146-1.107,0.768-1.422,1.384c-11.391,12.212-20.909,26.246-33.417,37.369c-10.044-4.065-19.306-8.891-29.152-13.148
	c-0.04-0.422-0.106-0.819-0.711-0.692c-4.613-1.277-7.829-3.914-12.087-5.536c0,1.153,0,2.307,0,3.46
	c-0.554,0.153-0.827,0.58-0.711,1.384c0.557,3.079-0.947,4.153-0.711,6.92c-1.962,5.472-1.835,12.977-3.555,18.685
	c-1.94-0.063-1.431,1.152-2.844,0c-20.503-4.265-39.354-10.139-59.725-14.533c-0.041-0.422-0.106-0.819-0.711-0.692
	c-3.796,0.004-5.86-1.677-9.243-2.076c0.859,4.93,2.62,8.983,2.844,14.532c0.041,0.422,0.106,0.819,0.711,0.692
	c1.38,8.806,3.769,16.631,4.977,25.604c1.403,0.48-0.175,3.861,1.422,4.152c0.197,4.809-0.891,11.866-5.688,13.84
	c-0.434,0.039-0.842,0.103-0.711,0.692c-1.23-0.034-2.404,0.136-2.844-0.692c-3.014-5.667,0.634-17.444-3.555-22.145
	C41.047,76.784,27.5,89.609,12.087,97.007c-0.296,5.133,0.877,8.834,1.422,13.148c-4.447,1.208-9.304,2.017-13.509,3.46
	c2.317,8.363,12.917,7.349,16.354,15.225c1.522,3.488,1.306,9.604,2.133,14.532c2.459,14.656,5.062,30.483,7.821,44.289
	c-3.141,2.479-5.985,5.247-8.532,8.304c2.879,0.197,4.942,1.188,7.821,1.385c0.041,0.422,0.106,0.819,0.711,0.691
	c5.947,17.049,5.979,39.854,9.954,58.821c12.539,1.276,18.908-9.215,29.152-12.456c-0.175,2.137-0.721,3.912-1.422,5.536
	c3.076-0.005,4.511-1.606,7.821-1.384c0.494-1.365,3.967,0.17,4.266-1.385c3.077-0.004,4.512-1.606,7.821-1.384
	c0.552-0.155,1.402-0.019,1.422-0.691c2.244,0.338,2.511-1.247,4.977-0.692c2.419-1.798,7.576-0.931,9.955-2.769
	c3.076-0.004,4.511-1.606,7.821-1.384c6.075-1.469,12.183-2.905,18.486-4.152c2.645,3.424,0.284,11.719,2.133,15.917
	c0,2.998,0,5.997,0,8.996c0.423,1.434-0.879,4.546,0.711,4.844c0,3.691,0,7.382,0,11.072c0.433,1.655-0.893,5.021,0.711,5.536
	c0.111,0.814-0.122,1.965,0.711,2.076c1.295-1.97,3.906-2.657,5.688-4.152c0.434-0.039,0.841-0.104,0.711-0.691
	c7.949-5.181,15.482-10.768,23.463-15.917c0.434-0.039,0.842-0.103,0.711-0.691c4.83-3.143,9.299-6.636,14.22-9.688
	c0.434-0.039,0.842-0.104,0.711-0.692c2.438-2.72,7.411-3.985,8.532,0.692c0.041,0.422,0.106,0.819,0.711,0.692
	c2.7,4.062,5.948,7.59,8.532,11.764c4.672,5.833,8.812,12.185,13.509,17.992c2.412,3.189,4.81,6.392,7.11,9.688
	c0.807,1.521,2.378,2.299,2.844,4.152c4.187-1.23,4.817-5.923,7.821-8.305c3.39-4.774,7.218-9.121,10.665-13.84
	c1.705-2.031,3.213-4.254,4.978-6.229c2.622-3.906,5.823-7.249,8.532-11.072c2.935-2.559,5.137-9.152,9.242-8.304
	c3.375,1.791,6.176,4.14,9.244,6.228c1.723,1.554,3.898,2.665,5.688,4.152c4.135,2.666,7.953,5.639,12.088,8.305
	c0.04,0.422,0.105,0.819,0.711,0.691c7.539,4.888,14.143,10.688,22.041,15.225c0-1.384,0-2.768,0-4.152
	c2.982-13.706,1.053-32.191,5.688-44.289c6.102,0.751,11.774,1.92,17.063,3.461c5.242,0.435,9.409,1.914,14.221,2.768
	c0.157,0.539,0.596,0.805,1.422,0.692c9.004,1.386,16.742,4.004,25.597,5.536c0.04,0.422,0.106,0.819,0.712,0.691
	c2.172-0.5,2.59,0.708,4.266,0.692c-2.037-9.32-4.932-17.807-6.399-27.681c-0.601-3.336-2.464-5.445-2.133-9.688
	c7.34,1.392,12.153,5.241,20.619,5.536c3.752-7.651,13.622-9.348,16.354-17.992c6.058-0.868,14.886-2.479,19.908-2.076
	c-4.682-6.746-11.062-11.839-16.353-17.992c13.732-19.851,30.88-36.378,44.793-56.053c-10.432-7.609-21.842-14.265-34.84-19.376
	c-10.109,8.986-26.664-3.195-40.527-3.46c-2.343-1.642-6.925-1.103-8.532-3.46c4.177-17.85,10.12-37.667,12.798-54.669
	c-7.314,2.337-15.857,3.48-23.463,5.536c-2.613,0.456-4.781,1.344-7.821,1.384c-13.331,2.342-27.31,7.435-40.528,7.612
	c-2.004-8.891-2.283-19.46-4.266-28.373c-4.86,1.728-9.951,3.233-14.221,5.536c-4.475,0.719-6.9,3.433-11.376,4.152
	c-5.389,2.598-11.163,4.82-17.063,6.92c-4.02-3.008-6.565-7.451-9.955-11.072c-2.237-3.127-4.872-5.869-7.109-8.996
	c-0.041-0.422-0.107-0.819-0.711-0.692c-3.68-4.954-7.697-9.579-11.377-14.533C232.393,7.383,230.301,3.42,226.813,0.817z"/>
<path fill-rule="evenodd" clip-rule="evenodd" fill="#1C1112" d="M217.57,6.354c2.508-2.185,5.774-8.609,9.243-5.536
	c-0.251,0.97-1.251,0.06-1.422-0.692C221.883,1.324,220.556,4.646,217.57,6.354z"/>
<path fill-rule="evenodd" clip-rule="evenodd" fill="#572E90" d="M217.57,6.354c2.986-1.708,4.313-5.029,7.821-6.228
	c0.17,0.751,1.171,1.662,1.422,0.692c3.487,2.603,5.579,6.565,8.532,9.688c1.771,4.05,7.237,10.483,11.377,14.533
	c0.604-0.127,0.67,0.27,0.711,0.692c0.314,2.245,4.428,6.751,7.109,8.996c3.39,3.621,5.936,8.064,9.955,11.072
	c5.9-2.1,11.675-4.322,17.063-6.92c3.258,0.848,8.118-2.698,11.376-4.152c4.27-2.303,9.36-3.808,14.221-5.536
	c1.982,8.913,2.262,19.481,4.266,28.373c13.219-0.177,27.197-5.27,40.528-7.612c1.666,1.351,6.552-0.052,7.821-1.384
	c7.605-2.056,16.148-3.199,23.463-5.536c-2.678,17.002-8.621,36.819-12.798,54.669c1.607,2.357,6.189,1.818,8.532,3.46
	c10.785,3.343,22.649,5.636,34.129,8.304c-0.871,3.996-6.815,3.055-7.821,6.92c-8.433-2.521-26.64-14.343-31.995-2.768
	c-4.338-0.161-7.655-1.315-10.666-2.768c-2.43-1.556-5.783-2.214-9.243-2.768c0.304-2.955,2.84-7.357,1.423-9.688
	c-0.062-0.982-0.118-1.96,0.711-2.076c0.201,4.21,3.42-7.568,0.711-4.152c2.291-9.996,4.653-19.922,7.109-29.757
	c-20.577,2.579-43.352,9.015-64.702,13.148c0.067-3.525-1.489-5.471-1.422-8.997c2.562,5.723,0.223-1.734,0.711-5.536
	c-0.965,0.214-0.59,1.733-0.711,2.768c-1.276-4.525-2.04-9.548-2.134-15.224c-12.589,4.816-24.402,10.389-36.973,15.224
	c-0.926-3.25-3.873-4.534-4.977-7.612c-2.275-3.552-4.113-7.531-7.821-9.688c-4.121-4.292-7.474-9.334-11.376-13.84
	c0.995-2.147-3.363-5.011-4.977-6.92c-5.312-9.546-8.994,1.757-14.221,5.536c-3.709,3.316-8.868,8.893-9.954,12.456
	c-0.315,0.616-0.625,1.238-1.422,1.384c-0.755-0.686-5.352,4.43-4.266,5.536c-3.703,4.238-7.176,8.701-10.665,13.148
	c-12.176-4.757-22.838-10.988-34.84-15.916c-1.907,0.912-1.181,4.387-2.133,6.228c-8.306,1.143-17.254,1.66-19.909,8.304
	c-10.048,0.771-27.398-8.792-36.973-6.228c-2.19,0.586-4.042,2.286-4.266,4.844c-2.777-0.168-3.386-0.951-6.399-2.076
	c-1.363,0.077,0.835,2.317,0,4.152c-7.521,3.06-5.839,15.078-10.665,20.761c-1.597-0.291-0.02-3.672-1.422-4.152
	c0.281-7.659-2.618-18.209-4.977-25.604c-0.604,0.127-0.67-0.27-0.711-0.692c2.612-2.038-1.902-8.622-1.422-13.148
	c3.166-0.521,6.589,3.636,7.821,0.692c0.605-0.127,0.671,0.27,0.711,0.692c16.689,4.75,40.852,11.909,59.725,14.533
	c1.413,1.152,0.904-0.063,2.844,0c1.72-5.708,1.593-13.212,3.555-18.685c0.892-1.248,2.447-5.408,0.711-6.92
	c-0.116-0.805,0.157-1.231,0.711-1.384c0.833-0.112,0.6-1.262,0.711-2.076c4.188,0.549,7.982,5.133,11.376,4.152
	c0.605-0.127,0.671,0.27,0.711,0.692c6.99,4.502,19.505,9.618,29.152,13.84c12.698-11.17,24.411-26.988,34.128-38.753
	c0.131,0.589-0.277,0.653-0.711,0.692C216.463,7.122,216.773,6.5,217.57,6.354z"/>
<path fill-rule="evenodd" clip-rule="evenodd" fill="#1C1112" d="M153.579,31.958c9.846,4.258,19.108,9.083,29.152,13.148
	c12.509-11.123,22.027-25.157,33.417-37.369c0.434-0.039,0.842-0.103,0.711-0.692c-9.718,11.765-21.43,27.583-34.128,38.753
	C173.084,41.576,160.569,36.46,153.579,31.958z"/>
<path fill-rule="evenodd" clip-rule="evenodd" fill="#1C1112" d="M73.235,41.646c20.371,4.394,39.222,10.268,59.725,14.533
	C114.086,53.555,89.924,46.396,73.235,41.646z"/>
<path fill-rule="evenodd" clip-rule="evenodd" fill="#572E90" d="M320.668,222.262c12.056,2.799,24.874,4.854,36.262,8.304
	c-1.141-11.119-3.457-13.324-4.267-23.528c4.817,2.199,12.72,4.417,16.354,5.536c-0.331,4.243,1.532,6.353,2.133,9.688
	c-0.89,8.481,4.356,16.979,4.978,26.297c-1.779-0.087-2.227-1.321-2.844,0.691c-0.605,0.128-0.672-0.27-0.712-0.691
	c-5.146-1.918-18.252-5.758-25.597-5.536c-0.826,0.112-1.265-0.153-1.422-0.692c-0.693-1.014-14.872-4.95-14.221-2.768
	c-5.289-1.541-10.962-2.71-17.063-3.461c-4.636,12.098-2.706,30.583-5.688,44.289c-0.979-2.202-0.703,2.445-0.711,3.46
	c-6.78-4.706-14.967-11.727-21.33-14.532c-0.605,0.128-0.671-0.27-0.711-0.691c-3.184-3.137-8.904-7.473-12.088-8.305
	c-1.789-1.487-3.965-2.599-5.688-4.152c-2.131-2.552-6.819-6.265-9.244-6.228c-4.105-0.849-6.308,5.745-9.242,8.304
	c-3.148,2.942-7.951,7.938-8.532,11.072c-1.765,1.975-3.272,4.197-4.978,6.229c-3.98,3.742-9.131,10.021-10.665,13.84
	c-3.004,2.382-3.634,7.074-7.821,8.305c-0.466-1.854-2.037-2.632-2.844-4.152c-0.177-2.609-4.375-7.266-7.11-9.688
	c-4.697-5.808-8.837-12.159-13.509-17.992c-0.714-3.235-5.341-8.635-8.532-11.764c-0.604,0.127-0.67-0.271-0.711-0.692
	c1.234-3.92-7.045-5.64-8.532-0.692c0.131,0.589-0.277,0.653-0.711,0.692c-4.025,1.164-10.381,6.038-14.22,9.688
	c0.131,0.589-0.277,0.652-0.711,0.691c-7.108,3.234-16.437,10.298-23.463,15.917c0.13,0.588-0.277,0.652-0.711,0.691
	c-0.836-0.991-3.688,1.907-4.978,2.769c-1.542,0.116-0.322-2.455-0.711-3.46c-0.965,0.214-0.59,1.732-0.711,2.768
	c-1.604-0.516-0.278-3.881-0.711-5.536c1.384-1.54,0.899-14.001,0-11.072c-1.59-0.298-0.288-3.41-0.711-4.844
	c1.18-1.419,1.18-7.577,0-8.996c-1.85-4.198,0.511-12.493-2.133-15.917c-6.303,1.247-12.411,2.684-18.486,4.152
	c-1.876-1.555-6.156,0.438-7.821,1.384c-2.378,1.838-7.535,0.971-9.955,2.769c2.675-2.87-6.464,0.515-4.977,0.692
	c-0.02,0.673-0.87,0.536-1.422,0.691c-1.876-1.555-6.156,0.438-7.821,1.384c-0.299,1.555-3.772,0.02-4.266,1.385
	c-1.038-1.629-4.65,0.033-5.688,0.691c-0.208-9.894,15.324-10.457,19.197-18.685c18.284-3.656,36.178-7.693,54.037-11.764
	c0.115,0.811,1.296,0.584,2.133,0.691c0,1.615,0,3.229,0,4.845c0.965-0.215,0.59-1.733,0.711-2.769
	c1.631,1.411,0.257,5.747,0.711,8.305c-0.806,2.191-1.995,10.69,0.711,11.764c0,0.231,0,0.462,0,0.692
	c-1.439,0.963-0.816,12.456,0,8.996c1.604,0.516,0.278,3.882,0.711,5.536c5.794-2.899,13.779-9.654,20.62-13.84
	c2.613,0.415,15.676-9.596,13.509-8.996c2.121-2.088,4.519-3.907,7.821-4.845c1.868,2.796,4.323,5.02,5.688,8.305
	c2.316,4.901,7.403,10.778,9.954,13.148c1.903,1.607,3.332,3.677,4.266,6.228c1.15,3.032,2.992,5.393,5.688,6.92
	c2.53,3.074,4.862,6.341,7.11,9.688c12.136-14.715,23.568-30.116,35.55-44.98c8.987,4.862,16.069,11.579,24.886,16.608
	c0,0.23,0,0.461,0,0.691c-3.939-1.435,8.548,7.329,6.399,4.152c3.275,2.348,6.566,4.681,9.954,6.92
	c0.544-10.312,1.169-20.545,2.844-29.757c-0.19,8.077,2.028-2.712,0-4.151c0-1.846,0-3.691,0-5.536
	c4.798,1.096,10.17,1.635,14.22,3.46c-0.474,0-0.947,0-1.422,0C313.705,221.68,318.195,223.945,320.668,222.262z"/>
<path fill-rule="evenodd" clip-rule="evenodd" fill="#1C1112" d="M130.116,282.467c0.121-1.035-0.254-2.554,0.711-2.768
	c0.389,1.005-0.831,3.576,0.711,3.46c1.29-0.861,4.141-3.76,4.978-2.769c-1.782,1.495-4.394,2.183-5.688,4.152
	C129.994,284.432,130.227,283.282,130.116,282.467z"/>
<path fill-rule="evenodd" clip-rule="evenodd" fill="#1C1112" d="M137.226,279.7c7.027-5.619,16.355-12.683,23.463-15.917
	C152.708,268.932,145.175,274.519,137.226,279.7z"/>
<path fill-rule="evenodd" clip-rule="evenodd" fill="#1C1112" d="M161.4,263.091c3.839-3.65,10.195-8.524,14.22-9.688
	C170.699,256.456,166.23,259.949,161.4,263.091z"/>
<path fill-rule="evenodd" clip-rule="evenodd" fill="#1C1112" d="M176.332,252.71c1.487-4.947,9.766-3.228,8.532,0.692
	C183.743,248.725,178.77,249.991,176.332,252.71z"/>
<path fill-rule="evenodd" clip-rule="evenodd" fill="#1C1112" d="M194.107,265.859c-2.584-4.174-5.833-7.702-8.532-11.764
	C188.766,257.224,193.393,262.624,194.107,265.859z"/>
<path fill-rule="evenodd" clip-rule="evenodd" fill="#1C1112" d="M214.727,293.54c-2.301-3.297-4.698-6.499-7.11-9.688
	C210.352,286.274,214.549,290.93,214.727,293.54z"/>
<path fill-rule="evenodd" clip-rule="evenodd" fill="#1C1112" d="M225.392,289.387c1.534-3.818,6.685-10.098,10.665-13.84
	C232.609,280.266,228.781,284.613,225.392,289.387z"/>
<path fill-rule="evenodd" clip-rule="evenodd" fill="#1C1112" d="M241.034,269.319c0.581-3.135,5.384-8.13,8.532-11.072
	C246.857,262.07,243.656,265.413,241.034,269.319z"/>
<path fill-rule="evenodd" clip-rule="evenodd" fill="#1C1112" d="M268.053,256.17c-3.068-2.088-5.869-4.437-9.244-6.228
	C261.233,249.906,265.922,253.619,268.053,256.17z"/>
<path fill-rule="evenodd" clip-rule="evenodd" fill="#1C1112" d="M285.828,268.627c-4.135-2.666-7.953-5.639-12.088-8.305
	C276.924,261.155,282.645,265.491,285.828,268.627z"/>
<path fill-rule="evenodd" clip-rule="evenodd" fill="#1C1112" d="M308.58,280.391c0,1.385,0,2.769,0,4.152
	c-7.898-4.537-14.502-10.337-22.041-15.225c6.363,2.806,14.55,9.826,21.33,14.532C307.877,282.836,307.601,278.189,308.58,280.391z"
	/>
<path fill-rule="evenodd" clip-rule="evenodd" fill="#1C1112" d="M281.562,38.878c4.476-0.719,6.901-3.434,11.376-4.152
	C289.68,36.181,284.819,39.726,281.562,38.878z"/>
<path fill-rule="evenodd" clip-rule="evenodd" fill="#1C1112" d="M247.434,25.73c2.237,3.127,4.872,5.869,7.109,8.996
	C251.861,32.481,247.748,27.975,247.434,25.73z"/>
<path fill-rule="evenodd" clip-rule="evenodd" fill="#1C1112" d="M235.346,10.505c3.68,4.954,7.697,9.579,11.377,14.533
	C242.583,20.988,237.116,14.555,235.346,10.505z"/>
<path fill-rule="evenodd" clip-rule="evenodd" fill="#1C1112" d="M351.952,49.95c3.04-0.04,5.208-0.928,7.821-1.384
	C358.504,49.898,353.618,51.301,351.952,49.95z"/>
<path fill-rule="evenodd" clip-rule="evenodd" fill="#1C1112" d="M378.971,101.16c13.863,0.265,30.418,12.446,40.527,3.46
	c12.998,5.111,24.408,11.768,34.84,19.376c-13.913,19.675-31.061,36.203-44.793,56.053c5.291,6.153,11.671,11.246,16.353,17.992
	c-5.022-0.403-13.851,1.208-19.908,2.076c-2.731,8.645-12.602,10.341-16.354,17.992c-8.466-0.295-13.279-4.145-20.619-5.536
	c-3.634-1.119-11.536-3.337-16.354-5.536c0.81,10.204,3.126,12.409,4.267,23.528c-11.388-3.449-24.206-5.505-36.262-8.304
	c-2.693-0.378-4.442-1.674-7.822-1.384c-4.05-1.825-9.422-2.364-14.22-3.46c0,1.845,0,3.69,0,5.536c0,1.384,0,2.768,0,4.151
	c-1.675,9.212-2.3,19.445-2.844,29.757c-3.388-2.239-6.679-4.572-9.954-6.92c-2.092-1.425-3.895-3.13-6.399-4.152
	c0-0.23,0-0.461,0-0.691c-8.816-5.029-15.898-11.746-24.886-16.608c-11.982,14.864-23.414,30.266-35.55,44.98
	c-2.249-3.348-4.58-6.614-7.11-9.688c-1.901-2.302-2.919-5.463-5.688-6.92c-0.934-2.551-2.363-4.62-4.266-6.228
	c-3.08-4.614-6.033-9.354-9.954-13.148c-1.365-3.285-3.82-5.509-5.688-8.305c-3.302,0.938-5.7,2.757-7.821,4.845
	c-4.943,2.57-8.861,6.139-13.509,8.996c-6.841,4.186-14.826,10.94-20.62,13.84c-0.433-1.654,0.893-5.021-0.711-5.536
	c0-2.999,0-5.997,0-8.996c0-0.23,0-0.461,0-0.692c0.532-4.669-1.144-7.19-0.711-11.764c-0.454-2.558,0.92-6.894-0.711-8.305
	c-0.422-2.208,1.334-2.14,0-3.46c-1.275-0.088-1.5,0.848-2.844,0.692c-17.859,4.07-35.753,8.107-54.037,11.764
	c-3.874,8.228-19.406,8.791-19.197,18.685c1.038-0.658,4.65-2.32,5.688-0.691c-3.31-0.223-4.745,1.379-7.821,1.384
	c0.701-1.624,1.247-3.399,1.422-5.536c-10.244,3.241-16.613,13.732-29.152,12.456c-3.975-18.968-4.007-41.772-9.954-58.821
	c0.496-3.48-1.207-4.823-0.711-8.304c-1.707-0.483-4.692,3.718-6.399,5.536c2.858,0.114,2.815,0.941,6.399,1.384
	c0,0.23,0,0.461,0,0.692c-2.879-0.197-4.942-1.188-7.821-1.385c2.547-3.057,5.391-5.825,8.532-8.304
	c-2.759-13.806-5.362-29.633-7.821-44.289c-0.827-4.928-0.611-11.044-2.133-14.532C12.917,120.965,2.317,121.979,0,113.616
	c4.206-1.443,9.063-2.252,13.509-3.46c-0.545-4.314-1.718-8.016-1.422-13.148C27.5,89.609,41.047,76.784,60.437,75.555
	c4.189,4.7,0.542,16.478,3.555,22.145c0.44,0.828,1.613,0.658,2.844,0.692c-3.698,1.585-0.832,3.001-1.422,7.612
	c1.996-1.326,4.375-7.172,2.133-8.304c4.798-1.975,5.886-9.031,5.688-13.84c4.826-5.683,3.144-17.701,10.665-20.761
	c0.835-1.835-1.363-4.075,0-4.152c3.013,1.125,3.622,1.907,6.399,2.076c0.224-2.558,2.076-4.257,4.266-4.844
	c9.575-2.563,26.925,7,36.973,6.228c2.654-6.644,11.603-7.161,19.909-8.304c0.952-1.841,0.226-5.316,2.133-6.228
	c12.001,4.928,22.664,11.159,34.84,15.916c3.489-4.447,6.962-8.91,10.665-13.148c1.36-1.906,2.906-3.63,4.266-5.536
	c0.798-0.146,1.107-0.768,1.422-1.384c3.096-4.368,7.194-7.761,9.954-12.456c5.227-3.779,8.909-15.083,14.221-5.536
	c0.951,2.996,3.597,4.341,4.977,6.92c3.902,4.506,7.255,9.548,11.376,13.84c2.187,3.64,4.74,6.92,7.821,9.688
	c1.104,3.078,4.051,4.362,4.977,7.612c12.57-4.835,24.384-10.408,36.973-15.224c0.094,5.676,0.857,10.699,2.134,15.224
	c0,0.923,0,1.846,0,2.768c-0.067,3.525,1.489,5.471,1.422,8.997c21.351-4.134,44.125-10.569,64.702-13.148
	c-2.456,9.835-4.818,19.761-7.109,29.757c-0.819,0.818-0.805,2.446-0.711,4.152c-0.829,0.116-0.772,1.094-0.711,2.076
	c-1.207,2.979-1.275,7.063-2.845,9.688c2.884,1.577,6.269,2.665,10.665,2.768c3.011,1.453,6.328,2.607,10.666,2.768
	c5.355-11.575,23.563,0.248,31.995,2.768c1.006-3.865,6.95-2.924,7.821-6.92C401.62,106.796,389.756,104.502,378.971,101.16z
	 M410.967,189.738c0.076,4.227-2.492,5.879-3.556,8.996c5.856-0.759,13.192-0.078,17.064-2.769c-5.46-3.912-9.269-9.434-14.22-13.84
	c-0.178,2.134-2.561,2.122-3.556,3.46C408.531,186.571,410.723,187.207,410.967,189.738z M7.821,113.616
	c0.136-2.204-6.364-0.048-7.11,1.384c0.554,0.152,0.827,0.579,0.711,1.384c3.3-1.132,0.891,0.097,1.422,0.692
	c3.07,3.442,11.132,5.941,11.376,7.612c0.486-6.157-1.446-6.279-1.422-12.456c-1.676-0.891-1.323,0.091-3.555-0.692
	C8.898,112.357,8.485,113.108,7.821,113.616z M13.509,115.692c1.652,7.707,1.396-3.276,1.422-4.152
	c-0.94-0.008-0.65-1.213-1.422-1.384C14.639,112.952,13.054,113.567,13.509,115.692z M225.392,30.574
	c-4.639-0.089-7.026,7.626-10.665,10.38c-3.021,1.674-4.851,4.506-6.399,7.612c-0.728,0.676-1.438,1.368-2.133,2.076
	c-3.644,3.604-6.676,7.804-9.954,11.764c0,0.23,0,0.461,0,0.692c-2.368,1.617-3.871,4.076-5.688,6.228
	c-1.732,1.899-9.142-1.335-9.243-3.46c-6.29-1.422-6.824-2.107-9.954-4.152c-2.122-0.011-2.417-1.799-4.266-2.076
	c0,0.692,0,1.384,0,2.076c1.015,4.904,2.533,9.339,2.133,15.916c1.285,3.062,0.001,11.773,3.555,10.38
	c13.168-8.305,32.484-12.223,54.037-15.224c2.134,0,4.267,0,6.399,0c4.73-2.073,14.305,0.041,22.041-0.692
	c5.26,1.57,10.926,2.746,14.932,5.536c0.04,0.422,0.106,0.819,0.711,0.692c4.105,2.924,7.176,6.856,8.532,12.456
	c-0.003,0.694,0.575,0.824,0.711,1.384c0.52,5.022,1.104,9.68-0.711,13.84c0,0.231,0,0.461,0,0.692
	c-0.665,1.517-0.108,3.478-0.711,5.536c-1.021,3.482-7.843,11.739-2.134,11.764c2.265-2.122,2.977,1.17,5.689,0.692
	c2.332,0.086,6.842,4.487,7.82,1.384c1.115-4.839,1.936-16.495,3.555-22.145c1.649,0.221,2.73-0.111,3.556-0.692
	c2.308-0.401,3.308,0.472,4.978,0.692c0-1.154,0-2.307,0-3.46c0.236,0,0.474,0,0.711,0c0-1.614,0-3.229,0-4.844
	c12.051-0.34,34.073-1.297,31.284,10.38c-1.065,1.501-1.212,3.896-1.422,6.229c-0.306,1.864,0.936,7.057-1.423,4.844
	c1.063,1.614-0.239,2.981,0.712,3.46c0.378-0.775,3.425,0.532,4.978-0.692c-0.041-4.42,2.829-7.697,8.531-8.304
	c3.18-15.858,7.451-26.087,9.244-42.905c-23.661,4.932-41.76,9.41-61.859,13.148c0.484-6.79-1.867-16.99-3.555-24.913
	c-1.979,0.525-5.061,2.491-8.532,3.46c-6.619,1.631-11.761,4.7-17.775,6.92c-3.858,5.961-11.458-0.07-11.376-3.46
	c-1.528-1.742-2.67-3.859-4.266-5.536c-0.041-0.422-0.107-0.819-0.711-0.692c-1.111-2.148-2.906-3.63-4.267-5.536
	c-2.781-1.092-4.514-4.947-4.978-6.228c-1.522-1.517-2.212-3.844-4.266-4.844c-0.159-0.537-0.02-1.365-0.711-1.384
	C230.375,36.335,227.804,33.532,225.392,30.574z M160.689,55.486c-7.479,2.178-15.019,4.298-23.463,5.536
	c-6.688,22.046-16.944,50.064-15.643,76.814c5.528-2.462,11.675-4.323,17.775-6.228c-0.145-5.677-0.013-11.085,0.711-15.917
	c4.947-1.183,8.211-4.003,13.509-4.844c-0.219,7.364,1.21,13.124,2.133,19.376c6.689-1.102,11.396-4.132,17.775-5.536
	C168.052,102.759,164.414,79.082,160.689,55.486z M95.276,60.331c-9.899,28.426-18.909,57.717-29.862,85.118
	c-1.35-20.884-6.01-44.398-8.532-66.434c-10.669,4.148-20.919,8.705-30.574,13.84c7.937,49.29,17.66,102.104,24.175,155.011
	c10.171-5.786,19.968-11.937,29.862-17.992c-2.719-12.549-5.349-29.387-8.532-43.597c25.627-4.787,61.269-5.482,84.611,2.768
	c3.159-12.38,6.795-24.297,9.954-36.677c-20.099-3.916-44.477-6.751-68.257-4.844c7.922-20.068,17.196-41.469,24.886-60.897
	c2.692-6.803,7.352-13.083,6.399-20.069C118.112,64.401,106.818,62.245,95.276,60.331z M190.552,187.662c0,6.228,0,12.456,0,18.685
	c9.44-2.116,17.208-5.858,27.019-7.612c-0.362-10.259-1.271-19.984-2.133-29.757c10.395-4.417,19.244-14.023,27.729-17.992
	c-8.373,19.877-1.635,44.006,19.908,44.98c15.481,0.701,26.438-8.46,32.707-20.068c-0.836,4.723-1.805,9.316-2.845,13.841
	c8.434,0.096,15.018,1.992,22.753,2.768c7.458-10.042,14.661-24.021,22.753-31.141c0.373,12.59-0.254,24.204-1.422,35.293
	c6.787,1.236,12.204,3.807,19.197,4.844c13.197-27.291,30.217-54.373,44.082-83.042c-7.436-1.759-14.104-4.264-21.33-6.228
	c-7.149,18.104-13.719,32.731-22.752,48.44c1.561-13.936,3.533-27.47,4.977-41.521c-6.226-0.399-11.055-2.158-17.775-2.076
	c-7.338,12.697-16.04,27.754-24.885,36.677c4.453-16.194,7.861-33.407,10.664-51.209c-7.019-1.473-14.962-2.046-22.041-3.46
	c-1.71,17.02-4.451,33.036-7.11,49.133c-2.665-14.727-18.983-22.698-35.55-19.376c14.529-17.215,17.465-49.553-12.088-52.593
	c-28.555-2.938-62.907,8.212-79.634,17.3c2.366,9.231,5.218,17.989,6.399,28.373c3.971,0.158,7.253-3.99,9.954-2.768
	c0.681,21.482,0.176,44.117,1.422,65.05C190.552,185.355,190.552,186.508,190.552,187.662z M384.658,171.745
	c7.671,2.224,13.635,6.106,20.62,8.997c12.8-20.759,29.441-37.779,44.794-56.054c-9.258-5.753-19.046-10.989-28.441-16.608
	C406.282,126.357,395.609,149.186,384.658,171.745z M174.91,135.76c0.593-3.677-7.299-0.472-7.821,1.384c-0.237,0-0.474,0-0.711,0
	c-2.911,0.165-4.005,2.1-7.11,2.076c-3.849,2.339-5.306,3.877-8.532,2.768c-1.615,1.196-3.973,1.67-7.11,1.384
	c-0.04-0.422-0.106-0.819-0.711-0.692c-2.032-0.817-0.874-8.341-4.266-5.536c-0.186,1.077-1.56,0.479-2.133,0
	c-1.208,2.332-0.734,2.006-2.133,4.152c-2.693,2.968,3.528,1.69,4.977,2.768c2.459,0.562,3.002-1.292,4.266,0
	c0.756,1.57,4.47,0.263,6.399,0.692c6.757,1.733,9.865,0.553,13.509,2.076c9.298-0.019,8.211,8.428,5.688,15.225
	c-1.245,3.805,0.353,3.118-1.422,4.844c-4.496,8.817-3.41,21.679-9.954,26.988c-1.015,0.271-1.199,0.831-2.133,0
	c-1.329-0.552-2.604-1.156-4.266-1.384c-0.626,3.081-0.995,6.413-3.555,7.612c-0.961,0.218-1.358,0.985-2.844,0.692
	c-2.942-0.597-5.202-1.857-8.532-2.076c-6.075-1.089-7.749-0.613-10.666-2.769c-3.369,0.511-4.888-0.778-7.821-0.691
	c-3.84-0.052-3.768-0.313-6.399-0.692c-3.879,1.069-12.347-2.328-12.798,2.076c-0.495,1.548,1.458,1.418-1.422,4.152
	c-1.165,3.018-1.262,7.076-2.133,10.38c-0.041,2.024-0.484,4.18-1.422,6.92c-1.467,1.34-1.357,4.216-2.133,6.229
	c1.27-0.84,4.136-0.126,4.977-1.384c21.55-4.913,28.822-6.742,51.193-11.072c-0.358,8.883,1.26,15.843,0.711,24.912
	c0.159,0.537,0.02,1.365,0.711,1.384c-0.73,1.388,0.47,5.682,0,8.996c6.905-3.89,13.11-8.462,19.198-13.147
	c0.552-0.155,1.402-0.02,1.422-0.692c5.531-3.844,11.675-7.091,16.353-11.765c0.948,0,1.896,0,2.844,0
	c-0.186,2.026,1.607,2.127,1.422,4.152c7.115,10.145,14.843,19.693,22.042,29.757c0.041,0.422,0.106,0.819,0.711,0.691
	c2.301,1.813,4.698,9.688,7.11,6.921c-0.135-1.788,2.057-2.93,2.844-4.152c4.323-4.096,7.72-9.096,11.376-13.84
	c0.434-0.04,0.842-0.104,0.711-0.692c1.237-2.256,3.552-3.464,4.266-6.229c2.041-3.993,4.297-4.744,6.4-7.612
	c2.006-2.429,4.187-4.689,5.688-7.611c0.797-0.146,1.107-0.769,1.422-1.385c3.24,0.087,7.38,5.266,11.377,6.921
	c0.039,0.422,0.105,0.819,0.711,0.691c7.104,2.586,20.816,18.438,25.596,16.608c0.081-0.031-0.064-0.621,0-0.691
	c0.787-9.472,1.964-23.128,2.844-33.909c1.921-1.492,1.275,1.901,2.845-0.692c2.696,3.126,7.518,1.915,11.376,2.769
	c11.273,2.494,23.226,6.387,34.84,8.996c0.602-1.028,2.289-1.001,3.555-1.384c-0.103,0.817-1.266,1.568,0,2.076
	c0.084-1.126,4.748,1.785,2.844-0.692c0.105,0.388-0.303-3.658-0.711-7.612c-9.73-0.551-19.391-4.516-25.596-6.229
	c-3.01-3.381,0.209-8.36,0.711-13.84c-0.98-2.187,1.76-4.177,0-4.844c-1.691,2.045-2.575,4.875-4.266,6.92
	c-7.491,0.286-6.324,8.527-12.799,9.688c-8.717-0.225-23.151-6.434-30.574-4.152c-1.811,0.557-3.854,3.625-4.977,4.152
	c-2.345,1.101-6.213,0.636-7.109,2.768c-0.171-0.752-1.172-1.661-1.423-0.692c-3.556,0-7.11,0-10.665,0
	c-5.619,1.676-10.021-1.342-10.665-2.075c-6.339-3.059-10.058-8.666-13.509-14.532c-1.379-3.394-0.582-4.604-2.134-7.612
	c-0.466-4.391,0.938-10.601-0.711-13.841c-0.398,0.997-1.109,1.688-2.133,2.076c-0.434,0.039-0.841,0.104-0.711,0.692
	c-1.631,1.41-0.257,5.747-0.711,8.304c0,0.23,0,0.462,0,0.692c0.628,6.988,2.236,12.201,0.711,18.685
	c-0.023,2.515-2.09,3.04-4.977,2.768c-1.675-0.016-2.093,1.192-4.266,0.692c0,0.691,0,1.384,0,2.076c0,0.461,0,0.922,0,1.384
	c-0.314,2.001-1.499,3.154-3.555,3.46c-6.435,3.122-10.81,4.313-19.908,6.229c-2.925,0.383-4.599,1.982-7.821,2.075
	c-0.474,0-0.948,0-1.422,0c-2.532-0.032-3.739-1.934-4.266-3.46c-4.438-12.845,3.307-36.58,0-51.209
	C174.723,156.939,174.928,146.279,174.91,135.76z M377.549,177.281c-4.326,5.247-7.383,11.73-9.243,19.377
	c10.606,2.363,20.261,5.653,29.151,9.688c3.279-4.883,5.638-10.66,8.532-15.917C396.926,185.641,386.48,182.199,377.549,177.281z
	 M90.299,207.038c0.598-4.043,3.829-9.175,2.133-13.148c-0.12,0.807-1.124,0.752-2.133,0.692c-4.521-0.479-6.854,1.172-11.376,0.692
	c0.543,3.392,0.582,7.275,2.133,9.688c0.007,1.839-0.269,3.952,0.711,4.845c0.626,5.157,1.345,10.225,2.844,14.532
	c0.389,1.005-0.831,3.576,0.711,3.46c0.819-0.818,0.805-2.446,0.711-4.152C88.115,218.752,88.955,212.65,90.299,207.038z"/>
<path fill-rule="evenodd" clip-rule="evenodd" fill="#1CAAD7" d="M354.797,98.392c1.417,2.331-1.119,6.733-1.423,9.688
	c3.46,0.554,6.813,1.212,9.243,2.768c-4.396-0.104-7.781-1.191-10.665-2.768C353.521,105.455,353.59,101.37,354.797,98.392z"/>
<path fill-rule="evenodd" clip-rule="evenodd" fill="#1CAAD7" d="M356.219,92.164c2.709-3.416-0.51,8.362-0.711,4.152
	C355.414,94.609,355.399,92.981,356.219,92.164z"/>
<path fill-rule="evenodd" clip-rule="evenodd" fill="#1CAAD7" d="M297.204,63.791c0.121-1.035-0.254-2.554,0.711-2.768
	c-0.488,3.802,1.851,11.259-0.711,5.536C297.204,65.636,297.204,64.713,297.204,63.791z"/>
<path fill-rule="evenodd" clip-rule="evenodd" fill="#1CAAD7" d="M253.121,56.179c-3.081-2.768-5.635-6.049-7.821-9.688
	C249.008,48.648,250.846,52.626,253.121,56.179z"/>
<path fill-rule="evenodd" clip-rule="evenodd" fill="#1CAAD7" d="M228.947,25.73c1.613,1.909,5.972,4.773,4.977,6.92
	C232.544,30.071,229.898,28.726,228.947,25.73z"/>
<path fill-rule="evenodd" clip-rule="evenodd" fill="#1CAAD7" d="M204.772,43.722c1.086-3.563,6.245-9.14,9.954-12.456
	C211.967,35.961,207.868,39.354,204.772,43.722z"/>
<path fill-rule="evenodd" clip-rule="evenodd" fill="#1CAAD7" d="M203.35,45.106c-1.36,1.906-2.906,3.63-4.266,5.536
	C197.998,49.536,202.595,44.421,203.35,45.106z"/>
<path fill-rule="evenodd" clip-rule="evenodd" fill="#1C1112" d="M140.07,30.574c1.736,1.512,0.181,5.672-0.711,6.92
	C139.123,34.727,140.626,33.653,140.07,30.574z"/>
<path fill-rule="evenodd" clip-rule="evenodd" fill="#1C1112" d="M140.781,29.19c0-1.153,0-2.307,0-3.46
	c4.258,1.623,7.474,4.259,12.087,5.536c-3.394,0.981-7.188-3.604-11.376-4.152C141.381,27.928,141.614,29.078,140.781,29.19z"/>
<path fill-rule="evenodd" clip-rule="evenodd" fill="#572E90" d="M406.7,185.585c0.995-1.338,3.378-1.326,3.556-3.46
	c4.951,4.406,8.76,9.928,14.22,13.84c-3.872,2.69-11.208,2.01-17.064,2.769c1.063-3.117,3.632-4.77,3.556-8.996
	C410.723,187.207,408.531,186.571,406.7,185.585z"/>
<path fill-rule="evenodd" clip-rule="evenodd" fill="#1CAAD7" d="M206.194,256.863c2.769,1.457,3.787,4.618,5.688,6.92
	C209.186,262.255,207.345,259.895,206.194,256.863z"/>
<path fill-rule="evenodd" clip-rule="evenodd" fill="#1CAAD7" d="M164.956,243.023c4.648-2.857,8.566-6.426,13.509-8.996
	C180.631,233.427,167.569,243.438,164.956,243.023z"/>
<path fill-rule="evenodd" clip-rule="evenodd" fill="#255A94" d="M13.509,110.156c0.772,0.171,0.482,1.376,1.422,1.384
	c-0.027,0.876,0.229,11.859-1.422,4.152C13.054,113.567,14.639,112.952,13.509,110.156z"/>
<path fill-rule="evenodd" clip-rule="evenodd" fill="#FDFEFD" d="M214.727,40.954c-1.591,3.065-4.19,5.149-6.399,7.612
	C209.876,45.46,211.706,42.628,214.727,40.954z"/>
<path fill-rule="evenodd" clip-rule="evenodd" fill="#FDFEFD" d="M196.24,62.407c3.278-3.96,6.31-8.16,9.954-11.764
	C204.759,53.242,199.433,61.497,196.24,62.407z"/>
<path fill-rule="evenodd" clip-rule="evenodd" fill="#FDFEFD" d="M196.24,63.099c-1.21,2.744-3.02,4.904-5.688,6.228
	C192.37,67.175,193.873,64.716,196.24,63.099z"/>
<path fill-rule="evenodd" clip-rule="evenodd" fill="#FDFEFD" d="M255.254,72.095c6.489,0.374,11.8,1.895,14.932,5.536
	C266.18,74.841,260.514,73.665,255.254,72.095z"/>
<path fill-rule="evenodd" clip-rule="evenodd" fill="#FDFEFD" d="M270.896,78.323c3.734,0.069,9.407,7.9,8.532,12.456
	C278.072,85.179,275.002,81.247,270.896,78.323z"/>
<path fill-rule="evenodd" clip-rule="evenodd" fill="#FDFEFD" d="M282.273,124.688c1.687-1.371,4.617,1.935,7.82,1.384
	C289.115,129.175,284.605,124.774,282.273,124.688z"/>
<path fill-rule="evenodd" clip-rule="evenodd" fill="#F9D952" d="M214.727,40.954c3.639-2.753,6.026-10.469,10.665-10.38
	c-0.083,2.984,4.454,7.971,7.11,8.996c0.691,0.019,0.552,0.847,0.711,1.384c1.354,1.68,1.5,4.538,4.266,4.844
	c0.464,1.281,2.196,5.136,4.978,6.228c-2.001,2.005,4.92,4.06,2.844,6.228c0.827,0.113,1.265-0.152,1.423-0.692
	c0.604-0.127,0.67,0.27,0.711,0.692c0.209,3.026,2.222,4.296,4.266,5.536c-0.082,3.39,7.518,9.421,11.376,3.46
	c4.597-0.028,13.661-5.002,17.775-6.92c3.472-0.969,6.554-2.935,8.532-3.46c1.688,7.923,4.039,18.123,3.555,24.913
	c20.1-3.739,38.198-8.216,61.859-13.148c-1.793,16.817-6.064,27.047-9.244,42.905c-5.702,0.607-8.572,3.884-8.531,8.304
	c-1.553,1.225-4.6-0.083-4.978,0.692c-0.951-0.479,0.351-1.846-0.712-3.46c2.358,2.213,1.117-2.98,1.423-4.844
	c2.883,0.268,0.782-4.313,1.422-6.229c2.789-11.677-19.233-10.72-31.284-10.38c0,1.615,0,3.229,0,4.844c-0.237,0-0.475,0-0.711,0
	c-0.598-2.198-0.938,1.229-0.711,2.076c-1.25,0.398-4.178-0.836-4.267,0.692c-0.825,0.581-1.906,0.913-3.556,0.692
	c-1.619,5.65-2.439,17.306-3.555,22.145c-3.203,0.551-6.134-2.755-7.82-1.384c-2.713,0.479-3.425-2.813-5.689-0.692
	c-0.314-0.616-0.623-1.238-1.422-1.384c1.098-5.167,6.029-10.27,4.267-15.916c0-0.231,0-0.461,0-0.692
	c3.063-0.297,3.004-10.042,0.711-13.84c-0.136-0.561-0.714-0.69-0.711-1.384c0.875-4.556-4.798-12.387-8.532-12.456
	c-0.604,0.127-0.671-0.27-0.711-0.692c-3.132-3.641-8.442-5.162-14.932-5.536c-7.736,0.733-17.311-1.381-22.041,0.692
	c3.545-1.938-8.167-0.581-6.399,0c-21.553,3.001-40.869,6.919-54.037,15.224c-3.269-1.432-0.778-8.469-3.555-10.38
	c0.4-6.577-1.119-11.012-2.133-15.916c2.043-0.967,3.612,1.886,4.266,0c3.13,2.045,3.664,2.729,9.954,4.152
	c0.102,2.125,7.511,5.359,9.243,3.46c2.668-1.324,4.479-3.484,5.688-6.228c0-0.23,0-0.461,0-0.692
	c3.193-0.91,8.519-9.165,9.954-11.764c0.694-0.708,1.405-1.4,2.133-2.076C210.537,46.103,213.136,44.02,214.727,40.954z"/>
<path fill-rule="evenodd" clip-rule="evenodd" fill="#FDFEFD" d="M263.075,67.251c6.015-2.221,11.156-5.29,17.775-6.92
	C276.736,62.249,267.672,67.223,263.075,67.251z"/>
<path fill-rule="evenodd" clip-rule="evenodd" fill="#FDFEFD" d="M247.434,58.254c1.596,1.677,2.737,3.794,4.266,5.536
	C249.655,62.55,247.643,61.28,247.434,58.254z"/>
<path fill-rule="evenodd" clip-rule="evenodd" fill="#FDFEFD" d="M242.456,52.026c1.36,1.906,3.155,3.388,4.267,5.536
	c-0.158,0.54-0.596,0.805-1.423,0.692C247.376,56.086,240.455,54.031,242.456,52.026z"/>
<path fill-rule="evenodd" clip-rule="evenodd" fill="#FDFEFD" d="M233.213,40.954c2.054,1,2.743,3.328,4.266,4.844
	C234.713,45.492,234.567,42.634,233.213,40.954z"/>
<path fill-rule="evenodd" clip-rule="evenodd" fill="#FDFEFD" d="M225.392,30.574c2.412,2.958,4.983,5.761,7.11,8.996
	C229.846,38.545,225.308,33.559,225.392,30.574z"/>
<path fill-rule="evenodd" clip-rule="evenodd" fill="#FDFEFD" d="M279.429,106.696c1.763,5.646-3.169,10.749-4.267,15.916
	c0.799,0.146,1.107,0.768,1.422,1.384c-5.709-0.025,1.113-8.282,2.134-11.764C279.32,110.173,278.764,108.212,279.429,106.696z"/>
<path fill-rule="evenodd" clip-rule="evenodd" fill="#FDFEFD" d="M280.14,92.164c2.293,3.798,2.353,13.543-0.711,13.84
	C281.244,101.843,280.659,97.186,280.14,92.164z"/>
<path fill-rule="evenodd" clip-rule="evenodd" fill="#FDFEFD" d="M226.813,72.787c-1.767-0.581,9.944-1.938,6.399,0
	C231.08,72.787,228.947,72.787,226.813,72.787z"/>
<path fill-rule="evenodd" clip-rule="evenodd" fill="#FDFEFD" d="M169.222,77.631c2.776,1.911,0.286,8.949,3.555,10.38
	C169.223,89.404,170.506,80.693,169.222,77.631z"/>
<path fill-rule="evenodd" clip-rule="evenodd" fill="#FDFEFD" d="M167.088,61.715c0-0.692,0-1.384,0-2.076
	c1.849,0.277,2.145,2.065,4.266,2.076C170.7,63.601,169.132,60.748,167.088,61.715z"/>
<path fill-rule="evenodd" clip-rule="evenodd" fill="#1C1112" d="M66.125,53.411c-0.224-5.549-1.985-9.602-2.844-14.532
	c3.383,0.398,5.447,2.08,9.243,2.076c-1.232,2.944-4.655-1.213-7.821-0.692C64.222,44.789,68.736,51.373,66.125,53.411z"/>
<path fill-rule="evenodd" clip-rule="evenodd" fill="#1C1112" d="M71.813,79.707c-1.208-8.973-3.597-16.798-4.977-25.604
	C69.194,61.498,72.093,72.048,71.813,79.707z"/>
<path fill-rule="evenodd" clip-rule="evenodd" fill="#F78F1E" d="M173.488,124.688c-6.379,1.404-11.086,4.435-17.775,5.536
	c-0.923-6.252-2.352-12.013-2.133-19.376c-5.298,0.841-8.562,3.662-13.509,4.844c-0.724,4.831-0.856,10.239-0.711,15.917
	c-6.1,1.905-12.247,3.766-17.775,6.228c-1.301-26.75,8.955-54.768,15.643-76.814c8.444-1.238,15.984-3.358,23.463-5.536
	C164.414,79.082,168.052,102.759,173.488,124.688z M143.625,98.392c2.911-0.166,4.005-2.1,7.11-2.076
	c-1.581-4.92-0.881-12.06-2.844-16.608C146.833,86.289,143.948,91.093,143.625,98.392z"/>
<path fill-rule="evenodd" clip-rule="evenodd" fill="#F78F1E" d="M129.405,66.559c0.953,6.986-3.707,13.266-6.399,20.069
	c-7.689,19.428-16.964,40.829-24.886,60.897c23.78-1.907,48.159,0.928,68.257,4.844c-3.159,12.38-6.795,24.297-9.954,36.677
	c-23.342-8.25-58.984-7.555-84.611-2.768c3.184,14.21,5.813,31.048,8.532,43.597c-9.895,6.056-19.691,12.206-29.862,17.992
	c-6.515-52.907-16.238-105.721-24.175-155.011c9.655-5.136,19.905-9.692,30.574-13.84c2.522,22.035,7.183,45.55,8.532,66.434
	c10.953-27.401,19.963-56.692,29.862-85.118C106.818,62.245,118.112,64.401,129.405,66.559z"/>
<path fill-rule="evenodd" clip-rule="evenodd" fill="#F78F1E" d="M190.552,184.202c-1.246-20.933-0.741-43.567-1.422-65.05
	c-2.701-1.222-5.983,2.926-9.954,2.768c-1.182-10.384-4.033-19.142-6.399-28.373c16.727-9.088,51.079-20.238,79.634-17.3
	c29.553,3.04,26.617,35.378,12.088,52.593c16.566-3.322,32.885,4.649,35.55,19.376c2.659-16.097,5.4-32.113,7.11-49.133
	c7.079,1.414,15.022,1.987,22.041,3.46c-2.803,17.802-6.211,35.015-10.664,51.209c8.845-8.923,17.547-23.98,24.885-36.677
	c6.721-0.082,11.55,1.677,17.775,2.076c-1.443,14.051-3.416,27.585-4.977,41.521c9.033-15.709,15.603-30.336,22.752-48.44
	c7.226,1.964,13.895,4.469,21.33,6.228c-13.865,28.669-30.885,55.75-44.082,83.042c-6.993-1.037-12.41-3.607-19.197-4.844
	c1.168-11.089,1.795-22.703,1.422-35.293c-8.092,7.12-15.295,21.099-22.753,31.141c-7.735-0.775-14.319-2.672-22.753-2.768
	c1.04-4.524,2.009-9.118,2.845-13.841c-6.269,11.608-17.226,20.77-32.707,20.068c-21.543-0.975-28.281-25.104-19.908-44.98
	c-8.485,3.969-17.335,13.575-27.729,17.992c0.861,9.772,1.771,19.498,2.133,29.757c-9.811,1.754-17.579,5.496-27.019,7.612
	c0-6.229,0-12.457,0-18.685c1.755-1.304,0.233-30.265,0-12.456C190.552,178.204,190.552,181.203,190.552,184.202z M243.167,103.235
	c-7.339-6.397-21.063-0.152-29.151,1.384c1.192,10.374-0.088,23.152,1.422,33.217C227.195,128.75,242.743,123.353,243.167,103.235z
	 M190.552,132.992c-0.193-1.481,0.551-7.382-0.711-5.536C190.034,128.938,189.291,134.838,190.552,132.992z M257.387,164.133
	c2.346,20.678,35.703,5.666,25.598-13.841C274.707,134.317,255.912,151.126,257.387,164.133z"/>
<path fill-rule="evenodd" clip-rule="evenodd" fill="#572E90" d="M67.546,97.7c2.242,1.132-0.137,6.978-2.133,8.304
	c0.59-4.61-2.276-6.027,1.422-7.612C66.705,97.803,67.113,97.739,67.546,97.7z"/>
<path fill-rule="evenodd" clip-rule="evenodd" fill="#1C1112" d="M215.438,137.836c-1.51-10.064-0.23-22.843-1.422-33.217
	c8.089-1.536,21.813-7.782,29.151-1.384C242.743,123.353,227.195,128.75,215.438,137.836z M225.392,123.996
	c1.271-4.39,2.935-4.821,3.556-8.996c-2.01-1.946-6.787-0.925-8.533-1.384c-2.228,2.085-0.645,10.761,0,15.917
	C222.514,128.115,224.119,126.217,225.392,123.996z"/>
<path fill-rule="evenodd" clip-rule="evenodd" fill="#F78F1E" d="M421.631,108.08c9.396,5.619,19.184,10.855,28.441,16.608
	c-15.353,18.274-31.994,35.295-44.794,56.054c-6.985-2.891-12.949-6.773-20.62-8.997
	C395.609,149.186,406.282,126.357,421.631,108.08z"/>
<path fill-rule="evenodd" clip-rule="evenodd" fill="#572E90" d="M9.243,111.54c2.232,0.783,1.879-0.199,3.555,0.692
	c-0.024,6.177,1.908,6.299,1.422,12.456c-0.245-1.671-8.307-4.17-11.376-7.612c-0.531-0.595,1.878-1.824-1.422-0.692
	c0.116-0.805-0.157-1.231-0.711-1.384c0.746-1.432,7.246-3.588,7.11-1.384C8.485,113.108,8.898,112.357,9.243,111.54z"/>
<path fill-rule="evenodd" clip-rule="evenodd" fill="#FDFEFD" d="M225.392,123.996c-1.273,2.221-2.878,4.119-4.977,5.536
	c-0.645-5.155-2.228-13.832,0-15.917c0,4.613,0,9.227,0,13.84C223.202,127.828,223.99,122.678,225.392,123.996z"/>
<path fill-rule="evenodd" clip-rule="evenodd" fill="#FDFEFD" d="M159.268,139.22c3.105,0.024,4.199-1.911,7.11-2.076
	c-1.043,2.214-4.72,1.865-7.11,2.768C159.268,139.682,159.268,139.451,159.268,139.22z"/>
<path fill-rule="evenodd" clip-rule="evenodd" fill="#FDFEFD" d="M138.648,137.145c3.393-2.805,2.234,4.719,4.266,5.536
	C139.999,142.289,141.563,137.536,138.648,137.145z"/>
<path fill-rule="evenodd" clip-rule="evenodd" fill="#FDFEFD" d="M163.533,146.833c4.551-0.738,5.909,1.631,8.532,2.769
	c0.567,5.626-0.983,9.192-2.844,12.456C171.744,155.26,172.831,146.814,163.533,146.833z"/>
<path fill-rule="evenodd" clip-rule="evenodd" fill="#FDFEFD" d="M157.845,193.889c6.544-5.31,5.458-18.171,9.954-26.988
	c-0.378,8.618-4.181,14.513-5.688,24.221C160.184,191.552,160.342,194.012,157.845,193.889z"/>
<path fill-rule="evenodd" clip-rule="evenodd" fill="#FDFEFD" d="M155.712,193.889c-0.195,1.633-2.649-0.063-2.844-0.691
	c-1.651,1.871-2.251,8.394-4.977,6.92c2.56-1.199,2.929-4.531,3.555-7.612C153.108,192.733,154.384,193.337,155.712,193.889z"/>
<path fill-rule="evenodd" clip-rule="evenodd" fill="#FDFEFD" d="M149.313,238.178c1.171-1.495,1.294,4.198,0.711,6.921
	c8.555-2.833,10.797-8.245,18.487-11.072c-6.087,4.686-12.292,9.258-19.198,13.147C149.783,243.86,148.583,239.566,149.313,238.178z
	"/>
<path fill-rule="evenodd" clip-rule="evenodd" fill="#FDFEFD" d="M169.933,233.334c3.858-4.212,9.827-8.079,16.353-11.765
	C181.607,226.244,175.463,229.491,169.933,233.334z"/>
<path fill-rule="evenodd" clip-rule="evenodd" fill="#FDFEFD" d="M212.593,255.479c-7.199-10.063-14.926-19.612-22.042-29.757
	c8.697,8.93,16.246,20.769,22.752,29.757C213.067,255.479,212.831,255.479,212.593,255.479z"/>
<path fill-rule="evenodd" clip-rule="evenodd" fill="#FDFEFD" d="M213.304,256.17c3.522,1.187,3.588,5.734,7.11,6.921
	C218.002,265.858,215.605,257.984,213.304,256.17z"/>
<path fill-rule="evenodd" clip-rule="evenodd" fill="#FDFEFD" d="M223.259,258.939c1.771-3.89,7.128-10.075,11.376-13.84
	C230.979,249.843,227.582,254.843,223.259,258.939z"/>
<path fill-rule="evenodd" clip-rule="evenodd" fill="#FDFEFD" d="M239.611,238.178c-0.714,2.765-3.028,3.973-4.266,6.229
	C234.65,243.005,238.067,239.698,239.611,238.178z"/>
<path fill-rule="evenodd" clip-rule="evenodd" fill="#FDFEFD" d="M246.012,230.566c0.955-3.452,3.525-5.334,5.688-7.611
	C250.198,225.876,248.018,228.137,246.012,230.566z"/>
<path fill-rule="evenodd" clip-rule="evenodd" fill="#F9D952" d="M264.498,228.491c-2.393-3.9-7.777-4.887-10.666-8.305
	c-1.408,0.303-3.127,3.056-0.711,1.384c-0.314,0.616-0.625,1.238-1.422,1.385c-2.162,2.277-4.732,4.159-5.688,7.611
	c-2.104,2.868-4.359,3.619-6.4,7.612c-1.544,1.52-4.961,4.827-4.266,6.229c0.131,0.589-0.277,0.652-0.711,0.692
	c-4.248,3.765-9.605,9.95-11.376,13.84c-0.787,1.223-2.979,2.364-2.844,4.152c-3.522-1.187-3.588-5.734-7.11-6.921
	c-0.604,0.128-0.67-0.27-0.711-0.691c0.237,0,0.474,0,0.711,0c-6.506-8.988-14.055-20.827-22.752-29.757
	c0.186-2.025-1.607-2.126-1.422-4.152c-0.948,0-1.896,0-2.844,0c-6.526,3.686-12.495,7.553-16.353,11.765
	c-0.02,0.673-0.87,0.537-1.422,0.692c-7.689,2.827-9.932,8.239-18.487,11.072c0.583-2.723,0.46-8.416-0.711-6.921
	c-0.691-0.019-0.552-0.847-0.711-1.384c1.68-4.821,0.762-18.597-0.711-24.912c-22.371,4.33-29.643,6.159-51.193,11.072
	c-1.185,0-2.37,0-3.555,0c0.603-1.663,0.457-1.833,0.711-4.845c0.938-2.74,1.381-4.896,1.422-6.92
	c1.268-2.474,3.876-7.276,2.133-10.38c2.879-2.734,0.927-2.604,1.422-4.152c1.634-3.254,10.102,0.144,12.798-2.076
	c2.631,0.38,2.559,0.641,6.399,0.692c0.628,1.729,6.377,2.051,7.821,0.691c2.917,2.155,4.591,1.68,10.666,2.769
	c1.968,1.106,6.714,3.121,8.532,2.076c1.486,0.293,1.883-0.475,2.844-0.692c2.726,1.474,3.326-5.049,4.977-6.92
	c0.195,0.628,2.649,2.324,2.844,0.691c0.934,0.831,1.118,0.271,2.133,0c2.497,0.123,2.338-2.337,4.266-2.768
	c1.507-9.708,5.31-15.603,5.688-24.221c1.775-1.726,0.178-1.039,1.422-4.844c1.861-3.264,3.411-6.83,2.844-12.456
	c-2.624-1.138-3.981-3.507-8.532-2.769c-3.644-1.523-6.752-0.343-13.509-2.076c-0.09-1.241,0.871-1.459,0.711-2.768
	c3.226,1.109,4.683-0.429,8.532-2.768c0,0.231,0,0.461,0,0.692c2.39-0.903,6.067-0.554,7.11-2.768c0.237,0,0.474,0,0.711,0
	c1.714-1.631,5.813-2.008,7.821-1.384c0.019,10.519-0.187,21.179,0.711,29.064c-1.658,16.148-0.237,35.292-0.711,52.594
	c1.342,0.585,3.224,4.182,4.977,2.075c0.474,0,0.948,0,1.422,0c2.121,1.567,6.61-0.46,7.821-2.075
	c9.099-1.916,13.473-3.106,19.908-6.229c0.115,0.811,1.296,0.584,2.133,0.692c0.645-0.822,3.465-2.998,1.422-4.152
	c0-0.462,0-0.923,0-1.384c1.792-0.563,2.831-1.859,4.266-2.769c2.887,0.272,4.954-0.253,4.977-2.768
	c2.858-3.822,1.701-15.409-0.711-18.685c0-0.23,0-0.462,0-0.692c1.632-1.41,0.257-5.747,0.711-8.304
	c-0.13-0.589,0.277-0.653,0.711-0.692c3.859-1.153,0.841,8.954,2.844,11.765c1.552,3.008,0.754,4.219,2.134,7.612
	c2.328,6.96,6.446,12.179,13.509,14.532c0.644,0.733,5.046,3.751,10.665,2.075c1.924,1.149,8.74,1.149,10.665,0
	c0.251-0.969,1.252-0.06,1.423,0.692c0.896-2.132,4.765-1.667,7.109-2.768c1.123-0.527,3.166-3.596,4.977-4.152
	c7.423-2.281,21.857,3.928,30.574,4.152c6.475-1.161,5.308-9.402,12.799-9.688c2.008-0.208,1.959-4.239,4.266-2.076
	c-0.502,5.479-3.721,10.459-0.711,13.84c6.205,1.713,15.865,5.678,25.596,6.229c0.408,3.954,0.816,8,0.711,7.612
	c1.904,2.478-2.76-0.434-2.844,0.692c-1.266-0.508-0.103-1.259,0-2.076c-1.266,0.383-2.953,0.355-3.555,1.384
	c-11.614-2.609-23.566-6.502-34.84-8.996c-3.858-0.854-8.68,0.357-11.376-2.769c-1.569,2.594-0.924-0.8-2.845,0.692
	c-0.88,10.781-2.057,24.438-2.844,33.909c-9.572-3.833-17.363-13.086-25.596-15.917C264.604,229.31,264.537,228.913,264.498,228.491
	z"/>
<path fill-rule="evenodd" clip-rule="evenodd" fill="#FDFEFD" d="M253.121,221.57c-2.416,1.672-0.697-1.081,0.711-1.384
	c2.889,3.418,8.273,4.404,10.666,8.305C260.501,226.835,256.361,221.657,253.121,221.57z"/>
<path fill-rule="evenodd" clip-rule="evenodd" fill="#FDFEFD" d="M265.209,229.182c8.232,2.831,16.023,12.084,25.596,15.917
	c-0.064,0.07,0.081,0.66,0,0.691C286.025,247.621,272.313,231.768,265.209,229.182z"/>
<path fill-rule="evenodd" clip-rule="evenodd" fill="#FDFEFD" d="M319.246,196.658c1.69-2.045,2.574-4.875,4.266-6.92
	c1.76,0.667-0.98,2.657,0,4.844C321.205,192.418,321.254,196.45,319.246,196.658z"/>
<path fill-rule="evenodd" clip-rule="evenodd" fill="#FDFEFD" d="M227.525,191.814c3.451,5.866,7.17,11.474,13.509,14.532
	C233.972,203.993,229.854,198.774,227.525,191.814z"/>
<path fill-rule="evenodd" clip-rule="evenodd" fill="#FDFEFD" d="M222.547,172.437c1.024-0.388,1.735-1.079,2.133-2.076
	c1.648,3.24,0.245,9.45,0.711,13.841C223.389,181.391,226.406,171.284,222.547,172.437z"/>
<path fill-rule="evenodd" clip-rule="evenodd" fill="#FDFEFD" d="M189.13,217.418c-1.211,1.615-5.701,3.643-7.821,2.075
	C184.531,219.401,186.205,217.801,189.13,217.418z"/>
<path fill-rule="evenodd" clip-rule="evenodd" fill="#FDFEFD" d="M175.621,164.825c3.307,14.629-4.438,38.364,0,51.209
	c0.527,1.526,1.734,3.428,4.266,3.46c-1.753,2.106-3.635-1.49-4.977-2.075C175.383,200.117,173.962,180.973,175.621,164.825z"/>
<path fill-rule="evenodd" clip-rule="evenodd" fill="#FDFEFD" d="M174.91,135.76c-2.009-0.624-6.107-0.247-7.821,1.384
	C167.611,135.289,175.503,132.083,174.91,135.76z"/>
<path fill-rule="evenodd" clip-rule="evenodd" fill="#FDFEFD" d="M212.593,207.73c2.043,1.154-0.777,3.33-1.422,4.152
	c-0.837-0.108-2.018,0.118-2.133-0.692C211.094,210.884,212.279,209.731,212.593,207.73z"/>
<path fill-rule="evenodd" clip-rule="evenodd" fill="#FDFEFD" d="M212.593,206.346c0-0.692,0-1.385,0-2.076
	c2.173,0.5,2.591-0.708,4.266-0.692C215.424,204.487,214.385,205.783,212.593,206.346z"/>
<path fill-rule="evenodd" clip-rule="evenodd" fill="#FDFEFD" d="M96.698,222.955c-0.841,1.258-3.708,0.544-4.977,1.384
	c0.776-2.013,0.666-4.889,2.133-6.229c-0.254,3.012-0.108,3.182-0.711,4.845C94.328,222.955,95.513,222.955,96.698,222.955z"/>
<path fill-rule="evenodd" clip-rule="evenodd" fill="#FDFEFD" d="M97.409,200.81c1.743,3.104-0.865,7.906-2.133,10.38
	C96.147,207.886,96.244,203.828,97.409,200.81z"/>
<path fill-rule="evenodd" clip-rule="evenodd" fill="#FDFEFD" d="M118.028,195.274c2.933-0.087,4.453,1.202,7.821,0.691
	C124.406,197.325,118.656,197.003,118.028,195.274z"/>
<path fill-rule="evenodd" clip-rule="evenodd" fill="#FDFEFD" d="M136.515,198.734c3.33,0.219,5.59,1.479,8.532,2.076
	C143.229,201.855,138.483,199.84,136.515,198.734z"/>
<path fill-rule="evenodd" clip-rule="evenodd" fill="#FDFEFD" d="M139.359,144.064c-1.449-1.078-7.67,0.2-4.977-2.768
	C134.685,143.539,139.163,141.718,139.359,144.064z"/>
<path fill-rule="evenodd" clip-rule="evenodd" fill="#FDFEFD" d="M263.075,164.825c1.573,1.339,1.404,3.448,4.267,4.845
	C264.125,169.801,263.289,167.616,263.075,164.825z"/>
<path fill-rule="evenodd" clip-rule="evenodd" fill="#F78F1E" d="M405.989,190.429c-2.895,5.257-5.253,11.034-8.532,15.917
	c-8.891-4.035-18.545-7.325-29.151-9.688c1.86-7.646,4.917-14.13,9.243-19.377C386.48,182.199,396.926,185.641,405.989,190.429z"/>
<path fill-rule="evenodd" clip-rule="evenodd" fill="#1CAAD7" d="M86.033,223.646c0.094,1.706,0.108,3.334-0.711,4.152
	c-1.542,0.116-0.322-2.455-0.711-3.46C84.768,223.799,85.206,223.534,86.033,223.646z"/>
<path fill-rule="evenodd" clip-rule="evenodd" fill="#572E90" d="M81.056,204.961c-1.551-2.412-1.589-6.296-2.133-9.688
	c4.521,0.479,6.854-1.172,11.376-0.692c-0.132,1.024-1.718,0.635-2.844,0.692c0.718,1.948,3.02-0.191,4.266,0
	c0.798,4.714-3.142,8.455-1.422,11.764c-1.344,5.612-2.184,11.715-4.266,16.608c-0.827-0.112-1.265,0.153-1.422,0.692
	c-1.499-4.308-2.218-9.375-2.844-14.532c2.028-1.575-0.999-4.057,0-6.921C80.934,202.998,81.167,204.147,81.056,204.961z"/>
<path fill-rule="evenodd" clip-rule="evenodd" fill="#1CAAD7" d="M90.299,207.038c-1.719-3.309,2.22-7.05,1.422-11.764
	c-1.247-0.191-3.548,1.948-4.266,0c1.125-0.058,2.712,0.332,2.844-0.692c1.009,0.06,2.014,0.114,2.133-0.692
	C94.128,197.863,90.897,202.995,90.299,207.038z"/>
<path fill-rule="evenodd" clip-rule="evenodd" fill="#1C1112" d="M371.149,222.262c1.468,9.874,4.362,18.36,6.399,27.681
	c-1.676,0.016-2.094-1.192-4.266-0.692c0.617-2.013,1.064-0.778,2.844-0.691C375.506,239.241,370.26,230.744,371.149,222.262z"/>
<path fill-rule="evenodd" clip-rule="evenodd" fill="#1C1112" d="M372.571,248.559c-8.854-1.532-16.593-4.15-25.597-5.536
	C354.319,242.801,367.425,246.641,372.571,248.559z"/>
<path fill-rule="evenodd" clip-rule="evenodd" fill="#1C1112" d="M345.553,242.331c-4.812-0.854-8.979-2.333-14.221-2.768
	C330.681,237.38,344.859,241.317,345.553,242.331z"/>
<path fill-rule="evenodd" clip-rule="evenodd" fill="#1C1112" d="M100.253,241.638c1.665-0.946,5.945-2.938,7.821-1.384
	C104.765,240.032,103.33,241.634,100.253,241.638z"/>
<path fill-rule="evenodd" clip-rule="evenodd" fill="#1C1112" d="M85.322,245.099c-1.487-0.178,7.652-3.563,4.977-0.692
	C87.833,243.852,87.566,245.437,85.322,245.099z"/>
<path fill-rule="evenodd" clip-rule="evenodd" fill="#1C1112" d="M76.079,247.174c1.666-0.946,5.945-2.938,7.821-1.384
	C80.59,245.568,79.155,247.17,76.079,247.174z"/>
<path fill-rule="evenodd" clip-rule="evenodd" fill="#1CAAD7" d="M139.359,218.802c1.344,0.155,1.569-0.78,2.844-0.692
	c1.334,1.32-0.422,1.252,0,3.46c-0.121,1.035,0.254,2.554-0.711,2.769c0-1.615,0-3.229,0-4.845
	C140.655,219.386,139.474,219.613,139.359,218.802z"/>
<path fill-rule="evenodd" clip-rule="evenodd" fill="#1CAAD7" d="M201.928,250.635c-2.551-2.37-7.638-8.247-9.954-13.148
	C195.896,241.282,198.848,246.021,201.928,250.635z"/>
<path fill-rule="evenodd" clip-rule="evenodd" fill="#1CAAD7" d="M285.828,249.943c2.148,3.177-10.339-5.587-6.399-4.152
	C281.934,246.813,283.736,248.518,285.828,249.943z"/>
<path fill-rule="evenodd" clip-rule="evenodd" fill="#1CAAD7" d="M312.846,220.878c3.38-0.29,5.129,1.006,7.822,1.384
	c-2.473,1.683-6.963-0.582-9.244-1.384C311.898,220.878,312.372,220.878,312.846,220.878z"/>
<path fill-rule="evenodd" clip-rule="evenodd" fill="#1C1112" d="M147.891,79.707c1.963,4.548,1.263,11.688,2.844,16.608
	c-3.105-0.024-4.199,1.911-7.11,2.076C143.948,91.093,146.833,86.289,147.891,79.707z"/>
<path fill-rule="evenodd" clip-rule="evenodd" fill="#FDFEFD" d="M302.182,100.467c0,1.154,0,2.307,0,3.46
	c-1.67-0.221-2.67-1.093-4.978-0.692c0.089-1.528,3.017-0.293,4.267-0.692C301.243,101.696,301.584,98.27,302.182,100.467z"/>
<path fill-rule="evenodd" clip-rule="evenodd" fill="#1C1112" d="M282.984,150.292c10.105,19.507-23.252,34.519-25.598,13.841
	C255.912,151.126,274.707,134.317,282.984,150.292z M267.342,169.669c0.008,0.697,1.246,0.87,1.422,0
	c-1.445-0.788,1.072-3.516,1.422-4.845c-0.689-3.942-3.805-5.524-6.398-7.612c0.813,2.177-1.117,1.682-1.423,2.769
	c1.519,0.433,0.667,4.26,0,4.844c0.237,0,0.474,0,0.711,0C263.289,167.616,264.125,169.801,267.342,169.669z"/>
<path fill-rule="evenodd" clip-rule="evenodd" fill="#572E90" d="M25.597,197.35c0-0.231,0-0.462,0-0.692
	c-3.583-0.442-3.541-1.27-6.399-1.384c1.707-1.818,4.692-6.02,6.399-5.536c-0.496,3.48,1.207,4.823,0.711,8.304
	C25.703,198.169,25.637,197.772,25.597,197.35z"/>
<path fill-rule="evenodd" clip-rule="evenodd" fill="#1CAAD7" d="M81.767,209.806c-0.979-0.893-0.704-3.006-0.711-4.845
	c0.111-0.814-0.122-1.964,0.711-2.076C80.768,205.75,83.795,208.231,81.767,209.806z"/>
<path fill-rule="evenodd" clip-rule="evenodd" fill="#DA3C2D" d="M251.699,208.421c3.555,0,7.109,0,10.665,0
	C260.439,209.571,253.623,209.571,251.699,208.421z"/>
<path fill-rule="evenodd" clip-rule="evenodd" fill="#FDFEFD" d="M148.602,236.794c0.549-9.069-1.069-16.029-0.711-24.912
	C149.364,218.198,150.282,231.973,148.602,236.794z"/>
<path fill-rule="evenodd" clip-rule="evenodd" fill="#1CAAD7" d="M142.914,229.875c-0.433,4.573,1.243,7.095,0.711,11.764
	C140.919,240.565,142.108,232.066,142.914,229.875z"/>
<path fill-rule="evenodd" clip-rule="evenodd" fill="#FDFEFD" d="M334.177,106.003c-0.64,1.916,1.461,6.497-1.422,6.229
	C332.965,109.899,333.111,107.505,334.177,106.003z"/>
<path fill-rule="evenodd" clip-rule="evenodd" fill="#FDFEFD" d="M143.625,143.373c3.138,0.286,5.495-0.188,7.11-1.384
	c0.159,1.309-0.801,1.527-0.711,2.768c-1.929-0.429-5.643,0.878-6.399-0.692C143.625,143.833,143.625,143.603,143.625,143.373z"/>
<path fill-rule="evenodd" clip-rule="evenodd" fill="#FDFEFD" d="M221.125,182.125c2.412,3.275,3.569,14.862,0.711,18.685
	C223.362,194.327,221.754,189.114,221.125,182.125z"/>
</svg>
