<?xml version="1.0" encoding="utf-8"?>
<!-- Generator: Adobe Illustrator 12.0.0, SVG Export Plug-In . SVG Version: 6.00 Build 51448)  -->
<!DOCTYPE svg PUBLIC "-//W3C//DTD SVG 1.1//EN" "http://www.w3.org/Graphics/SVG/1.1/DTD/svg11.dtd" [
	<!ENTITY ns_svg "http://www.w3.org/2000/svg">
	<!ENTITY ns_xlink "http://www.w3.org/1999/xlink">
]>
<svg  version="1.1" id="Layer_1" xmlns="&ns_svg;" xmlns:xlink="&ns_xlink;" width="88.568" height="64.129"
	 viewBox="0 0 88.568 64.129" overflow="visible" enable-background="new 0 0 88.568 64.129" xml:space="preserve">
<g enable-background="new    ">
	<path fill="#050505" stroke="#6E6E6E" d="M48.186,12.386l-0.147,0.392l3.332,3.186l-5.88,12.445h-4.557l2.989,2.989l-9.506,20.188
		H4.674l-3.283-3.282H0.999l4.214-8.869h4.459l-2.695-2.695H6.585L18.1,12.386H48.186z M32.31,20.667l-1.96,3.772h11.319
		l5.439-11.368H18.492L7.565,36.053h17.248l-1.862,4.066H5.605l-3.626,7.497h28.616l9.065-19.109H22.51l3.724-7.84H32.31z
		 M29.664,25.126l-1.323,2.694h4.116l-2.744-2.694H29.664z"/>
</g>
<g enable-background="new    ">
	<path fill="#050505" stroke="#6E6E6E" d="M48.186,12.386l-0.147,0.392l3.332,3.186l-5.88,12.445h-4.557l2.989,2.989l-9.506,20.188
		H4.674l-3.283-3.282H0.999l4.214-8.869h4.459l-2.695-2.695H6.585L18.1,12.386H48.186z M32.31,20.667l-1.96,3.772h11.319
		l5.439-11.368H18.492L7.565,36.053h17.248l-1.862,4.066H5.605l-3.626,7.497h28.616l9.065-19.109H22.51l3.724-7.84H32.31z
		 M29.664,25.126l-1.323,2.694h4.116l-2.744-2.694H29.664z"/>
</g>
<g enable-background="new    ">
	<path fill="#050505" stroke="#6E6E6E" d="M48.186,12.386l-0.147,0.392l3.332,3.186l-5.88,12.445h-4.557l2.989,2.989l-9.506,20.188
		H4.674l-3.283-3.282H0.999l4.214-8.869h4.459l-2.695-2.695H6.585L18.1,12.386H48.186z M32.31,20.667l-1.96,3.772h11.319
		l5.439-11.368H18.492L7.565,36.053h17.248l-1.862,4.066H5.605l-3.626,7.497h28.616l9.065-19.109H22.51l3.724-7.84H32.31z
		 M29.664,25.126l-1.323,2.694h4.116l-2.744-2.694H29.664z"/>
</g>
<g enable-background="new    ">
	<path fill="#050505" stroke="#6E6E6E" d="M66.938,4.435l-0.098,0.294l2.743,2.842l1.862-3.185H84.43l-0.244,0.392l3.381,3.283
		L63.998,45.007h-18.13l-3.283-3.283h-0.343l11.81-37.289H66.938z M65.909,5.12H54.492L43.124,41.037h17.052L83.01,5.071H71.789
		L55.374,33.54l-0.146-0.098L65.909,5.12z"/>
</g>
<g enable-background="new    ">
	<path fill="#050505" stroke="#6E6E6E" d="M66.938,4.435l-0.098,0.294l2.743,2.842l1.862-3.185H84.43l-0.244,0.392l3.381,3.283
		L63.998,45.007h-18.13l-3.283-3.283h-0.343l11.81-37.289H66.938z M65.909,5.12H54.492L43.124,41.037h17.052L83.01,5.071H71.789
		L55.374,33.54l-0.146-0.098L65.909,5.12z"/>
</g>
<g enable-background="new    ">
	<path fill="#050505" stroke="#6E6E6E" d="M66.938,4.435l-0.098,0.294l2.743,2.842l1.862-3.185H84.43l-0.244,0.392l3.381,3.283
		L63.998,45.007h-18.13l-3.283-3.283h-0.343l11.81-37.289H66.938z M65.909,5.12H54.492L43.124,41.037h17.052L83.01,5.071H71.789
		L55.374,33.54l-0.146-0.098L65.909,5.12z"/>
</g>
</svg>
