<?xml version="1.0" encoding="utf-8"?>
<!-- Generator: Adobe Illustrator 12.0.0, SVG Export Plug-In . SVG Version: 6.00 Build 51448)  -->
<!DOCTYPE svg PUBLIC "-//W3C//DTD SVG 1.1//EN" "http://www.w3.org/Graphics/SVG/1.1/DTD/svg11.dtd" [
	<!ENTITY ns_svg "http://www.w3.org/2000/svg">
	<!ENTITY ns_xlink "http://www.w3.org/1999/xlink">
]>
<svg  version="1.1" id="Layer_1" xmlns="&ns_svg;" xmlns:xlink="&ns_xlink;" width="447.939" height="299.644"
	 viewBox="0 0 447.939 299.644" overflow="visible" enable-background="new 0 0 447.939 299.644" xml:space="preserve">
<path fill="#FDFEFD" d="M317.113,68.511c-2.844,0-5.688,0-8.532,0c2.461-2.275,4.539-0.62,8.532-0.692
	C317.113,68.049,317.113,68.28,317.113,68.511z"/>
<path fill="#1CAAD7" d="M332.046,89.271c-2.974,0.587-2.815-1.874-4.269-2.768C328.641,79.613,338.238,86.229,332.046,89.271z"/>
<path fill="#255A94" d="M175.621,91.347c0.895,3.904-3.967,2.96-4.977,1.384C171.33,91.323,173.375,91.237,175.621,91.347z"/>
<path fill="#1C1112" d="M245.3,118.336c-2.879,0.195-4.94,1.188-7.821,1.383c1.745-6.375,4.5-11.768,7.11-17.3
	C245.663,107.159,244.959,110.838,245.3,118.336z"/>
<path fill="#FDFEFD" d="M216.149,164.008c1.477-0.713,0.369,6.999,0.711,9.688C215.383,174.411,216.491,166.698,216.149,164.008z"/>
<path fill="#F8CF19" d="M39.107,184.078c-1.161-0.313-1.161,3.771,0,3.46c-8.089,0.947-18.005-2.311-26.308-3.46
	c5.561-7.587,12.772-11.576,19.909-18.685c2.703,4.75,2.287,12.535,5.688,16.607C38.365,182.954,38.731,183.521,39.107,184.078z"/>
<path fill="#255A94" d="M276.586,193.765c0,2.307,0,4.613,0,6.922c-0.237,0-0.475,0-0.711,0
	C276.32,198.582,274.964,194.726,276.586,193.765z"/>
<path fill="#FDFEFD" d="M263.076,202.069c0.119-1.5-2.521-0.313-3.555-0.691c-2.265-0.953,2.512-0.686,3.555-0.691
	c0.947,0,1.896,0,2.844,0c0,0.461,0,0.922,0,1.385C264.867,201.269,264.129,201.269,263.076,202.069z"/>
<path fill="#1CAAD7" d="M335.6,222.83c0.236,0,0.475,0,0.711,0c0.711,0.922,1.172,2.089,2.133,2.769
	c-0.401,3.637-6.701,3.514-5.688-1.384C333.191,223.254,335.492,224.11,335.6,222.83z"/>
<path fill="#1C1112" d="M222.548,30.45c2.892-2.953,5.169-6.502,9.243-8.304c2.611,3.497,4.719,5.808,5.688,8.304
	c3.449,5.409,6.957,10.76,11.377,15.225c4.045,5.323,8.051,9.94,11.377,15.916c0.78,2.008,2.271,3.325,3.555,4.844
	c1.01,0.06,2.014,0.114,2.133-0.692c0.236,0,0.475,0,0.712,0c2.468-0.827,5.522-1.083,7.108-2.768
	c3.562-2.302,9.119-2.658,13.511-4.152c2.7-1.062,5.526-2.003,8.532-2.768c1.843-1.016,2.644-2.551,4.978-1.384
	c0.146,2.166-0.479,5.08,0.711,6.228c0.394,2.934-0.067,4.348,2.845,6.228c-0.119,0.807-1.123,0.751-2.134,0.692
	c0.757,1.57,4.47,0.263,6.398,0.692c2.846,0,5.688,0,8.532,0c3.57-0.477,5.738,0.412,7.82,1.384
	c0.002,0.694-0.576,0.824-0.711,1.384c2.15,1.916-3.225,8.946,1.422,6.92c0.238,0,0.476,0,0.711,0
	c6.453-0.871,13.205-1.45,19.197-2.768c0.238,0,0.475,0,0.711,0c5.789,0.097,5.73-5.497,9.244-7.612
	c10.473,0.417,19.883,1.87,30.574,2.076c1.268,1.303,1.922,3.204,3.555,4.152c-4.684,18.105-9.221,34.915-12.799,52.593
	c5.871,1.993,3.637-7.946,9.244-8.304c0.48-2.214,3.229-0.463,3.555-1.385c1.484-1.785,2.129-4.387,4.266-5.536
	c14.039,2.944,25.474,8.426,37.685,13.148c1.332,2.828,1.51,5.548,0.711,7.612c-2.524,7.61-5.543,11.117-8.531,17.301
	c-8.899,15.97-15.905,29.625-21.329,44.98c-2.548,8.05-3.863,10.648-7.111,16.607c-3.461,4.705-5.035,11.246-7.82,16.608
	c-2.281,2.162-8.152,0.831-7.822,5.536c1.881,3.475,7.439,3.37,9.244,6.92c-1.941,10.566-5.244,19.809-8.533,29.064
	c-5.727,0.423-8.072,4.138-9.953,8.305c-16.438-1.994-27.244-9.469-39.815-15.225c1.368-10.561,3.424-16.392,6.397-25.604
	c-12.639-4.769-26.322-8.521-39.815-12.456c-2.05,12.309-4.011,24.7-4.979,38.061c-0.236,0-0.473,0-0.711,0
	c-3.434-2.424-6.402-5.301-9.953-7.611c0.131-0.59-0.277-0.652-0.711-0.691c-9.471-7.393-18.603-15.113-27.729-22.837
	c-1.779-0.116-2.226,1.063-2.845,2.076c-0.979,0.692,0.305,1.142-1.422,2.076c-11.808,12.498-23.201,25.397-34.128,38.753
	c-0.474,0-0.948,0-1.422,0c-1.164-3.74-3.791-4.436-2.845-6.229c-2.73-3.108-4.731-6.93-7.109-10.381
	c-2.473-2.152-5.23-6.334-5.688-8.305c-1.027-2.46-2.531-4.457-4.267-6.229c-0.962-0.383-2.211-1.776-2.844-5.535
	c-1.881-1.86-2.797-4.659-4.977-6.229c-0.611-0.56-0.423-1.896-1.422-2.075c0.109-1.723-1.117-2.144-1.422-3.461
	c-6.046,3.805-12.205,7.498-18.486,11.072c-0.605-0.127-0.672,0.27-0.712,0.691c-5.602,2.621-10.204,6.215-15.642,8.996
	c-0.633,0.308-1.271,0.607-1.422,1.385c-2.931,0.378-4.162,2.408-6.4,3.459c-0.604-0.127-0.67,0.271-0.711,0.693
	c-1.657-11.535-0.237-26.065-0.711-38.754c-0.079-1.326-2.381,0.813-4.266,0c-0.576,0.131-0.709,0.694-1.422,0.691
	c-3.393-0.534-4.576,1.083-7.821,0.691c-1.91,1.688-4.942,0.744-6.399,1.385c-8.403,0.355-15.262,2.216-23.464,2.769
	c-0.237,0-0.474,0-0.711,0c-2.46,0.834-5.087,1.509-8.532,1.384c-0.237,0-0.474,0-0.711,0c-1.485,1.092-4.721,0.479-6.399,1.385
	c2.16-9.432,5.812-17.41,7.821-26.988c-4.722-0.213-4.907,3.988-6.399,6.92c-11.284,3.689-22.334,7.563-34.84,8.305
	c-1.856-8.804-3.496-17.818-6.399-25.604c-0.376-0.557-0.742-1.124-0.711-2.076c-1.493-5.491-3.313-12.29-3.555-18.686
	c-0.421-11.103-9.498-23.021-8.532-29.756c0.89-6.202,8.355-6.378,9.954-12.456c0.237,0,0.474,0,0.711,0
	c1.848-0.277,2.144-2.065,4.266-2.076c-2.26-3.337-5.801-5.426-9.243-7.612c1.104-0.835,1.904-3.055,3.555-1.384
	c2.34-0.029,3.54-1.168,6.399-0.692c0.434-0.039,0.842-0.103,0.711-0.692c12.314-0.932,22.855-3.59,34.84-4.844
	c0.434-0.039,0.842-0.103,0.711-0.692c5.799-0.122,9.985-1.815,15.642-2.076c-0.064-1.888,1.185-1.393,0-2.769
	c-1.084-1.699-1.287-4.696-1.422-7.612c0.401-3.158-1.26-4.31-0.711-7.612c-2.742-6.554-3.403-15.754-3.555-21.453
	c0.156-2.228-1.258-2.928-0.711-5.536c-0.819-0.818-0.805-2.446-0.711-4.152c2.863-0.71,3.159,1.078,4.266,2.076
	c2.668,0.632,5.026,1.567,7.821,2.076c4.672,0.889,6.122,1.089,9.243,2.768c3.801,1.376,7.523,2.827,12.087,3.46
	c0.079,2.451,2.351-1.471,2.133,0.692c11.843,7.455,21.441,0.18,31.996-4.152c0-0.922,0-1.845,0-2.768
	c0.164-1.012,0.342-5.109,2.133-8.304c0.965-0.214,0.59-1.733,0.711-2.769c5.457,1.841,9.871,4.694,14.932,6.92
	c3.191,0.123,5.139,1.458,6.399,3.46c4.465,2.344,9.425,4.207,13.509,6.92c9.814-9.593,18.999-19.801,28.441-29.757
	C221.439,32.139,222.15,31.446,222.548,30.45z M233.924,35.294c-0.766-1.793-2.57-2.573-2.844-4.844
	c-0.979-0.03-1.563,0.326-2.135,0.692c0,0.23,0,0.461,0,0.692c-4.215,3.047-7.292,7.203-10.665,11.072
	c-1.253,0.625-2.201,1.548-2.844,2.768c-1.529,1-4.047,3.328-2.844,4.844c-0.237,0-0.475,0-0.711,0
	c-0.983-1.134-3.284,2.301-4.267,3.46c-2.116,0.939-2.952,3.124-4.266,4.844c-0.434,0.04-0.842,0.104-0.711,0.692
	c-1.215,1.159-5.23,3.167-3.556,4.844c-1.597-0.105-3.493,2.832-5.688,4.152c-1.354-0.297-1.785-1.491-3.555-1.384
	c-0.887-1.673-2.914-2.238-4.977-2.768c-1.797-1.02-3.177-2.445-5.688-2.768c-1.886-1.394-3.987-2.578-6.399-3.46
	c-1.354-0.297-1.786-1.491-3.555-1.384c-0.186-0.973-1.56-0.789-2.133-1.384c-2.012-1.041-3.287-2.798-6.399-2.768
	c0.412,2.247-0.484,3.22-0.711,4.844c-1.103,1.695-1.061,4.504-1.423,6.92c0,0.923,0,1.846,0,2.768
	c-0.818,0.818-0.805,2.446-0.711,4.152c0,0.692,0,1.384,0,2.076c-0.979,0.892-0.703,3.006-0.711,4.844
	c-1.199,6.223-1.531,7.964-2.133,13.84c0.016,1.63-1.225,2.038-0.711,4.152c0.016,1.63-1.225,2.038-0.711,4.152
	c-0.43,1.658-1.021,3.157-0.711,5.536c-1.542-0.117-0.322,2.455-0.711,3.46c-0.955,0.636-1.453,6.553,0.711,4.152
	c2.244,0.339,2.511-1.247,4.977-0.692c0.553-0.154,1.402-0.019,1.423-0.691c2.928,0.543,3.648-1.063,6.399-0.692
	c0.908-0.038,0.984-0.887,2.133-0.692c2.75,0.371,3.471-1.235,6.398-0.692c0-0.692,0-1.384,0-2.076
	c1.469-1.569,4.167-1.942,6.399-2.768c1.345,0.155,1.569-0.78,2.845-0.692c0-1.384,0-2.768,0-4.152
	c1.572-0.997-0.896-1.688,0.711-2.076c0.008,0.698,1.246,0.871,1.422,0c2.014-1.038,5.367-0.773,7.109-2.076
	c1.064-0.118,2.625,0.247,2.845-0.692c3.919-0.107,6.515-1.502,9.954-2.076c0.837-0.108,2.018,0.119,2.133-0.692
	c6.836-1.483,9.974,3.219,7.821,8.305c2.477-0.588,2.657-3.411,3.555-5.536c0.555-0.153,0.827-0.58,0.711-1.384
	c2.595-1.857,2.6-6.235,7.11-6.228c1.811-0.084,2.758-1.007,2.844-2.768c1.668-2.76,3.455-5.404,7.822-5.536
	c5.051-0.39,9.588-1.279,14.221-2.076c1.285,1.169,3.59-0.572,5.688-0.692c1.752,0.091,3.426,0.105,4.266-0.692
	c0.237,0,0.475,0,0.711,0c0.158,0.539,0.597,0.804,1.422,0.692c1.671,0.221,1.593,2.142,2.846,2.768c0,1.845,0,3.69,0,5.536
	c0.631,2.525-1.256,3.686,0,4.844c-1.604,0.515-0.278,3.881-0.712,5.536c1.422,0.499-1.349,8.112,0.712,8.304
	c2.127-2.542,3.141-6.169,4.266-9.688c1.055-0.588,1.528-1.742,1.422-3.46c1.25-0.63,1.301-2.425,2.133-3.46
	c-0.551-0.155-1.401-0.019-1.422-0.692c0.476,0,0.948,0,1.422,0c0.957-1.376,1.355-3.294,2.135-4.844
	c1.111-2.148,1.727-4.781,4.267-5.536c1.423,0,2.845,0,4.267,0c-0.588-1.956,1.002-1.793,0.711-3.46
	c-0.041-0.422-0.105-0.819-0.711-0.692c0.149-0.836,0.789-0.425,1.422,0c0.715-0.919,0.672-2.575,2.133-2.768
	c0-0.23,0-0.461,0-0.692c3.553-0.363,4.994-1.113,7.822,0c-0.435-1.655,0.893-5.021-0.711-5.536
	c-0.111-0.814,0.121-1.964-0.711-2.076c-0.232,1.621-3.103,0.672-3.558,2.076c-0.979-0.03-1.562,0.326-2.133,0.692
	c-2.235-0.332-2.778,0.986-4.267,1.384c-1.819,0.073-3.389,0.392-4.266,1.384c-3.324,0.686-5.92,2.082-9.244,2.768
	c-0.713-0.002-0.846,0.561-1.422,0.692c-1.345-0.155-1.568,0.78-2.844,0.692c0,0.23,0,0.461,0,0.692
	c-2.01-0.572-1.843,0.975-3.557,0.692c0,0.231,0,0.461,0,0.692c-0.946,0-1.896,0-2.844,0c-0.158-0.537-0.02-1.365-0.711-1.384
	c-1.348-2.61-3.242-4.688-4.978-6.92c-0.64-1.223-1.716-2.02-2.134-3.46c0-0.23,0-0.461,0-0.692
	c-1.014-0.166-1.198-1.14-2.133-1.384c-4.193-6.744-6.082-7.503-9.953-13.84c0-0.23,0-0.461,0-0.692
	c-2.166-0.43-1.391-3.722-3.557-4.152c-0.17-0.988-1.171-1.167-1.422-2.076C235.345,37.14,234.885,35.974,233.924,35.294z
	 M98.832,61.59c0-0.23,0-0.461,0-0.692c-2.639,0.539-4.884-2.838-5.688,0c2.692,11.451,4.061,24.19,5.688,36.677
	c4.288-0.639,8.436-6.545,12.798-2.768c1.305-2.52-0.158-4.133,0.711-6.228c0-1.384,0-2.768,0-4.152
	c-0.159-1.309,0.802-1.527,0.711-2.768c0.713,0.002,0.846-0.561,1.422-0.692c1.147-0.959,3.665-0.585,4.266-2.076
	c1.056-0.817,3.177-0.599,2.844-2.768c0.747-3.656,5.244-3.662,7.111-6.229c-2.205,0.07-3.397-0.846-4.978-1.384
	c-2.983,0.366-3.972-1.209-6.399-1.384c-4.559-1.56-8.8-3.43-14.22-4.152C101.769,62.422,100.494,61.818,98.832,61.59z
	 M126.561,76.815c-1.294,21.577-2.875,42.875-7.11,61.59c-3.768-13.634-6.704-28.076-11.376-40.83
	c-6.341,4.439-13.299,8.278-20.619,11.764c-3.864,16.769-7.239,34.014-14.22,47.749c-2.195-16.087-3.659-32.885-8.532-46.365
	c-8.531,4.845-17.795,8.976-24.886,15.224c6.403,21.485,13.494,48.199,19.198,72.662c8.408-3.35,17.52-6.016,27.018-8.305
	c4.017-15.283,6.749-28.463,13.509-40.137c4.544,10.341,9.716,20.07,11.376,33.217c8.537-1.379,16.435-3.381,24.885-4.844
	c5.525-35.47,13.204-74.792,17.775-113.491C144.545,66.603,135.293,72.78,126.561,76.815z M329.913,162.624
	c5.348-5.406,8.155-16.97,13.508-20.068c-3.886,16.097-9.22,45.657-11.375,65.741c8.739,0.259,15.808,2.146,24.174,2.769
	c6.554-48.752,17.488-93.238,29.152-137.019c-9.507-0.207-17.959-1.438-27.021-2.076c-16.998,20.824-30.66,44.897-44.082,69.202
	c-1.332-23.126,1.023-47.504,5.688-68.51c-11.127,0.819-19.289-1.435-27.729,0c-11.644,21.423-18.972,47.047-28.44,70.586
	c-0.134-18.024-3.957-41.672-1.423-62.282c-10.896,0-16.104,2.438-25.596,2.768c-10.392,16.184-18.155,34.924-25.598,53.978
	c0.399-13.868,0.098-24.048,0-40.829c-8.354,0.866-14.827,3.561-22.752,4.844c0,10.38,0,20.76,0,31.14
	c-6.396,0.234-10.615,2.586-16.354,3.461c1.268-7.221,0.996-17.535,2.844-22.145c-6.33,0.832-16.025,2.316-23.463,4.152
	c-1.259,23.691-4.318,50.755-4.266,76.121c8.641,0.336,14.73-1.81,23.463-1.384c-0.979-8.971-0.838-26.139,0-38.754
	c6.387-0.703,11.502-2.646,17.775-3.461c0.171,13.315-0.033,26.266-0.711,38.754c8.061-0.303,15.242-0.818,22.752-1.385
	c-0.153-12.836,1.247-24.16,0.711-37.369c5.621-0.296,10.771-1.05,17.063-0.69c1.111-5.146,1.398-11.096,3.557-15.225
	c5.111,0.35,10.656-2.529,14.22-1.384c-0.335,7.655-0.649,14.632-0.711,19.375c5.999,0.983,11.681-1.996,16.354,0
	c-2.918,11.232-6.642,21.681-8.532,33.91c10.397-0.104,15.993,0.455,25.598,1.383c3.459-12.547,6.933-25.084,11.375-36.676
	c-0.19,19.377,0.213,33.291,0.711,49.824c7.584,0,15.17,0,22.754,0c4.929-9.38,9.3-22.639,12.798-31.141
	C327.447,167.608,329.221,165.642,329.913,162.624z M332.756,93.423c3.199-3.806,6.352-7.658,8.531-12.457
	c-5.217,1.372-14.525,1.705-17.775,2.768c-2.516,0.55-1.363,4.669-2.133,6.92c0,0.692,0,1.384,0,2.076
	c-1.629,2.377-0.66,3.007-1.422,6.229c0.305,5.381-2.424,11.468-0.711,15.916c1.34-3.079,3.709-5.156,4.977-8.304
	c1.135-1.895,2.654-3.414,3.555-5.536c1-0.181,0.813-1.518,1.424-2.076C330.061,96.798,332.271,95.95,332.756,93.423z
	 M73.946,114.875c2.44-2.93,8.943-1.906,8.532-7.612c-3.809,0.906-7.505,1.922-12.087,2.076c-0.094,1.706-0.107,3.335,0.711,4.152
	c0.121,1.035-0.254,2.554,0.711,2.769c0.389,1.005-0.831,3.576,0.711,3.459c0.819-0.817,0.805-2.445,0.711-4.151
	C73.669,115.528,74.077,115.464,73.946,114.875z M46.928,114.875c-1.909-0.775,3.571,0.51,3.555-2.076
	c-2.712,0.129-6.099-0.399-6.399,2.076C45.408,114.213,46.46,116.948,46.928,114.875z M396.747,114.875
	c-14.386,30.75-24.688,65.472-35.552,99.649c7.875,3.641,15.188,7.824,22.754,11.766c13.043-35.055,30.127-66.178,44.793-99.65
	C416.973,123.793,407.956,118.268,396.747,114.875z M376.128,131.484c-1.244,3.415-3.504,9.491-2.845,12.456
	C374.169,139.774,379.385,133.43,376.128,131.484z M231.081,158.472c-0.423-1.434,0.879-4.545-0.711-4.844
	c-0.316,1.999-5.372-0.615-5.688,1.385c-1.072,3.108-1.234,7.104-4.978,7.611c-1.422,0-2.844,0-4.266,0
	c-0.176,8.079,0.257,18.253,0,24.221c0.126,4.045-1.849,6.045-5.688,6.229c-1.185,0-2.369,0-3.555,0
	c0.323,3.774-0.302,6.626-2.844,7.612c-2.173-0.5-2.592,0.707-4.267,0.69c-2.37,0-4.739,0-7.11,0
	c-0.836,0.108-2.018-0.119-2.133,0.692c-2.37,0-4.74,0-7.109,0c-0.838,0.107-2.019-0.119-2.134,0.691
	c-3.699,0.371-5.509-1.097-7.11-2.769c0.002-0.694-0.576-0.823-0.711-1.384c0.828-0.116,0.772-1.096,0.711-2.076
	c-1.675-0.016-2.094,1.191-4.266,0.691c-0.552,0.154-1.402,0.02-1.422,0.691c-0.713,0.002-0.847-0.561-1.422-0.691
	c-1.37,2.215,0.42,3.491-0.711,6.229c-2.26,2.876-8.602,1.777-12.799,2.768c-0.236,0-0.475,0-0.711,0
	c-3.576-0.48-4.955,1.176-8.532,0.692c1.532,2.89-0.906,3.876,0.711,6.229c0,0.461,0,0.922,0,1.383
	c-2.149,1.047,0.589,3.037,0,4.845c-1.016,0.153,0.66,3.444,0,5.536c0,0.462,0,0.923,0,1.385c0,1.613,0,3.229,0,4.844
	c0,0.23,0,0.461,0,0.692c0,0.229,0,0.461,0,0.69c0,1.153,0,2.308,0,3.461c-0.01,2.951-1.04,4.143,0.711,6.229
	c0.195-1.426,2.649-0.65,2.845-2.076c6-3.388,12.013-6.762,17.775-10.38c0.797-0.146,1.106-0.769,1.422-1.386
	c3.924-1.254,6.777-3.551,9.953-5.535c0.435-0.039,0.843-0.104,0.712-0.691c2.788-0.517,3.862-2.699,6.399-3.459
	c1.311,1.629,2.186,3.68,3.555,3.459c-1.348,2.034,2.777,4.654,3.555,6.92c0.662,1.895,2.182,2.951,2.844,4.844
	c0.238,0,0.475,0,0.711,0c0.883,2.142,1.754,4.291,3.556,5.537c0.613,2.401,2.217,3.84,3.556,5.535
	c-0.039,1.19,0.547,1.774,1.422,2.076c-0.518,1.889,1.412,1.395,1.422,2.77c1.443,2.056,2.199,4.779,4.266,6.228
	c0.714,0.92,0.673,2.575,2.133,2.769c0.3-1.555,3.773-0.019,4.267-1.383c0.674,2.5-2.801,0.965-4.267,1.383
	c-0.038,1.19,0.548,1.774,1.423,2.076c-0.344,2.18,2.182,1.566,1.422,4.151c2.006,0.108,1.782-1.956,2.844-2.769
	c0.434-0.039,0.842-0.104,0.711-0.691c4.025-3.463,7.095-7.857,10.666-11.764c2.193-2.479,4.498-4.85,6.398-7.612
	c1.219-0.89,2.796-1.431,2.844-3.46c1.254-0.625,2.202-1.549,2.846-2.77c1.693-2.502,4.541-3.883,5.688-6.92
	c3.145-0.861,3.002-4.922,6.399-5.535c1.161,1.867,2.778,3.293,4.978,4.151c1.182,1.388,1.909,3.218,4.266,3.46
	c1.183,1.389,1.91,3.217,4.267,3.461c1.536,2.426,3.92,4.027,6.399,5.535c0.519,1.571,2.14,2.069,3.556,2.77
	c0.883,1.447,2.067,2.601,3.556,3.459c3.311,1.621,4.92,4.899,8.531,6.229c1.01-10.079,2.68-26.662,4.979-35.293
	c2.656,1.336,5.81,2.188,9.242,2.77c3.387,1.547,6.93,2.943,11.377,3.459c2.484,1.733,6.459,2.019,9.242,3.461
	c3.51,0.043,5.023,2.031,8.533,2.076c1.752,1.522,5.057,1.537,7.109,2.769c0.158-5.458,7.738-1.261,8.531-4.845
	c-0.236,0-0.474,0-0.712,0c0.423-2.209-1.334-2.141,0-3.461c-1.422,0-2.844,0-4.266,0c-1.397-0.943-4.062-0.66-5.688-1.383
	c0,0.229,0,0.461,0,0.69c-0.236,0-0.475,0-0.711,0c-4.484-2.095-12.17-1.072-16.354-3.46c-1.25-0.629-1.301-2.426-2.133-3.46
	c0.828-0.116,0.771-1.095,0.711-2.076c-0.016-1.63,1.225-2.037,0.711-4.151c0.93-1.633,0.301-4.783,1.422-6.229
	c-2.555,0.281-2.551,3.055-5.688,2.768c-2.666-0.518-3.466,0.78-3.558,2.77c-1.983,7.652-7.006,4.486-15.642,4.844
	c-0.237,0-0.475,0-0.711,0c-0.948,0-1.896,0-2.846,0c-4.713-0.486-11.686,1.227-14.219-1.384c0.291-1.667-1.3-1.505-0.712-3.46
	c0-1.614,0-3.229,0-4.844c0-0.692,0-1.385,0-2.076c0-0.463,0-0.924,0-1.385c0-2.308,0-4.613,0-6.92c0-0.461,0-0.924,0-1.385
	c-2.315,0.055-1.519,3.137-2.134,4.844c-1.288,3.465-5.369,3.477-8.532,3.461c-0.947,0-1.896,0-2.845,0
	c-1.448-1.588-5.903-0.25-8.531-0.691c-1.422,0-2.844,0-4.266,0c-0.986-1.578-4.949-0.258-7.11-0.692
	c-2.919-0.85-5.386-2.141-4.978-6.228c2.578-6.025,3.741-13.428,5.688-20.068c0.896-2.357,1.234-5.258,2.133-7.611
	C237.623,165.499,230.854,167.374,231.081,158.472z M132.25,188.921c0.413-1.628,2.336-5.318,0-5.535
	c-1.35,2.135-0.625,4.227-1.422,5.535c-0.15,0.775-0.789,1.077-1.422,1.385c-1.45,1.207-1.395-0.517-2.845,0.691
	c-1.27,0.84-4.136,0.126-4.977,1.384c-2.172-0.5-2.591,0.708-4.266,0.692c-1.033,0.378-3.675-0.809-3.555,0.691
	c-2.173-0.5-2.591,0.707-4.266,0.691c-5.654,2.479-15.112,1.704-13.509-8.305c-2.761,0.312-1.261,4.771-2.844,6.229
	c0.016,1.631-1.225,2.037-0.711,4.152c-2.189,4.789-3.495,10.438-4.977,15.916c-1.053,0.129-0.652,1.673-0.711,2.77
	c10.803-1.02,19.966-3.636,31.284-4.152c0-0.23,0-0.463,0-0.692c2.59,0.214,4.627-0.108,6.399-0.69
	c4.812,0.067,7.677-1.756,12.798-1.386c-0.227-2.315-4.06-1.123-4.266-3.46c-1.225-2.908,0.885-6.094-0.711-8.304
	c0.902-2.671-0.117-3.198,0.711-6.229C132.8,189.769,132.941,188.94,132.25,188.921z M351.954,225.599
	c-1.435,7.373-5.828,17.854-7.822,26.987c11.478,4.286,21.924,9.572,33.418,13.841c2.271-8.861,5.375-16.912,7.822-25.604
	C373.82,236.606,363.451,227.558,351.954,225.599z"/>
<path fill="#F8CF19" d="M402.436,194.457c2.295,0.619,0.998-2.257,2.133-2.769c4.842,3.235,4.953,7.397,9.953,9.688
	c-2.016,1.963,8.131,7.832,8.533,12.456c-5.979-0.972-18.311,1.367-28.441,0.692c0.402-1.439,2.031-2.236,0.711-3.461
	C398.572,205.106,399.889,202.507,402.436,194.457z"/>
<path fill="#F8CF19" d="M389.637,116.952c-0.326,0.922-3.074-0.829-3.555,1.385c-2.996-2.391-5.447,5.573-7.111,7.611
	c-1.082-3.147,1.805-8.38,2.133-12.456C384.324,114.278,387.227,115.375,389.637,116.952z"/>
<path fill="#FDFEFD" d="M345.553,75.431c-5.992,1.318-12.744,1.897-19.197,2.768c6.594-2.479,12.086-2.188,19.197-3.46
	C345.553,74.969,345.553,75.2,345.553,75.431z"/>
<path fill="#FDFEFD" d="M325.645,78.199c-4.646,2.026,0.729-5.004-1.422-6.92C327.971,71.688,323.686,77.235,325.645,78.199z"/>
<path fill="#FDFEFD" d="M300.76,54.67c1.336,2.095,1.668,4.928,0.711,6.228C300.279,59.75,300.904,56.836,300.76,54.67z"/>
<path fill="#F8CF19" d="M36.262,121.104c-2.787,0.979-3.352,4.119-5.688,5.536c-6.761-3.234-12.781-8.054-16.353-12.456
	C9.764,112.166,2.547,107.811,0,101.727c23.977-2.795,50.876-8.565,76.079-12.457c-1.132-18.76-5.265-38.418-8.532-56.053
	c21.025,3.338,47.094,12.967,71.101,19.376c4.108-8.228,5.543-19.057,7.822-29.064c13.44,5.991,25.957,12.604,41.949,20.068
	C204.145,30.068,217.008,13.754,232.502,0c13.188,15.768,24.876,32.996,37.684,49.133c15.318-3.776,28.867-9.273,44.084-13.148
	c0.779,10.082,2.564,19.187,3.555,29.065c24.476-1.785,46.826-5.635,71.103-7.612c0.914,3.168-1.905,8.147-2.844,11.764
	c-8.306,1.076-22.056-5.138-30.574-2.076c-4.647,1.671-4.664,7.03-9.244,8.304c-0.235,0-0.473,0-0.711,0c0-0.23,0-0.461,0-0.692
	c-7.11,1.271-12.604,0.981-19.196,3.46c-0.236,0-0.474,0-0.711,0c-1.959-0.964,2.325-6.511-1.422-6.92
	c0.135-0.561,0.713-0.69,0.711-1.384c-2.082-0.972-4.25-1.861-7.82-1.384c0-0.231,0-0.461,0-0.692
	c-3.994,0.072-6.072-1.583-8.533,0.692c-1.93-0.429-5.643,0.878-6.398-0.692c1.01,0.059,2.014,0.114,2.133-0.692
	c-2.912-1.88-2.451-3.294-2.844-6.228c0.957-1.3,0.625-4.133-0.711-6.228c-2.334-1.167-3.135,0.368-4.977,1.384
	c1.795-2.057-7.525,0.861-8.533,2.768c-4.391,1.494-9.949,1.851-13.51,4.152c-3.182,0.133-5.613,0.996-7.109,2.768
	c-0.236,0-0.475,0-0.712,0c-3.772,0.442-2.899-3.636-5.688-4.152c-3.326-5.976-7.332-10.593-11.375-15.916
	c-3.283-5.57-6.707-11.003-11.377-15.225c-0.97-2.497-3.076-4.807-5.688-8.304c0-0.23,0-0.461,0-0.692
	c-4.64,1.03-8.369,6.605-9.243,8.996c-0.398,0.997-1.109,1.689-2.133,2.076c-11.013,8.197-18.041,20.271-29.152,28.373
	c-4.873-1.983-7.912-5.524-12.798-5.536c-1.261-2.002-3.208-3.337-6.399-3.46c-3.762-3.49-9.159-5.387-14.221-7.612
	c-1.402,0.546-2.556,2.42-1.422,3.46c-1.791,3.194-1.969,7.292-2.133,8.304c-3.977,4.896-12.318,5.542-17.064,9.688
	c-7.313,0.32-7.575-2.622-14.931-2.768c0.218-2.163-2.054,1.759-2.133-0.692c-1.21-1.145-7.463-3.336-12.087-3.46
	c-3.122-1.679-4.571-1.879-9.243-2.768c-1.437-1.396-5.78-3.565-7.821-2.076c-1.107-0.999-1.403-2.787-4.266-2.076
	c-0.094,1.706-0.108,3.334,0.711,4.152c-1.661-3.025-1.446,5.83,0.711,5.536c0.152,5.699,0.813,14.898,3.555,21.453
	c-1.604,1.607-0.652,6.598,0.711,7.612c0.135,2.916,0.337,5.913,1.422,7.612c-0.691,0.02-0.552,0.847-0.711,1.384
	c-4.285,1.827-11.212,1.083-14.931,3.46c0.131,0.589-0.277,0.653-0.711,0.692c-10.907-0.689-23.424,2.364-34.84,4.844
	c0.131,0.589-0.277,0.653-0.711,0.692c0.271-1.687-6.186-1.366-6.399,0.692c-1.651-1.671-2.45,0.548-3.555,1.384
	c-0.237,0-0.474,0-0.711,0c2.883,2.269,5.569,4.729,8.532,6.921c-0.224,1.627-3.37,0.41-2.844,2.768
	C36.736,121.104,36.5,121.104,36.262,121.104z"/>
<path fill="#FDFEFD" d="M287.251,58.822c1.008-1.907,10.328-4.825,8.532-2.768C292.777,56.819,289.951,57.76,287.251,58.822z"/>
<path fill="#FDFEFD" d="M266.631,65.743c1.496-1.772,3.93-2.635,7.109-2.768C272.154,64.659,269.099,64.916,266.631,65.743z"/>
<path fill="#FDFEFD" d="M265.92,65.743c-0.119,0.806-1.123,0.751-2.133,0.692c-1.283-1.519-2.773-2.836-3.555-4.844
	C263.02,62.106,262.146,66.185,265.92,65.743z"/>
<path fill="#FDFEFD" d="M237.479,30.45c4.67,4.221,8.094,9.654,11.377,15.225C244.436,41.209,240.928,35.858,237.479,30.45z"/>
<path fill="#FDFEFD" d="M222.548,30.45c0.874-2.391,4.604-7.966,9.243-8.996c0,0.23,0,0.461,0,0.692
	C227.717,23.947,225.439,27.497,222.548,30.45z"/>
<path fill="#FDFEFD" d="M220.416,32.526c-9.442,9.956-18.627,20.164-28.441,29.757c-4.084-2.714-9.044-4.577-13.509-6.92
	c4.886,0.012,7.925,3.553,12.798,5.536C202.375,52.797,209.403,40.723,220.416,32.526z"/>
<path fill="#FDFEFD" d="M156.423,47.75c-1.134-1.04,0.02-2.914,1.422-3.46c5.062,2.225,10.459,4.123,14.221,7.612
	c-5.061-2.226-9.475-5.08-14.932-6.92C157.013,46.018,157.388,47.536,156.423,47.75z"/>
<path fill="#FDFEFD" d="M154.291,56.054c0,0.923,0,1.846,0,2.768c-10.555,4.333-20.152,11.607-31.996,4.152
	c7.356,0.146,7.619,3.088,14.931,2.768C141.972,61.596,150.314,60.95,154.291,56.054z"/>
<path fill="#FDFEFD" d="M108.075,58.822c4.625,0.125,10.877,2.316,12.087,3.46C115.598,61.649,111.876,60.198,108.075,58.822z"/>
<path fill="#FDFEFD" d="M91.01,53.978c2.041-1.49,6.385,0.68,7.821,2.076C96.037,55.545,93.679,54.611,91.01,53.978z"/>
<path fill="#FDFEFD" d="M88.167,61.59c-2.157,0.294-2.372-8.561-0.711-5.536C86.909,58.663,88.323,59.362,88.167,61.59z"/>
<path fill="#FDFEFD" d="M91.722,83.043c-0.549,3.302,1.112,4.454,0.711,7.612C91.07,89.641,90.117,84.65,91.722,83.043z"/>
<path fill="#FDFEFD" d="M93.855,98.267c1.185,1.375-0.064,0.88,0,2.769c-5.657,0.26-9.843,1.954-15.642,2.076
	c3.719-2.377,10.646-1.633,14.931-3.46C93.303,99.114,93.163,98.287,93.855,98.267z"/>
<path fill="#FDFEFD" d="M77.502,103.803c-11.984,1.254-22.526,3.912-34.84,4.844C54.077,106.167,66.594,103.114,77.502,103.803z"/>
<path fill="#FDFEFD" d="M31.997,111.416c3.442,2.187,6.983,4.275,9.243,7.612c-2.122,0.011-2.418,1.799-4.266,2.076
	c-0.526-2.357,2.62-1.141,2.844-2.768c-2.963-2.191-5.649-4.652-8.532-6.921C31.523,111.416,31.759,111.416,31.997,111.416z"/>
<path fill="#F8CF19" d="M432.297,132.176c1.211,0.254,1.342-0.54,1.422-1.385c4.629,1.512,11.283,3.105,14.221,4.152
	c-1.66,3.313-6.219,4.326-9.242,6.229c-4.957,3.115-11.946,9.951-14.932,8.305C426.755,143.293,429.771,139.787,432.297,132.176z"/>
<path fill="#FDFEFD" d="M214.727,274.04c10.927-13.355,22.321-26.255,34.128-38.753c-10.392,13.646-22.332,25.782-33.417,38.753
	C215.201,274.04,214.964,274.04,214.727,274.04z"/>
<path fill="#F8CF19" d="M292.227,262.274c2.9-8.646,3.703-26.531,5.689-36.676c12.521,3.049,27.725,8.527,36.973,11.071
	c0.846,3.146-2.119,8.538-2.844,12.456c-7.414-1.779-14.576-3.807-21.332-6.229c-2.373,15.912-4.695,31.877-6.398,48.44
	c-23.785-16.642-30.982-24.836-49.771-38.753c-14.343,15.337-28.481,30.869-41.949,47.059c-12.151-17.238-23.02-35.727-34.84-53.285
	c-18.599,9.81-36.392,20.402-54.037,31.141c-1.793-14.633-1.392-31.4-1.422-47.749c-22.093,2.024-42.616,5.58-64.702,7.612
	c1.89-10.618,5.87-19.2,7.821-29.758c4.717-2.791,12.282-2.809,16.353-6.229c1.512-1.527,0.374-5.634,3.555-5.536
	c-2.077,8.591-5.079,16.279-7.11,24.913c0.566,2.409,7.117,1.721,7.11-0.691c0.237,0,0.474,0,0.711,0
	c3.174,1.062,7.35,1.222,8.532-1.385c0.237,0,0.474,0,0.711,0c6.743,1.247,19.715-1.102,23.464-2.769
	c1.457-0.642,4.489,0.303,6.399-1.384c1.769,1.675,6.429,0.293,7.821-0.692c0.713,0.003,0.846-0.562,1.422-0.69
	c-0.119,1.5,2.521,0.313,3.555,0.69c0.268,11.164-0.807,26.819,0.711,38.753c0.605,0.128,0.672-0.27,0.711-0.691
	c0.041-0.422,0.107-0.818,0.711-0.691c1.251,0.72,5.039-1.99,6.4-3.46c0.15-0.776,0.789-1.077,1.422-1.384
	c4.643-0.793,11.207-5.695,15.642-8.996c0.04-0.424,0.106-0.819,0.712-0.692c5.241-0.442,12.894-8.202,17.775-8.995
	c2.295-1.416,0.998,3.93,2.133,1.383c0.999,0.182,0.811,1.519,1.422,2.076c1.303,2.422,1.709,5.719,4.977,6.229
	c0.633,3.759,1.882,5.151,2.844,5.536c0.188,3.275,2.747,4.246,4.267,6.228c0.458,1.97,3.216,6.152,5.688,8.306
	c1.186,4.611,3.928,7.711,7.109,10.379c-0.946,1.795,1.681,2.488,2.845,6.229c0.474,0,0.948,0,1.422,0c0.236,0,0.474,0,0.711,0
	c11.085-12.972,23.026-25.106,33.417-38.753c1.727-0.936,0.442-1.384,1.422-2.076c0.826,0.112,1.266-0.152,1.422-0.691
	c9.854,4.271,18.121,16.026,29.152,21.453c0.434,0.039,0.842,0.103,0.711,0.69c1.43,3.481,5.537,6.415,9.953,7.612
	C291.755,262.274,291.99,262.274,292.227,262.274z"/>
<path fill="#FDFEFD" d="M203.351,257.431c2.378,3.451,4.379,7.271,7.109,10.381C207.279,265.142,204.537,262.043,203.351,257.431z"
	/>
<path fill="#FDFEFD" d="M193.396,242.899c1.735,1.771,3.239,3.768,4.267,6.228C196.143,247.146,193.585,246.175,193.396,242.899z"/>
<path fill="#FDFEFD" d="M185.576,231.134c2.18,1.569,3.096,4.368,4.977,6.229C187.285,236.853,186.879,233.556,185.576,231.134z"/>
<path fill="#FDFEFD" d="M164.246,236.67c6.281-3.573,12.44-7.269,18.486-11.071c0.305,1.316,1.531,1.737,1.422,3.459
	c-1.135,2.547,0.162-2.8-2.133-1.384C177.139,228.468,169.487,236.228,164.246,236.67z"/>
<path fill="#FDFEFD" d="M147.892,246.358c5.438-2.781,10.04-6.375,15.642-8.996C159.099,240.664,152.535,245.565,147.892,246.358z"
	/>
<path fill="#FDFEFD" d="M140.07,251.203c2.238-1.052,3.47-3.082,6.4-3.46C145.109,249.212,141.321,251.922,140.07,251.203z"/>
<path fill="#FDFEFD" d="M134.382,213.142c1.885,0.813,4.187-1.326,4.266,0c0.474,12.688-0.946,27.219,0.711,38.754
	c-0.039,0.422-0.105,0.818-0.711,0.69c-1.518-11.933-0.443-27.589-0.711-38.753C136.904,213.456,134.263,214.642,134.382,213.142z"
	/>
<path fill="#255A94" d="M218.282,42.906c3.372-3.87,6.449-8.025,10.666-11.072c0.156,0.539,0.596,0.804,1.422,0.692
	c-3.715,1.271,1.473,5.287,3.556,2.768c0.961,0.68,1.421,1.846,2.133,2.768c-1.25,0.848-5.995-1.185-6.399,2.076
	c-0.411,2.939,1.918,3.209,3.557,4.152c4.104-0.381,2.309-4.737,4.266-4.152c2.166,0.43,1.391,3.722,3.557,4.152
	c0,0.231,0,0.461,0,0.692c-2.454-1.847,0.177,1.771-1.422,3.46c2.377,2.293,2.287,0.085,3.555,3.46
	c-0.048,2.029-1.625,2.57-2.844,3.46c-2.109-0.253-3.508-1.2-4.268-2.768c-0.385-2.451,2.52-1.701,2.133-4.152
	c-0.244-1.838-1.865-2.336-3.555-2.768c-2.355,0.243-3.084,2.073-4.266,3.46c0.975,1.588,2.928,2.225,4.266,3.46
	c-0.417,1.44-1.494,2.237-2.133,3.46c-2.759-0.083-3.594-2.039-4.979-3.46c0.291-1.167,3.352-3.11,1.422-4.152
	c-1.055-0.817-3.176-0.599-2.844-2.768c-1.94,0.878-2.834,2.777-4.266,4.152c-1.486,0.293-1.883-0.474-2.845-0.692
	c0.218-1.596-2.054-0.769-2.133-2.076c1.632-0.949,2.286-2.85,3.556-4.152c1.461,2.622,8.271,3.354,7.109-2.076
	c-0.699-0.935-1.896-1.383-2.845-2.076c-2.149,0.445-4.104,1.082-4.266,3.46c-0.772,0.171-0.482,1.376-1.423,1.384
	C219.124,43.009,218.715,42.945,218.282,42.906z"/>
<path fill="#255A94" d="M212.594,50.518c-1.203-1.516,1.314-3.844,2.844-4.844c0,0.23,0,0.461,0,0.692
	c-0.251,0.909-1.252,1.088-1.422,2.076C214.047,49.626,213.487,50.235,212.594,50.518z"/>
<path fill="#FDFEFD" d="M207.617,53.978c0.982-1.16,3.283-4.594,4.267-3.46c0,0.461,0,0.923,0,1.384
	c-1.974,0.156-2.012,2.194-3.556,2.768c0.002,0.384-0.576,0.786-0.711,0C207.617,54.439,207.617,54.209,207.617,53.978z"/>
<path fill="#255A94" d="M203.351,58.822c1.313-1.72,2.149-3.905,4.266-4.844c0,0.23,0,0.461,0,0.692
	C207.331,55.913,206.182,60.509,203.351,58.822z"/>
<path fill="#1CAAD7" d="M189.841,67.126c1.77-0.106,2.201,1.087,3.555,1.384c2.195-1.321,4.092-4.257,5.688-4.152
	c0.447-1.906,4.868-3.521,3.556-4.844c-0.131-0.589,0.277-0.653,0.711-0.692c2.831,1.688,3.979-2.909,4.266-4.152
	c0.135,0.786,0.713,0.384,0.711,0c2.795,7.727,13.06-1.013,3.556-2.768c0-0.461,0-0.923,0-1.384c0.236,0,0.474,0,0.711,0
	c0.893-0.283,1.453-0.892,1.422-2.076c1.413-0.009,0.904-1.888,2.844-1.384c0.079,1.308,2.351,0.48,2.133,2.076
	c0.311,0.852,0.91,1.421,2.134,1.384c-0.481,1.608-2.363,1.853-2.845,3.46c0.504,4.185,5.67,3.755,7.11,0.692
	c0.336-2.173-1.914-1.828-2.133-3.46c-1.505-1.454,0.836-2.698,1.422-4.152c2.201-0.693,2.762,3.683,4.266,1.384
	c1.93,1.042-1.131,2.985-1.422,4.152c1.385,1.421,2.219,3.377,4.979,3.46c0.639-1.223,1.716-2.02,2.133-3.46
	c-1.338-1.235-3.291-1.872-4.266-3.46c1.182-1.387,1.908-3.217,4.266-3.46c1.688,0.432,3.311,0.93,3.555,2.768
	c0.387,2.451-2.518,1.701-2.133,4.152c0.76,1.568,2.157,2.515,4.268,2.768c1.219-0.89,2.796-1.431,2.844-3.46
	c-1.268-3.375-1.178-1.167-3.555-3.46c1.599-1.689-1.032-5.307,1.422-3.46c3.871,6.337,5.76,7.097,9.953,13.84
	c-1.449-0.204-1.395-1.872-2.844-2.076c-2.623,0.498-1.3,4.771,0.711,4.844c1.81-1.194,2.758,1.055,2.844-1.384
	c0.576,0.131,0.71,0.694,1.423,0.692c0.417,1.44,1.493,2.237,2.133,3.46c-0.819,1.978,2.759,5.601,4.978,6.92
	c0.691,0.019,0.553,0.847,0.711,1.384c-0.575-0.131-0.709-0.694-1.422-0.692c-1.736,0.856-0.857,4.922,2.133,3.46
	c0,0.231,0,0.461,0,0.692c-0.84,0.797-2.514,0.783-4.266,0.692c-1.554-0.795-2.285-2.389-2.845-4.152
	c-5.333-0.784-5.459,2.704-2.845,4.844c-4.631,0.797-9.17,1.687-14.221,2.076c-0.02-0.673-0.869-0.537-1.422-0.692
	c5.021-3.78-6.728-6.232-2.844,0c0,0.23,0,0.461,0,0.692c-1.585,1.024-4.928,3.929-3.557,5.536
	c-0.086,1.761-1.033,2.684-2.844,2.768c0-0.231,0-0.461,0-0.692c5.762-1.503-3.332-4.764-0.711-0.692c0,0.231,0,0.461,0,0.692
	c-3.834,0.364-6.741,4.732-6.398,6.92c0.116,0.805-0.156,1.231-0.711,1.384c-0.874,0.302-1.46,0.885-1.422,2.076
	c-1.441-4.48-5.189-7.615-11.376-5.536c0.02,0.673,0.87,0.537,1.422,0.692c-0.115,0.811-1.296,0.584-2.133,0.692
	c-3.441-1.713-7.756,1.663-12.088,1.384c0.115,0.811,1.297,0.584,2.134,0.692c-0.22,0.939-1.78,0.574-2.845,0.692
	c-1.225-1.369-8.559,0.841-7.109,2.076c-0.176,0.871-1.414,0.698-1.422,0c-1.606,0.388,0.861,1.08-0.711,2.076
	c-3.581-1.411-0.705,0.379-1.422,3.46c-1.21-0.254-1.342,0.54-1.423,1.384c-2.232,0.826-4.931,1.199-6.399,2.768
	c-1.56,0.789-2.904,1.786-5.688,1.384c-0.315-0.616-0.625-1.237-1.422-1.384c-1.551-0.125-2.263,0.566-2.133,2.076
	c-2.117-0.036-3.608,2.035-4.978,0.692c-1.185-5.158-7.067,0.566-2.134,2.076c-2.466-0.555-2.732,1.031-4.977,0.692
	c-0.409-1.217,0.859-4.066-0.711-4.152c0.389-1.005-0.831-3.577,0.711-3.46c0,0.692,0,1.384,0,2.076
	c1.598-0.291,0.02-3.672,1.422-4.152c1.523,1.494,3.973,0.354,4.978-0.692c0.281-2.592-3.234-3.569-4.978-2.076
	c0.796-1.438,0.767-1.466-0.711-0.692c-0.514-2.114,0.727-2.521,0.711-4.152c1.354,1.297,1.787,0.076,3.555,0
	c0.193-2.494,0.178-4.787-2.844-4.152c0.602-5.876,0.934-7.618,2.133-13.84c0,0.692,0,1.384,0,2.076
	c1.932,0.495-0.508-3.263,1.422-2.768c0.417,3.471,5.983,3.471,6.4,0c0.518-1.888-1.414-1.393-1.423-2.768
	c-2.595-0.449-3.786,0.466-4.978,1.384c-0.059-1.096,0.343-2.64-0.711-2.768c0-0.692,0-1.384,0-2.076
	c2.862,2.138,5.146,0.776,6.4-2.076c-1.203-2-3.83-4.57-5.689-2.076c0-0.922,0-1.845,0-2.768c2.373,1.805,3.41-2.316,4.978-3.46
	c1.608,0.741,3.127,1.57,4.267,2.768c2.356-0.243,3.084-2.073,4.266-3.46c0.188-2.259-2.759-1.467-2.844-3.46
	c1.769-0.107,2.201,1.087,3.555,1.384c0.02,0.673,0.871,0.537,1.422,0.692c-2.168,2.187,2.975,4.643,4.978,2.768
	c2.512,0.323,3.892,1.748,5.688,2.768C181.529,67.087,188.881,70.878,189.841,67.126z M251.699,69.895
	c0.716-1.38,3.145-1.092,2.845-3.46c-0.485-2.065-2.83-2.32-5.688-2.076C247.15,67.25,249.188,69.187,251.699,69.895z
	 M244.589,73.355c-2.532-0.158-3.718,0.995-3.556,3.46c0.949,0.987,4.029,0.987,4.978,0
	C246.716,74.218,242.52,75.306,244.589,73.355z M219.704,62.975c1.15,1.188,2.975,1.719,5.688,1.384
	c-0.017-1.63,1.225-2.037,0.711-4.152C223.322,58.831,219.426,59.405,219.704,62.975z M228.947,62.283
	c0.798,0.146,1.106,0.768,1.423,1.384c3.899,0.496,5.784-2.035,4.266-4.844C231.859,57.452,228.099,58.158,228.947,62.283z
	 M237.479,58.822c-0.113,4.705,6.625,5.259,7.11,0.692C243.66,57.249,239.025,56.634,237.479,58.822z M211.172,62.975
	c-0.518,1.888,1.413,1.393,1.423,2.768c3.094,0.705,3.269-1.432,4.977-2.076C217.687,59.98,211.525,58.895,211.172,62.975z
	 M204.773,67.126c2.056-0.305,3.24-1.458,3.555-3.46C205.578,58.088,198.597,65.209,204.773,67.126z M174.91,67.819
	c1.775,2.126,3.613,3.326,6.399,1.384C182.985,63.083,174.936,63.286,174.91,67.819z M239.613,69.203
	C249.268,74.716,241.796,57.952,239.613,69.203L239.613,69.203z M166.379,69.895c1.881,1.588,4.517,1.588,6.398,0
	C173.795,64.121,164.93,63.419,166.379,69.895z M230.37,69.203c0.423,2.861,6.022,2.763,5.688-0.692
	C235.634,65.65,230.033,65.748,230.37,69.203z M221.838,68.511C224.311,79.279,230.898,63.563,221.838,68.511L221.838,68.511z
	 M214.016,73.355c2.654,0.276,4.172-0.553,4.266-2.768C216.677,65.939,210.093,70.446,214.016,73.355z M204.062,70.587
	c0,0.922,0,1.845,0,2.768C210.199,77.4,210.199,66.541,204.062,70.587z M200.507,74.047
	C196.828,64.52,191.806,79.526,200.507,74.047L200.507,74.047z M177.043,76.815c1.842,1.446,6.061,0.774,5.689-2.076
	C181.632,71.718,175.874,72.117,177.043,76.815z M185.576,73.355c0.313,2.001,1.498,3.154,3.555,3.46
	c1.53-0.587,2.516-1.705,2.133-4.152C189.691,71.214,186.529,72.121,185.576,73.355z M173.488,78.199
	c0.109-1.721-1.117-2.142-1.422-3.46c-2.459,0.563-3.002-1.292-4.266,0C166.953,78.863,170.713,79.57,173.488,78.199z
	 M223.97,79.583c2.459,0.548,3.002-0.77,4.267-1.384c-0.086-1.761-1.035-2.684-2.844-2.768
	C223.341,76.169,223.035,77.53,223.97,79.583z M214.727,78.891c-0.159-0.537-0.02-1.365-0.711-1.384
	c-2.147,2.294,1.506,3.137,3.555,3.46c0.303-1.32,2.032-1.252,1.422-3.46c-0.961-0.218-1.357-0.985-2.844-0.692
	C216.187,78.005,215.602,78.589,214.727,78.891z M205.484,78.891c0,0.692,0,1.384,0,2.076c0.84,0.797,2.514,0.784,4.266,0.692
	c-0.03-0.953,0.335-1.52,0.711-2.076C209.457,78.537,207.007,77.397,205.484,78.891z M196.241,81.659
	c1.265,0.615,1.808,1.932,4.267,1.384c0.158-0.537,0.02-1.365,0.711-1.384c-0.088-1.761-1.035-2.684-2.845-2.768
	C198.998,81.112,196.53,80.326,196.241,81.659z M191.263,84.427c0.598-0.803,0.938-1.855,0.711-3.46
	c-0.908-0.946-3.356-0.946-4.266,0C187.547,83.432,188.731,84.585,191.263,84.427z M180.598,80.967
	c-1.246,0.632-2.47,1.287-2.133,3.46c0.948,0.987,4.028,0.987,4.978,0C183.628,82.171,182.598,81.097,180.598,80.967z
	 M169.222,85.811c2.258,1.041,5.786,1.041,5.688-2.076C173.211,81.021,168.775,81.386,169.222,85.811z M164.957,83.043
	c-2.596-0.449-3.787,0.466-4.978,1.384c-0.11,1.721,1.116,2.142,1.422,3.46C165.191,88.907,166.875,85.415,164.957,83.043z
	 M216.86,85.119c-1.475,1.424,0.003,3.51,2.133,3.46C220.376,87.244,219.737,84.343,216.86,85.119z M198.374,87.887
	c-0.88,4.177,4.513,2.772,4.978,0.692C201.394,87.749,200.381,87.076,198.374,87.887z M189.841,92.039
	c2.318,0.18,3.422-0.821,3.555-2.768c-0.908-0.946-3.356-0.946-4.266,0C189.077,90.477,189.29,91.423,189.841,92.039z
	 M179.887,92.039c1.936,1.64,4.467,1.539,4.267-2.076C182.004,88.975,180.05,89.388,179.887,92.039z M170.644,92.731
	c1.01,1.577,5.871,2.521,4.977-1.384C173.375,91.237,171.33,91.323,170.644,92.731z M161.401,92.731c0,0.461,0,0.923,0,1.384
	c1.005,1.046,3.454,2.186,4.978,0.692c0-0.922,0-1.845,0-2.768C164.855,90.545,162.406,91.685,161.401,92.731z M175.621,98.959
	c-0.193,1.426-3.148,0.165-2.844,2.076C174.096,103.105,178.149,100.425,175.621,98.959z M163.534,100.343c0,0.692,0,1.384,0,2.076
	c0.841,0.797,2.514,0.783,4.267,0.692C168.932,99.691,165.348,98.781,163.534,100.343z"/>
<path fill="#255A94" d="M189.841,67.126c-0.96,3.751-8.313-0.04-4.977-2.768C186.927,64.888,188.955,65.453,189.841,67.126z"/>
<path fill="#255A94" d="M172.777,58.13c2.412,0.882,4.514,2.066,6.399,3.46c-2.003,1.875-7.146-0.583-4.978-2.768
	C173.648,58.667,172.797,58.803,172.777,58.13z"/>
<path fill="#255A94" d="M158.556,67.126c1.859-2.494,4.486,0.076,5.689,2.076c-1.255,2.853-3.538,4.214-6.4,2.076
	C157.752,69.573,157.738,67.944,158.556,67.126z"/>
<path fill="#FDFEFD" d="M266.631,79.583c-1.253-0.626-1.175-2.547-2.846-2.768c0.015-2.843,3.543,1.176,3.557,2.768
	C267.105,79.583,266.867,79.583,266.631,79.583z"/>
<path fill="#255A94" d="M265.92,95.499c1.811,0.07,1.682,2.579,0.712,3.46c0,1.615,0,3.229,0,4.844
	C264.57,103.611,267.341,95.998,265.92,95.499z"/>
<path fill="#255A94" d="M273.029,86.503c0.021,0.673,0.871,0.537,1.422,0.692c-0.831,1.035-0.883,2.83-2.133,3.46
	c-0.635-1.227-2.885-0.882-2.133-3.46C271.146,86.977,271.544,86.21,273.029,86.503z"/>
<path fill="#1CAAD7" d="M289.383,63.666c0.572-0.366,1.154-0.722,2.133-0.692c2.602,0.178,3.254,3.723,4.268,0
	c1.604,0.515,0.277,3.881,0.712,5.536c-2.828-1.113-4.271-0.363-7.822,0C287.068,66.961,288.719,65.043,289.383,63.666z"/>
<path fill="#255A94" d="M250.988,58.822c0.935,0.245,1.119,1.218,2.134,1.384c0,0.23,0,0.461,0,0.692
	c-0.714,0.002-0.847-0.561-1.423-0.692c-0.086,2.438-1.034,0.189-2.844,1.384c-2.011-0.073-3.334-4.346-0.711-4.844
	C249.594,56.95,249.539,58.619,250.988,58.822z"/>
<path fill="#1CAAD7" d="M228.947,31.834c0-0.231,0-0.461,0-0.692c0.572-0.366,1.154-0.722,2.134-0.692
	c0.272,2.271,2.079,3.051,2.844,4.844c-2.083,2.519-7.271-1.498-3.555-2.768C229.543,32.638,229.104,32.373,228.947,31.834z"/>
<path fill="#1CAAD7" d="M237.479,40.138c-1.957-0.585-0.162,3.771-4.266,4.152c-1.639-0.942-3.969-1.213-3.557-4.152
	c0.404-3.261,5.149-1.229,6.399-2.076C236.308,38.971,237.309,39.15,237.479,40.138z"/>
<path fill="#1CAAD7" d="M220.416,42.214c0.162-2.379,2.115-3.016,4.266-3.46c0.947,0.693,2.146,1.141,2.844,2.076
	c1.164,5.429-5.647,4.698-7.108,2.076C220.416,42.675,220.416,42.445,220.416,42.214z"/>
<path fill="#1C1112" d="M218.993,43.598c0.94-0.008,0.65-1.213,1.423-1.384c0,0.23,0,0.461,0,0.692
	c-1.27,1.302-1.924,3.203-3.556,4.152c-1.939-0.504-1.431,1.375-2.844,1.384c0.17-0.988,1.171-1.167,1.422-2.076
	C217.523,46.319,218.079,44.784,218.993,43.598z"/>
<path fill="#FDFEFD" d="M215.438,45.674c0.643-1.22,1.591-2.143,2.844-2.768c0.434,0.039,0.842,0.104,0.711,0.692
	c-0.914,1.186-1.47,2.721-3.555,2.768C215.438,46.135,215.438,45.905,215.438,45.674z"/>
<path fill="#FDFEFD" d="M260.232,71.279c-2.22-1.32-5.799-4.942-4.979-6.92C256.99,66.591,258.884,68.668,260.232,71.279z"/>
<path fill="#255A94" d="M246.011,76.815c-0.948,0.987-4.028,0.987-4.978,0c-0.162-2.465,1.022-3.618,3.556-3.46
	C242.52,75.306,246.716,74.218,246.011,76.815z"/>
<path fill="#255A94" d="M233.214,78.891c-3.884-6.232,7.865-3.78,2.844,0C235.109,78.891,234.162,78.891,233.214,78.891z"/>
<path fill="#FDFEFD" d="M233.214,78.891c0.948,0,1.896,0,2.844,0c0.552,0.155,1.402,0.019,1.423,0.692
	c-4.367,0.132-6.154,2.776-7.822,5.536c-1.371-1.607,1.972-4.512,3.557-5.536C233.214,79.353,233.214,79.122,233.214,78.891z"/>
<path fill="#FDFEFD" d="M219.704,94.115c-0.342-2.188,2.565-6.556,6.399-6.92c0.236,0,0.475,0,0.711,0c0,0.23,0,0.461,0,0.692
	C222.303,87.88,222.298,92.258,219.704,94.115z"/>
<path fill="#FDFEFD" d="M207.617,92.731c-0.552-0.155-1.402-0.019-1.422-0.692c6.187-2.079,9.935,1.056,11.376,5.536
	c-0.038-1.19,0.548-1.774,1.422-2.076c-0.897,2.125-1.078,4.948-3.555,5.536C217.59,95.95,214.453,91.248,207.617,92.731z"/>
<path fill="#FDFEFD" d="M195.53,95.499c-0.837-0.108-2.019,0.119-2.134-0.692c4.332,0.279,8.646-3.097,12.088-1.384
	C202.045,93.998,199.449,95.393,195.53,95.499z"/>
<path fill="#FDFEFD" d="M185.576,98.267c-1.449-1.234,5.885-3.444,7.109-2.076C190.943,97.494,187.589,97.229,185.576,98.267z"/>
<path fill="#FDFEFD" d="M180.598,105.187c0.081-0.844,0.213-1.639,1.423-1.384c0.717-3.081-2.159-4.871,1.422-3.46
	c0,1.384,0,2.768,0,4.152C182.168,104.408,181.943,105.343,180.598,105.187z"/>
<path fill="#FDFEFD" d="M164.957,110.032c0.691,0.019,0.551,0.847,0.711,1.384c-2.751-0.37-3.472,1.235-6.399,0.692
	c0.159-0.537,0.02-1.365,0.711-1.384C161.348,112.067,162.839,109.996,164.957,110.032z"/>
<path fill="#255A94" d="M154.291,101.036c1.743-1.493,5.259-0.516,4.978,2.076c-1.005,1.046-3.454,2.186-4.978,0.692
	C154.291,102.881,154.291,101.958,154.291,101.036z"/>
<path fill="#FDFEFD" d="M202.64,59.515c1.313,1.323-3.108,2.938-3.556,4.844C197.41,62.682,201.425,60.674,202.64,59.515z"/>
<path fill="#FDFEFD" d="M218.993,49.134c0.962,0.218,1.358,0.985,2.845,0.692c1.432-1.375,2.324-3.273,4.266-4.152
	c-0.332,2.169,1.789,1.951,2.844,2.768c-1.504,2.298-2.063-2.077-4.266-1.384c-0.586,1.454-2.927,2.698-1.422,4.152
	c-0.572-0.366-1.154-0.722-2.133-0.692C219.903,50.555,219.303,49.986,218.993,49.134z"/>
<path fill="#255A94" d="M223.259,51.21c0.22,1.632,2.47,1.287,2.134,3.46c-1.441,3.063-6.607,3.493-7.111-0.692
	c0.481-1.608,2.363-1.853,2.845-3.46C222.105,50.488,222.688,50.844,223.259,51.21z"/>
<path fill="#255A94" d="M208.328,54.67c1.544-0.574,1.582-2.612,3.556-2.768C221.387,53.658,211.123,62.397,208.328,54.67z"/>
<path fill="#1CAAD7" d="M159.979,57.438c0.227-1.625,1.123-2.598,0.711-4.844c3.112-0.03,4.388,1.728,6.399,2.768
	c0.272,2.803-1.941,3.185-2.844,4.844C161.932,60.151,160.415,59.321,159.979,57.438z"/>
<path fill="#255A94" d="M167.089,55.362c0.573,0.595,1.947,0.411,2.133,1.384c0.085,1.993,3.031,1.201,2.844,3.46
	c-1.182,1.387-1.909,3.217-4.266,3.46c-1.14-1.198-2.658-2.027-4.267-2.768c-1.567,1.144-2.604,5.265-4.978,3.46
	c0.362-2.416,0.32-5.225,1.423-6.92c0.436,1.883,1.953,2.712,4.267,2.768C165.148,58.547,167.362,58.166,167.089,55.362z"/>
<path fill="#255A94" d="M234.635,58.822c1.52,2.81-0.365,5.34-4.266,4.844c-0.315-0.616-0.625-1.238-1.424-1.384
	C228.099,58.158,231.859,57.452,234.635,58.822z"/>
<path fill="#255A94" d="M244.589,59.515c-0.485,4.567-7.226,4.013-7.11-0.692C239.025,56.634,243.66,57.249,244.589,59.515z"/>
<path fill="#255A94" d="M112.341,88.579c-0.869,2.095,0.594,3.708-0.711,6.228c-4.362-3.777-8.511,2.129-12.798,2.768
	c-1.627-12.487-2.996-25.226-5.688-36.677c0.804-2.838,3.049,0.539,5.688,0c0,0.231,0,0.461,0,0.692
	c-3.06,1.682,3.968,7.576,4.266,1.384c5.42,0.722,9.662,2.592,14.22,4.152c-4.019,5.235,7.554,7.242,6.399,1.384
	c1.58,0.538,2.772,1.454,4.978,1.384c-1.867,2.566-6.364,2.572-7.111,6.229c0.151-3.039-2.536-0.076-3.555,0
	c0.06,1.096-0.342,2.639,0.711,2.768c-0.601,1.491-3.119,1.116-4.266,2.076c3.462-4.094-4.556-6.969-5.688-2.768
	c0.443,2.106,1.58,3.538,4.266,3.46c0.091,1.241-0.87,1.459-0.711,2.768c-2.649-0.427-2.593,6.09-0.711,4.152
	C111.867,88.579,112.104,88.579,112.341,88.579z M108.075,69.203c-0.66,4.768,2.922,4.174,5.688,2.768
	C114.563,68.523,110.178,67.662,108.075,69.203z M99.543,69.895c-0.094,1.706-0.107,3.334,0.711,4.152
	c2.654,0.276,4.172-0.553,4.266-2.768C103.614,68.805,102.2,69.457,99.543,69.895z M101.676,82.351
	c2.654,0.276,4.172-0.553,4.266-2.768C104.425,75.022,97.502,79.198,101.676,82.351z M104.52,90.655c2-0.129,3.029-1.204,2.844-3.46
	C105.167,81.05,97.53,89.77,104.52,90.655z"/>
<path fill="#1CAAD7" d="M121.584,76.123c0.333,2.169-1.788,1.951-2.844,2.768c-1.053-0.129-0.652-1.672-0.711-2.768
	C119.048,76.047,121.735,73.084,121.584,76.123z"/>
<path fill="#255A94" d="M217.571,63.666c-1.708,0.645-1.883,2.781-4.977,2.076c-0.01-1.375-1.94-0.88-1.423-2.768
	C211.525,58.895,217.687,59.98,217.571,63.666z"/>
<path fill="#255A94" d="M226.104,60.207c0.514,2.115-0.728,2.522-0.711,4.152c-2.715,0.335-4.539-0.196-5.688-1.384
	C219.426,59.405,223.322,58.831,226.104,60.207z"/>
<path fill="#1CAAD7" d="M98.832,61.59c1.662,0.228,2.938,0.832,4.266,1.384C102.8,69.166,95.772,63.272,98.832,61.59z"/>
<path fill="#255A94" d="M208.328,63.666c-0.314,2.001-1.499,3.155-3.555,3.46C198.597,65.209,205.578,58.088,208.328,63.666z"/>
<path fill="#DA3C2D" d="M153.58,65.051c-4.571,38.699-12.25,78.021-17.775,113.491c-8.45,1.463-16.348,3.465-24.885,4.844
	c-1.661-13.146-6.833-22.875-11.376-33.217c-6.761,11.674-9.492,24.854-13.509,40.137c-9.499,2.289-18.61,4.955-27.018,8.305
	c-5.704-24.463-12.795-51.176-19.198-72.661c7.09-6.248,16.355-10.379,24.886-15.224c4.874,13.48,6.337,30.278,8.532,46.365
	c6.981-13.735,10.356-30.98,14.22-47.749c7.32-3.486,14.278-7.325,20.619-11.764c4.672,12.753,7.608,27.196,11.376,40.83
	c4.235-18.715,5.816-40.013,7.11-61.59C135.293,72.78,144.545,66.603,153.58,65.051z"/>
<path fill="#255A94" d="M181.309,69.203c-2.786,1.942-4.624,0.742-6.399-1.384C174.936,63.286,182.985,63.083,181.309,69.203z"/>
<path fill="#255A94" d="M239.613,69.203C241.796,57.952,249.268,74.716,239.613,69.203L239.613,69.203z"/>
<path fill="#255A94" d="M248.855,64.358c2.857-0.244,5.202,0.011,5.688,2.076c0.3,2.368-2.129,2.08-2.845,3.46
	C249.188,69.187,247.15,67.25,248.855,64.358z"/>
<path fill="#255A94" d="M285.117,71.971c-2.338-1.441,1.201-2.918,1.423-4.152c0.518-1.888-1.412-1.393-1.423-2.768
	c1.486-0.398,2.029-1.716,4.267-1.384c-0.664,1.377-2.313,3.294-0.711,4.844c0,0.23,0,0.461,0,0.692
	c-1.461,0.193-1.418,1.849-2.133,2.768C285.906,71.545,285.268,71.134,285.117,71.971z"/>
<path fill="#255A94" d="M172.777,69.895c-1.882,1.588-4.518,1.588-6.398,0C164.93,63.419,173.795,64.121,172.777,69.895z"/>
<path fill="#1CAAD7" d="M280.852,66.435c0.877-0.992,2.445-1.311,4.266-1.384c0.011,1.375,1.939,0.88,1.423,2.768
	c-0.222,1.233-3.761,2.71-1.423,4.152c0.605-0.127,0.671,0.27,0.712,0.692c0.29,1.667-1.3,1.504-0.712,3.46
	c-1.422,0-2.844,0-4.266,0c0.135-0.561,0.713-0.69,0.711-1.384c-2.633,0.917-6.486,4.272-4.978,6.92
	c-0.778,1.549-1.179,3.467-2.134,4.844c-0.475,0-0.947,0-1.422,0c-1.486-0.293-1.883,0.474-2.844,0.692
	c-0.754,2.578,1.496,2.233,2.133,3.46c0.105,1.718-0.367,2.872-1.422,3.46c-0.824-0.755-2.55,3.482-2.845,5.536
	c-0.575-0.131-0.709-0.694-1.422-0.692c0.969-0.881,1.099-3.39-0.712-3.46c0.434-1.655-0.893-5.021,0.712-5.536
	c0,1.845,0,3.69,0,5.536c1.181-1.873,1.181-8.508,0-10.38c0-1.846,0-3.691,0-5.536c0.235,0,0.474,0,0.711,0
	c-0.015-1.592-3.542-5.611-3.556-2.768c-0.826,0.112-1.266-0.153-1.422-0.692c0.94-0.995,3.252-1.744,1.422-3.46
	c0-0.23,0-0.461,0-0.692c1.713,0.283,1.546-1.264,3.556-0.692c-1.396,8.81,11.567,0.826,2.845-0.692c0-0.231,0-0.461,0-0.692
	c0.575-0.131,0.709-0.694,1.422-0.692c0.758,2.737,2.155-0.176,4.267,0c0.149,1.184-1.214,1.792,0,2.076
	c-0.302,2.368,2.13,2.08,2.845,3.46c2.355-0.243,3.084-2.073,4.266-3.46c-0.936-1.396-2.334-2.342-4.266-2.768
	C278.904,67.524,284.57,66.902,280.852,66.435z M268.764,80.967c0.225,2.101,4.016,2.808,5.688,1.384c0-1.153,0.002-2.307,0-3.46
	C272.611,77.445,268.393,78.117,268.764,80.967z"/>
<path fill="#FDFEFD" d="M276.586,81.659c-1.51-2.648,2.345-6.003,4.979-6.92c0.002,0.694-0.576,0.824-0.711,1.384
	C278.311,76.878,277.697,79.511,276.586,81.659z"/>
<path fill="#255A94" d="M278.719,68.511c1.932,0.426,3.33,1.373,4.266,2.768c-1.182,1.387-1.91,3.217-4.266,3.46
	c-0.715-1.38-3.146-1.092-2.845-3.46C276.359,69.905,278.04,69.695,278.719,68.511z"/>
<path fill="#FDFEFD" d="M271.607,69.203c3.324-0.686,5.92-2.082,9.244-2.768c3.719,0.467-1.947,1.09-2.133,2.076
	c-0.68,1.185-2.359,1.394-2.845,2.768c-1.214-0.284,0.149-0.893,0-2.076C273.764,69.027,272.367,71.939,271.607,69.203z"/>
<path fill="#255A94" d="M236.057,68.511c0.336,3.455-5.265,3.553-5.688,0.692C230.033,65.748,235.634,65.65,236.057,68.511z"/>
<path fill="#255A94" d="M218.282,70.587c-0.094,2.215-1.611,3.044-4.266,2.768C210.093,70.446,216.677,65.939,218.282,70.587z"/>
<path fill="#255A94" d="M204.062,73.355c0-0.923,0-1.846,0-2.768C210.199,66.541,210.199,77.4,204.062,73.355z"/>
<path fill="#255A94" d="M274.451,78.891c0.002,1.153,0,2.307,0,3.46c-1.672,1.424-5.463,0.716-5.688-1.384
	C268.393,78.117,272.611,77.445,274.451,78.891z"/>
<path fill="#FDFEFD" d="M266.631,98.959c0.713-0.002,0.846,0.561,1.422,0.692c0.295-2.054,2.021-6.292,2.844-5.536
	c-1.125,3.519-2.139,7.146-4.266,9.688C266.631,102.189,266.631,100.574,266.631,98.959z"/>
<path fill="#255A94" d="M200.507,74.047C191.806,79.526,196.828,64.52,200.507,74.047L200.507,74.047z"/>
<path fill="#255A94" d="M182.732,74.739c0.371,2.851-3.848,3.522-5.689,2.076C175.874,72.117,181.632,71.718,182.732,74.739z"/>
<path fill="#255A94" d="M191.263,72.663c0.383,2.448-0.603,3.565-2.133,4.152c-2.057-0.306-3.241-1.459-3.555-3.46
	C186.529,72.121,189.691,71.214,191.263,72.663z"/>
<path fill="#DA3C2D" d="M326.355,170.237c-3.498,8.503-7.869,21.761-12.797,31.141c-7.584,0-15.17,0-22.754,0
	c-0.498-16.533-0.902-30.447-0.711-49.824c-4.443,11.592-7.916,24.129-11.375,36.676c-9.604-0.928-15.199-1.486-25.598-1.383
	c1.892-12.229,5.615-22.678,8.531-33.91c-4.672-1.996-10.354,0.983-16.354,0c0.061-4.744,0.376-11.72,0.711-19.375
	c-3.563-1.146-9.107,1.733-14.22,1.384c-2.157,4.129-2.444,10.078-3.556,15.225c-6.293-0.359-11.443,0.395-17.064,0.69
	c0.536,13.209-0.864,24.533-0.711,37.369c-7.51,0.565-14.691,1.082-22.752,1.386c0.678-12.489,0.882-25.438,0.711-38.755
	c-6.273,0.816-11.389,2.758-17.775,3.461c-0.838,12.615-0.979,29.783,0,38.754c-8.732-0.426-14.822,1.72-23.463,1.384
	c-0.053-25.366,3.007-52.43,4.266-76.121c7.438-1.836,17.133-3.32,23.463-4.152c-1.848,4.609-1.576,14.924-2.844,22.145
	c5.738-0.875,9.958-3.227,16.354-3.461c0-10.38,0-20.76,0-31.14c7.925-1.284,14.398-3.979,22.752-4.844
	c0.098,16.781,0.399,26.961,0,40.829c7.442-19.054,15.206-37.794,25.597-53.978c9.493-0.331,14.699-2.768,25.598-2.768
	c-2.535,20.61,1.289,44.257,1.422,62.282c9.47-23.539,16.798-49.163,28.439-70.586c8.441-1.435,16.604,0.819,27.73,0
	c-4.664,21.006-7.02,45.384-5.688,68.51c13.422-24.305,27.084-48.377,44.082-69.202c9.061,0.639,17.514,1.869,27.02,2.076
	c-11.664,43.78-22.6,88.266-29.152,137.018c-8.367-0.621-15.434-2.51-24.174-2.769c2.156-20.084,7.49-49.646,11.375-65.741
	c-5.352,3.099-8.16,14.662-13.508,20.068C328.553,164.552,325.736,168.683,326.355,170.237z M244.589,102.419
	c-2.61,5.532-5.365,10.925-7.11,17.3c2.881-0.195,4.942-1.188,7.821-1.383C244.959,110.838,245.663,107.159,244.589,102.419z"/>
<path fill="#F8CF19" d="M329.913,162.624c-0.691,3.018-2.466,4.982-3.558,7.611C325.736,168.683,328.553,164.552,329.913,162.624z"
	/>
<path fill="#255A94" d="M251.699,77.507c-2.614-2.141-2.488-5.628,2.845-4.844c0.56,1.764,1.291,3.357,2.845,4.152
	C255.29,76.935,252.986,78.676,251.699,77.507z"/>
<path fill="#255A94" d="M260.943,72.663c0.947,0,1.896,0,2.844,0c1.83,1.717-0.48,2.465-1.422,3.46c-0.237,0-0.475,0-0.711,0
	c0-0.231,0-0.461,0-0.692c-2.991,1.462-3.871-2.604-2.133-3.46C260.234,71.969,260.367,72.531,260.943,72.663z"/>
<path fill="#255A94" d="M158.556,76.123c1.191-0.918,2.383-1.833,4.978-1.384c0.009,1.375,1.94,0.88,1.423,2.768
	c-0.417,3.471-5.983,3.471-6.4,0C158.556,77.045,158.556,76.584,158.556,76.123z"/>
<path fill="#255A94" d="M216.149,76.815c1.486-0.293,1.883,0.474,2.844,0.692c0.61,2.208-1.119,2.14-1.422,3.46
	c-2.049-0.323-5.702-1.166-3.555-3.46c0.691,0.019,0.552,0.847,0.711,1.384C215.602,78.589,216.187,78.005,216.149,76.815z"/>
<path fill="#255A94" d="M210.461,79.583c-0.376,0.557-0.741,1.124-0.711,2.076c-1.752,0.091-3.426,0.104-4.266-0.692
	c0-0.692,0-1.384,0-2.076C207.007,77.397,209.457,78.537,210.461,79.583z"/>
<path fill="#255A94" d="M183.443,84.427c-0.949,0.987-4.029,0.987-4.978,0c-0.337-2.174,0.887-2.828,2.133-3.46
	C182.598,81.097,183.628,82.171,183.443,84.427z"/>
<path fill="#255A94" d="M187.709,80.967c0.909-0.946,3.357-0.946,4.266,0c0.227,1.604-0.113,2.657-0.711,3.46
	C188.731,84.585,187.547,83.432,187.709,80.967z"/>
<path fill="#255A94" d="M174.91,83.735c0.099,3.117-3.43,3.117-5.688,2.076C168.775,81.386,173.211,81.021,174.91,83.735z"/>
<path fill="#255A94" d="M323.512,83.735c3.25-1.063,12.559-1.396,17.775-2.768c-2.18,4.798-5.332,8.65-8.531,12.457
	c0.375-0.557,0.74-1.124,0.711-2.076c-6.494-0.411-1.838,5.778-5.689,7.612c0.316,1.006,0.625-0.07,1.424,0
	c-0.61,0.558-0.424,1.896-1.424,2.076c-3.135-2.132-4.735-1.226-6.397,2.076c-0.756,2.581,2.666,1.096,2.133,3.46
	c-3.01,0.076-0.012,1.297,0.711,0c-1.268,3.148-3.637,5.225-4.977,8.304c-1.714-4.448,1.016-10.535,0.711-15.916
	c0.633,0.307,1.271,0.607,1.422,1.384c1.94-0.625-2.162-1.548,0-2.768c1.713-0.283,1.545,1.264,3.556,0.692
	c2.774-0.392,2.639-5.011,0.711-6.228c-1.752-0.091-3.427-0.104-4.267,0.692c0-0.692,0-1.384,0-2.076
	c2.108-0.253,3.508-1.2,4.267-2.768C326.264,85.209,323.908,85.425,323.512,83.735z M327.777,86.503
	c1.451,0.895,1.295,3.355,4.269,2.768C338.238,86.229,328.641,79.613,327.777,86.503z"/>
<path fill="#1CAAD7" d="M332.756,93.423c-0.484,2.527-2.695,3.375-3.555,5.536c-0.799-0.07-1.107,1.006-1.424,0
	c3.852-1.834-0.806-8.023,5.688-7.612C333.497,92.3,333.131,92.867,332.756,93.423z"/>
<path fill="#1CAAD7" d="M327.777,101.036c-0.899,2.122-2.42,3.641-3.555,5.536c-0.723,1.297-3.721,0.076-0.711,0
	c0.533-2.364-2.889-0.879-2.133-3.46C323.042,99.81,324.643,98.904,327.777,101.036z"/>
<path fill="#1CAAD7" d="M319.958,98.959c0.762-3.221-0.207-3.851,1.422-6.229c0.84-0.796,2.515-0.783,4.267-0.692
	c1.928,1.217,2.063,5.836-0.711,6.228c-2.011,0.572-1.843-0.975-3.556-0.692c-2.162,1.22,1.94,2.143,0,2.768
	C321.229,99.567,320.59,99.266,319.958,98.959z"/>
<path fill="#1CAAD7" d="M323.512,83.735c0.396,1.69,2.752,1.475,2.133,4.152c-0.758,1.568-2.156,2.515-4.266,2.768
	C322.148,88.404,320.997,84.285,323.512,83.735z"/>
<path fill="#255A94" d="M161.401,87.887c-0.306-1.318-1.532-1.739-1.422-3.46c1.19-0.918,2.382-1.833,4.978-1.384
	C166.875,85.415,165.191,88.907,161.401,87.887z"/>
<path fill="#1CAAD7" d="M112.341,88.579c-0.237,0-0.474,0-0.711,0c-1.882,1.938-1.938-4.579,0.711-4.152
	C112.341,85.811,112.341,87.195,112.341,88.579z"/>
<path fill="#255A94" d="M218.993,88.579c-2.13,0.05-3.607-2.036-2.133-3.46C219.737,84.343,220.376,87.244,218.993,88.579z"/>
<path fill="#255A94" d="M203.351,88.579c-0.465,2.081-5.857,3.485-4.978-0.692C200.381,87.076,201.394,87.749,203.351,88.579z"/>
<path fill="#255A94" d="M189.131,89.271c0.909-0.946,3.357-0.946,4.266,0c-0.133,1.947-1.236,2.948-3.555,2.768
	C189.29,91.423,189.077,90.477,189.131,89.271z"/>
<path fill="#255A94" d="M166.379,92.039c0,0.923,0,1.846,0,2.768c-1.523,1.494-3.973,0.354-4.978-0.692c0-0.461,0-0.923,0-1.384
	C162.406,91.685,164.855,90.545,166.379,92.039z"/>
<path fill="#255A94" d="M154.291,96.191c-0.514-2.115,0.727-2.522,0.711-4.152c3.021-0.634,3.037,1.659,2.844,4.152
	C156.078,96.267,155.645,97.488,154.291,96.191z"/>
<path fill="#255A94" d="M167.8,103.111c-1.753,0.091-3.426,0.105-4.267-0.692c0-0.692,0-1.384,0-2.076
	C165.348,98.781,168.932,99.691,167.8,103.111z"/>
<path fill="#255A94" d="M71.102,113.492c-0.818-0.817-0.805-2.446-0.711-4.152c4.583-0.153,8.278-1.17,12.087-2.076
	c0.411,5.706-6.092,4.682-8.532,7.612C73.775,113.659,72.723,113.298,71.102,113.492z"/>
<path fill="#255A94" d="M159.979,110.724c-0.691,0.019-0.552,0.847-0.711,1.384c-0.021,0.673-0.87,0.537-1.423,0.691
	C152.912,111.29,158.795,105.565,159.979,110.724z"/>
<path fill="#255A94" d="M44.084,114.875c0.3-2.476,3.688-1.947,6.399-2.076c0.016,2.586-5.464,1.301-3.555,2.076
	C46.46,116.948,45.408,114.213,44.084,114.875z"/>
<path fill="#DA3C2D" d="M428.742,126.64c-14.666,33.474-31.75,64.597-44.793,99.65c-7.565-3.939-14.879-8.125-22.754-11.766
	c10.863-34.178,21.166-68.899,35.552-99.649C407.956,118.268,416.973,123.793,428.742,126.64z"/>
<path fill="#255A94" d="M373.283,143.94c-0.659-2.965,1.601-9.041,2.845-12.456C379.385,133.43,374.169,139.774,373.283,143.94z"/>
<path fill="#FDFEFD" d="M173.488,199.994c1.602,1.672,3.411,3.14,7.11,2.769c0.396-0.002,0.808,0.561,0,0.691
	C178.538,204.92,172.111,201.799,173.488,199.994z"/>
<path fill="#255A94" d="M169.222,197.226c2.172,0.5,2.591-0.707,4.266-0.691c0.062,0.98,0.117,1.96-0.711,2.076
	c-0.395-0.004-0.807,0.561,0,0.691c-1.26,2.27-2.881-0.808-3.555-1.385C169.222,197.687,169.222,197.457,169.222,197.226z"/>
<path fill="#255A94" d="M152.869,206.222c4.197-0.99,10.539,0.107,12.799-2.769c-0.796,0.996-0.768,1.688,0.711,2.075
	c0.305,1.318,1.531,1.738,1.422,3.461c-1.703,1.964-2.618,0.684-5.688,0.691c-0.597-0.804-0.938-1.854-0.711-3.461
	c-1.185,0-2.37,0.002-3.556,0c-0.57,0.729,1.564,3.131-0.711,4.846c-2.308,0.4-3.307-0.473-4.977-0.692
	C152.064,208.667,152.05,207.04,152.869,206.222z"/>
<path fill="#255A94" d="M144.337,213.142c-1.617-2.353,0.821-3.338-0.711-6.229c3.577,0.482,4.956-1.174,8.532-0.691
	c-0.089,1.528-3.016,0.293-4.266,0.691c1.748,2.814-0.691,3.342-0.711,6.229c-0.827-0.111-1.266,0.152-1.422,0.691
	C144.702,213.862,144.73,209.724,144.337,213.142z"/>
<path fill="#FDFEFD" d="M184.154,218.679c-2.537,0.76-3.611,2.942-6.399,3.459c-0.003-0.693,0.575-0.822,0.711-1.384
	c2.211-0.616,3.313-2.313,5.688-2.769C184.154,218.216,184.154,218.446,184.154,218.679z"/>
<path fill="#1CAAD7" d="M201.929,244.974c-1.339-1.695-2.942-3.134-3.556-5.535c3.055-2.383,0.009-7.939-3.556-5.537
	c-0.236,0-0.473,0-0.711,0c-0.662-1.893-2.182-2.949-2.844-4.844c0.237,0,0.475,0,0.711,0c1.482,2.248,6,3.104,6.399-0.691
	c0.12-1.73-1.093-2.166-2.133-2.768c-1.649-0.222-2.729,0.11-3.556,0.691c-0.571,0.365-1.154,0.723-2.133,0.691
	c-0.273-2.271-2.079-3.051-2.844-4.844c-1.369,0.219-2.244-1.83-3.555-3.461c0-0.23,0-0.462,0-0.691
	c-2.376,0.455-3.478,2.152-5.688,2.769c-1.479-3.896-8.979,1.004-4.267,2.769c-2.137,1.84-5.609,2.384-7.109,4.844
	c-0.315,0.615-0.625,1.238-1.422,1.385c1.854-2.871-3.178,0.739-4.267,1.385c-0.397-0.998-1.108-1.689-2.133-2.076
	c0-0.461,0-0.924,0-1.385c0-0.23,0-0.462,0-0.691c3.81-1.758,0.968-4.996-1.423-6.229c0.628-1.506,4.289-3.615,2.134-5.535
	c-1.95-2.304-5.693-2.337-7.11,0.69c-0.336,2.173,1.914,1.827,2.133,3.46c0.315,0.615,0.625,1.238,1.422,1.385
	c-1.258,1.313-3.007,2.146-4.266,3.46c-1.257-0.622-2.076-1.671-3.555-2.075c-0.646-3.397,2.979-2.637,2.844-5.537
	c-0.564-1.526-3.342-0.898-3.555-2.769c0.131-0.588-0.277-0.651-0.711-0.69c0.02-2.888,2.459-3.414,0.711-6.229
	c1.25-0.397,4.177,0.837,4.266-0.692c0.236,0,0.475,0,0.711,0c-0.818,0.818-0.805,2.446-0.711,4.152
	c1.67,0.221,2.669,1.094,4.977,0.691c2.275-1.713,0.141-4.115,0.711-4.844c1.186,0,2.371,0,3.556,0
	c-0.227,1.604,0.114,2.656,0.711,3.461c3.07-0.01,3.985,1.271,5.688-0.692c0.109-1.722-1.117-2.144-1.422-3.46
	c1.922,1.586-0.58-3.373,0.711-6.92c0.711,0,1.422,0,2.133,0c-0.02-0.674-0.871-0.537-1.422-0.692
	c0.02-0.673,0.87-0.537,1.422-0.692c0,0.231,0,0.463,0,0.692c0.674,0.577,2.295,3.655,3.555,1.384c-0.807-0.131-0.395-0.693,0-0.691
	c0.135,0.562,0.713,0.689,0.711,1.385c-1.377,1.807,5.05,4.927,7.11,3.46c-2.344,2.668,2.835,4.756,4.267,2.076
	c0.756-2.581-2.667-1.097-2.133-3.46c2.369,0,4.739,0,7.109,0c2.061,0.388-1.09,1.078-0.711,2.076
	c0.015,1.896,3.354,1.644,4.266,0.69c1.029-2.616-1.953-1.327-1.422-3.46c2.371,0,4.74,0,7.11,0
	c-1.049,0.957-0.368,3.292,2.134,2.77c1.185-0.692,0.503-3.201,2.133-3.461c2.542-0.985,3.167-3.838,2.844-7.611
	c1.186,0,2.37,0,3.555,0c1.638,3.806,9.537-4.694,5.688-6.229c0.257-5.969-0.176-16.143,0-24.222c1.422,0,2.844,0,4.266,0
	c3.122,1.633,5.918-2.987,5.688-6.92c1.186,0,2.369,0,3.555,0c0.119-1.501-2.521-0.313-3.555-0.692c-0.238,0-0.475,0-0.712,0
	c0.316-1.998,5.372,0.615,5.688-1.384c1.59,0.298,0.287,3.41,0.711,4.845c-3.111-0.539,1.287,5.686-0.711,6.229
	c1.229,1.779,8.365,2.936,14.22,1.384c0.328,2.285-3.491,6.728-0.711,6.921c-1.946,6.641-3.108,14.043-5.688,20.068
	c-4.257,5.843,9.137,9.958,16.354,6.92c2.628,0.441,7.083-0.896,8.532,0.691c-1.043,0.008-5.818-0.262-3.555,0.691
	c1.032,0.379,3.674-0.809,3.555,0.691c-2.504,2.383,1.106,5.897,3.556,3.461c0.228-1.604-0.114-2.657-0.712-3.461
	c0-0.461,0-0.922,0-1.383c3.163,0.015,7.244,0.002,8.531-3.461c1.186,0.08,0.238,5.657,1.424,3.461c0.236,0,0.474,0,0.711,0
	c0,0.461,0,0.922,0,1.383c-1.271,0.895-4.391-3.621-5.688,0.691c0.029,3.549,3.979,2.98,5.688,1.385c0,1.615,0,3.229,0,4.844
	c-2.708-0.327-4.438,0.295-4.979,2.076c-0.119,1.731,1.094,2.166,2.133,2.769c1.765,0.103,3.451,0.129,3.558-1.384
	c2.533,2.609,9.506,0.896,14.22,1.384c1.979,2.011-2.332,1.795-1.423,4.845c1.461,2.467,0.604-3.023,2.847-2.076
	c0,0.23,0,0.461,0,0.691c-2.299,8.631-3.97,25.214-4.979,35.293c-3.61-1.328-5.222-4.605-8.531-6.229
	c-1.405-0.031,5.853-2.803,7.82-0.691c0.032-4.586,3.924-12.527,0-14.531c0.012-2.527,2.021-3.107,2.844-4.845
	c-1.504-0.843-2.063-2.604-4.266-2.769c-2.435-0.293-2.138,2.072-3.556,2.769c0.244,2.53,2.435,3.166,4.267,4.151
	c-0.775,1.783-1.798,3.326-3.556,4.152c-2.596-0.012-3.192-1.968-4.977-2.769c0.465-1.854,2.035-2.632,2.844-4.152
	c0.004-2.312-2.854-1.834-3.555-3.46c-1.465,0.883-3.607,1.104-3.557,3.46c-0.226,2.757,3.289,1.874,3.557,4.152
	c0.125,2.43-2.402,2.274-2.846,4.151c-2.334-0.267-3.135-2.023-4.977-2.769c-3.938,0.168,0.006,4.479-3.557,1.384
	c-2.355-0.242-3.084-2.072-4.266-3.46c0.771-0.171,0.481-1.376,1.422-1.384c-0.188-2.227-4.414-5.174-5.688-2.076
	c-2.198-0.859-3.815-2.283-4.978-4.152c-3.397,0.614-3.256,4.674-6.399,5.537c-0.575,0.131-0.708,0.693-1.422,0.691
	c-4.547-5.407-9.498,5.643-2.844,3.46c-1.122,1.676-2.544,3.062-4.267,4.151c0.643,1.875,1.59-1.582,2.844-1.385
	c-0.643,1.221-1.59,2.145-2.844,2.77c-2.25,0.113-2.377-1.84-4.978-1.385c-1.085,1.25-2.563,2.119-2.134,4.845
	c0.01,1.375,1.939,0.88,1.423,2.769c-1.782,0.571-2.249,2.424-3.556,3.461c-3.084-2.895-2.416-3.611,0-6.922
	c0.052-2.355-2.092-2.576-3.556-3.46c-1.827,0.527-3.014,1.681-3.555,3.46c-0.226,2.758,3.288,1.875,3.555,4.152
	c-0.022,6.831-10.226-1.989-5.688,2.77c-2.946-0.131-2.349-3.729-0.711-4.846c0.634-0.307,1.271-0.607,1.422-1.384
	c-0.758-1.567-2.156-2.515-4.266-2.769c-2.343,0.256-3.553,1.617-4.978,2.769c-1.849-0.276-2.144-2.065-4.266-2.076
	c0.135-0.562,0.713-0.688,0.711-1.384c0.639-1.225,1.717-2.021,2.133-3.46c0.242-3.581-7.43-3.995-7.109,0
	c-0.535,2.597,2.715,1.509,2.844,3.46c0.125,2.658-2.457,2.684-2.844,4.844C201.929,244.052,201.929,244.513,201.929,244.974z
	 M251.699,222.83c1.342-1.388-0.873-3.216-2.844-3.46c-2.774,0.393-2.774,5.145,0,5.535
	C249.474,223.894,249.921,222.712,251.699,222.83z M168.511,226.291c0.943-1.159,1.883-2.319,1.422-4.845
	c-0.934-0.705-2.621-0.68-3.555-1.385c-1.398,1.178-3.033,2.123-3.556,4.152C164.525,225.095,165.441,226.741,168.511,226.291z
	 M164.246,212.45c0.109,1.722-1.117,2.143-1.423,3.46c1.677,0.214,1.323,2.403,3.556,2.075c1.014-0.166,1.199-1.139,2.133-1.383
	C168.887,213.468,167.465,212.083,164.246,212.45z M172.777,203.454c-1.041,0.602-2.254,1.036-2.133,2.768
	c0.539,1.783,2.27,2.405,4.977,2.076C175.901,205.489,175.361,203.476,172.777,203.454z M216.86,173.696
	c-0.342-2.688,0.766-10.4-0.711-9.688C216.491,166.698,215.383,174.411,216.86,173.696z M211.172,202.761
	c0.054-1.205-0.158-2.15-0.711-2.768C206.343,200.06,208.043,204.665,211.172,202.761z M257.388,204.146
	c-1.065-1.609-1.739-1.057-3.556-0.691c-0.227,1.604,0.113,2.656,0.711,3.46C256.77,207.235,257.717,206.312,257.388,204.146z
	 M236.057,208.297c2.432,0.289,4.053-0.209,3.557-2.769C237.322,204.405,235.484,204.931,236.057,208.297z M244.589,206.914
	c0.909,0.946,3.356,0.946,4.267,0c-0.3-1.323-0.258-2.979-2.134-2.769C244.849,203.937,244.389,205.104,244.589,206.914z
	 M227.525,206.222c-0.498,2.131-0.498,1.33,0,3.461c1.658-0.231,3.063-0.711,3.556-2.076
	C230.224,206.825,229.792,205.63,227.525,206.222z M217.571,208.99c0.031,2.081,5.048,2.01,4.267-0.692
	C221.133,206.606,217.506,206.438,217.571,208.99z M208.328,210.374c1.356,0.295,1.287,1.979,3.556,1.384
	c0.409-0.419,1.664-3.282,0-3.46c-0.12,0.807-1.124,0.752-2.134,0.692c-0.28,1.19,1.056,1.774,0,2.075
	C209.58,210.313,208.579,209.403,208.328,210.374z M199.085,210.374c0.075,3.514,5.549,3.305,4.978-0.691
	C202.539,208.188,200.089,209.328,199.085,210.374z M195.53,211.065c-0.687,1.504-1.247-2.873-4.267-1.383
	c-0.597,0.803-0.938,1.854-0.711,3.459C192.858,214.996,197.832,214.237,195.53,211.065z M180.598,212.45
	c-0.372,2.852,3.847,3.521,5.688,2.076C187.189,209.854,181.802,209.649,180.598,212.45z M265.209,209.683
	c-0.186,0.973-1.559,0.789-2.133,1.383c-0.412,2.938,1.916,3.211,3.556,4.152C269.27,213.454,268.986,210.188,265.209,209.683z
	 M255.255,211.065c-0.597,0.804-0.938,1.855-0.711,3.461c0.948,0.986,4.028,0.986,4.978,0
	C259.74,211.774,258.154,210.78,255.255,211.065z M177.755,213.142c-0.944-1.397-4.755-2.088-6.399-0.691
	c0.063,2.707,0.87,4.689,4.266,4.152c3.367,3.131,3.594-7.246,0.711-4.846C177.131,211.903,177.439,212.526,177.755,213.142z
	 M241.746,215.91c0.051-2.356-2.092-2.577-3.557-3.46C234.711,214.995,238.994,219.164,241.746,215.91z M245.3,213.142
	c0.313,2.002,1.499,3.154,3.556,3.461c0.631-1.23,1.984-1.76,1.422-4.152C248.162,211.533,246.671,211.741,245.3,213.142z
	 M227.525,215.218c0.095,2.215,1.611,3.045,4.267,2.768c0.305-1.316,1.53-1.737,1.422-3.459c-0.798-0.146-1.106-0.769-1.422-1.385
	C229.627,213.11,229.027,214.603,227.525,215.218z M219.704,214.526c-1.896,1.994-1.279,4.668,2.134,4.844
	c0.51-0.736,2.775-3.188,0.711-4.15C221.85,217.339,220.651,214.422,219.704,214.526z M209.75,216.603c0,0.922,0,1.846,0,2.768
	c1.523,1.494,3.973,0.354,4.978-0.691C215.008,216.086,211.493,215.108,209.75,216.603z M200.507,217.293
	c-0.094,1.706-0.108,3.335,0.711,4.151c2.172,0.5,2.59-0.707,4.266-0.69C206.882,216.724,202.828,215.541,200.507,217.293z
	 M273.029,221.446c2.695,1.895,5.572,1.092,6.4-2.076C278.447,215.724,271.572,215.497,273.029,221.446z M281.563,218.679
	c0.162,2.379,2.115,3.014,4.267,3.459c0.219-1.632,2.469-1.287,2.133-3.459C288.404,214.937,281.122,214.937,281.563,218.679z
	 M197.663,221.446c0.017-4.022-7.358-6.184-6.399,0C193.941,222.972,195.634,223.144,197.663,221.446z M263.787,220.754
	c0.759,1.567,2.156,2.515,4.267,2.769c0.22-1.633,2.47-1.287,2.134-3.461C269.806,217.146,263.365,217.166,263.787,220.754z
	 M255.965,223.522c2.754,0.431,2.93,0.572,4.979-0.692c0.563-2.394-0.791-2.921-1.422-4.151
	C255.609,218.024,254.548,220.911,255.965,223.522z M232.503,226.981c1.786-1.258,1.786-4.275,0-5.535
	c-2.237-0.331-2.779,0.984-4.267,1.384C228.271,225.563,229.693,226.948,232.503,226.981z M237.479,223.522
	c0.424,2.86,6.024,2.763,5.688-0.692C242.745,219.97,237.145,220.067,237.479,223.522z M219.704,223.522
	c-0.563,2.394,0.791,2.922,1.423,4.151c2.496,0.405,2.338-3.271,4.266-1.384C226.191,222.843,221.807,221.981,219.704,223.522z
	 M210.461,227.674c1.354,0.298,1.787,1.49,3.556,1.384c0.011-2.064,1.849-2.353,2.133-4.151
	C214.171,223.036,209.221,222.796,210.461,227.674z M201.218,227.674c1.152,2.375,3.607,3.261,5.688,1.384
	C208.263,223.595,201.238,222.767,201.218,227.674z M268.764,231.827c1.565-1.016,3.33-1.834,2.844-4.846
	C266.919,222.034,261.938,231.065,268.764,231.827z M234.635,229.75c-1.889,0.007-4.061-0.263-4.979,0.69
	c-0.461,2.525,0.479,3.688,1.424,4.846C235.626,235.621,236.718,232.487,234.635,229.75z M220.416,231.827
	c-1.628,4.977,6.583,5.607,6.398,1.384C225.699,229.528,223.494,231.021,220.416,231.827z M215.438,231.134c0-0.23,0-0.462,0-0.691
	c-2.685-0.307-3.338,1.365-4.978,2.076c-1.387,2.979,3.146,6.453,1.423,3.459c1.469,1.91,3.955,1.312,5.688,0
	c0-1.152,0-2.307,0-3.459C216.731,232.183,215.96,231.78,215.438,231.134z"/>
<path fill="#FDFEFD" d="M230.37,242.207c0.633,0.308,1.271,0.606,1.422,1.384c1.938,0.504,1.431-1.375,2.844-1.384
	c-1.899,2.765-4.205,5.134-6.399,7.612c-0.713-0.002-0.846,0.561-1.422,0.691c0.17-0.988,1.172-1.168,1.422-2.076
	c1.308-1.035,1.773-2.889,3.557-3.461C232.309,243.086,230.379,243.582,230.37,242.207z"/>
<path fill="#255A94" d="M237.479,238.747c-0.048,2.029-1.625,2.57-2.844,3.46c-1.413,0.009-0.904,1.888-2.844,1.384
	c-0.15-0.775-0.789-1.076-1.422-1.384c-0.43-2.726,1.048-3.595,2.133-4.845C235.104,236.907,235.23,238.86,237.479,238.747z"/>
<path fill="#FDFEFD" d="M240.324,235.978c-1.254-0.197-2.202,3.26-2.846,1.385c1.723-1.092,3.146-2.477,4.268-4.151
	c0.48-1.606,2.361-1.853,2.844-3.46c0.714,0.002,0.848-0.561,1.422-0.691C244.865,232.095,242.018,233.476,240.324,235.978z"/>
<path fill="#1CAAD7" d="M272.318,240.13c4.021,2.285-0.18,0.363,0-2.768c2.768-1.836,6.351,0.453,5.689,4.15
	c-0.84,0.336-1.613,0.738-2.134,1.385C274.459,242.2,272.838,241.702,272.318,240.13z"/>
<path fill="#1CAAD7" d="M302.182,220.062c0.008-0.697,1.246-0.869,1.422,0c1.012-1.322,2.195-2.477,3.555-3.459
	c5.064,0.981,2.306,5.324,6.4,6.92C309.111,223.006,305.568,221.608,302.182,220.062z"/>
<path fill="#255A94" d="M314.27,206.222c3.137,0.286,3.133-2.486,5.688-2.769c-1.121,1.444-0.492,4.596-1.423,6.229
	c-1.536-0.58-2.426-1.793-4.977-1.386c-0.961,0.681-1.422,1.847-2.133,2.769c0.02,2.84,3.875,4.547,6.398,2.769
	c0.061,0.981,0.117,1.96-0.711,2.076c-1.519,0.83-3.873,0.845-4.267,2.769c-1.659,5.01,8.453,3.789,6.398,1.385
	c0-0.23,0-0.461,0-0.692c4.184,2.388,11.868,1.366,16.354,3.46c-0.107,1.279-2.408,0.425-2.845,1.385
	c-1.015,4.896,5.285,5.021,5.688,1.385c-0.961-0.681-1.422-1.848-2.133-2.77c0-0.23,0-0.461,0-0.691
	c1.627,0.725,4.289,0.439,5.688,1.385c-0.219,2.75,1.367,3.744,4.266,3.459c0.238,0,0.475,0,0.711,0
	c-0.793,3.584-8.373-0.612-8.531,4.846c-2.053-1.23-5.356-1.245-7.108-2.77c-2.82-1.408-0.996-4.459-4.979-5.535
	c-1.485,0.859-2.672,2.013-3.555,3.459c-2.783-1.441-6.758-1.727-9.242-3.459c-4.096-1.596-1.336-5.938-6.4-6.92
	c-1.358,0.982-2.543,2.137-3.555,3.459c-0.176-0.869-1.414-0.697-1.422,0c-3.434-0.58-6.586-1.433-9.242-2.769
	c0-0.229,0-0.461,0-0.69c-2.242-0.948-1.385,4.543-2.846,2.076c-0.91-3.051,3.402-2.836,1.422-4.846c0.949,0,1.896,0,2.846,0
	c0.377,2.4,3.347,2.279,4.267,4.152c1.951-2.303,0.717-3.692-3.556-4.152c8.636-0.355,13.656,2.809,15.642-4.844
	C312.451,208.604,313.313,207.366,314.27,206.222z"/>
<path fill="#255A94" d="M277.297,212.45c-0.105,1.513-1.793,1.486-3.557,1.384c-1.041-0.603-2.254-1.036-2.133-2.769
	c0.539-1.781,2.27-2.403,4.978-2.075C275.998,210.946,277.589,210.783,277.297,212.45z"/>
<path fill="#FDFEFD" d="M231.081,158.472c-0.228,8.901,6.542,7.027,14.931,6.922c-0.898,2.354-1.236,5.254-2.133,7.611
	c-2.78-0.193,1.039-4.636,0.711-6.921c-5.854,1.552-12.988,0.396-14.22-1.384C232.369,164.158,227.969,157.933,231.081,158.472z"/>
<path fill="#FDFEFD" d="M238.189,193.074c-0.406,4.087,2.06,5.378,4.979,6.228c0.986,1.578,4.949,0.258,7.109,0.692
	c1.422,0,2.845,0,4.267,0C247.326,203.032,233.933,198.916,238.189,193.074z"/>
<path fill="#255A94" d="M263.076,202.069c1.053-0.801,1.791-0.801,2.844,0c0.598,0.804,0.938,1.855,0.712,3.461
	C264.183,207.968,260.572,204.452,263.076,202.069z"/>
<path fill="#255A94" d="M265.92,234.595c3.563,3.094-0.381-1.217,3.557-1.385c1.842,0.744,2.644,2.502,4.977,2.768
	c0.441-1.875,2.971-1.722,2.846-4.15c-0.268-2.278-3.781-1.396-3.557-4.152c-0.051-2.355,2.092-2.578,3.557-3.46
	c0.699,1.626,3.559,1.147,3.555,3.46c-0.809,1.521-2.379,2.299-2.844,4.152c1.783,0.801,2.381,2.757,4.977,2.768
	c1.758-0.826,2.779-2.369,3.556-4.152c-1.832-0.984-4.021-1.621-4.267-4.15c1.418-0.695,1.121-3.061,3.556-2.77
	c2.2,0.164,2.762,1.927,4.266,2.77c-0.821,1.736-2.832,2.316-2.844,4.844c3.924,2.006,0.032,9.946,0,14.532
	c-1.97-2.11-9.228,0.66-7.82,0.692c-1.487-0.859-2.673-2.014-3.556-3.461c0.521-0.646,1.294-1.049,2.134-1.385
	c0.66-3.697-2.923-5.986-5.688-4.15c-0.181,3.131,4.021,5.053,0,2.768C269.839,238.623,267.456,237.021,265.92,234.595z
	 M280.141,238.054c1.033,10.732,13.459-2.789,1.422-2.076C282.376,239.071,281.982,236.86,280.141,238.054z"/>
<path fill="#FDFEFD" d="M204.773,238.747c0.711,0,1.422,0,2.133,0c0.002,0.693-0.576,0.822-0.711,1.384
	c-1.871,0.716-2.395,2.744-4.266,3.46C202.316,241.431,204.898,241.405,204.773,238.747z"/>
<path fill="#255A94" d="M204.773,238.747c-0.129-1.951-3.379-0.863-2.844-3.46c-0.32-3.995,7.352-3.581,7.109,0
	c-0.416,1.438-1.494,2.235-2.133,3.46C206.195,238.747,205.484,238.747,204.773,238.747z"/>
<path fill="#255A94" d="M194.818,233.901c3.564-2.402,6.61,3.154,3.556,5.537C196.572,238.192,195.701,236.042,194.818,233.901z"/>
<path fill="#FDFEFD" d="M187.709,222.138c0.765,1.793,2.57,2.572,2.844,4.844c0.979,0.031,1.562-0.326,2.133-0.69
	c-0.552,0.615-0.764,1.563-0.711,2.769c-0.236,0-0.474,0-0.711,0C190.486,226.792,186.361,224.172,187.709,222.138z"/>
<path fill="#255A94" d="M174.199,223.522c-4.712-1.765,2.787-6.664,4.267-2.769c-0.136,0.562-0.714,0.688-0.711,1.384
	c0.131,0.59-0.277,0.652-0.712,0.691C176.845,221.194,175.144,223.624,174.199,223.522z"/>
<path fill="#255A94" d="M155.002,219.37c-0.219-1.633-2.469-1.287-2.133-3.46c1.417-3.027,5.16-2.994,7.11-0.69
	C160.146,218.24,157.699,221.319,155.002,219.37z"/>
<path fill="#FDFEFD" d="M167.8,197.917c0.551,0.154,1.402,0.02,1.422,0.691c-0.711,0-1.422,0-2.133,0
	c-1.291,3.547,1.211,8.507-0.711,6.92c-1.479-0.387-1.507-1.079-0.711-2.075c1.131-2.736-0.659-4.013,0.711-6.229
	C166.954,197.356,167.088,197.919,167.8,197.917z"/>
<path fill="#255A94" d="M180.598,202.761c0.115-0.811,1.296-0.582,2.134-0.691c-0.534,2.365,2.889,0.88,2.133,3.461
	c-1.432,2.68-6.61,0.592-4.267-2.076C181.406,203.321,180.994,202.759,180.598,202.761z"/>
<path fill="#255A94" d="M203.351,200.687c-1.63,0.258-0.948,2.768-2.133,3.459c-2.502,0.523-3.183-1.812-2.134-2.769
	C200.759,201.394,201.178,200.187,203.351,200.687z"/>
<path fill="#FDFEFD" d="M209.75,193.074c3.84-0.185,5.814-2.185,5.688-6.229C219.287,188.379,211.387,196.879,209.75,193.074z"/>
<path fill="#FDFEFD" d="M224.681,155.013c0.237,0,0.474,0,0.712,0c1.032,0.379,3.674-0.81,3.555,0.691c-1.186,0-2.369,0-3.555,0
	c0.229,3.932-2.566,8.553-5.688,6.92C223.447,162.116,223.609,158.122,224.681,155.013z"/>
<path fill="#255A94" d="M130.828,188.921c0.797-1.311,0.072-3.4,1.422-5.535c2.336,0.217,0.413,3.907,0,5.535
	C131.775,188.921,131.301,188.921,130.828,188.921z"/>
<path fill="#FDFEFD" d="M129.406,190.306c0.633-0.308,1.271-0.607,1.422-1.385c0.474,0,0.947,0,1.422,0
	c0.691,0.02,0.551,0.848,0.711,1.385c-1.152,1.366-2.156,5.168-4.266,3.459c-0.605,0.129-0.672-0.27-0.711-0.69
	c2.369,1.194,3.859-0.257,3.555-3.46c-0.934,0.244-1.119,1.218-2.133,1.384C128.552,191.968,129.129,191.058,129.406,190.306z"/>
<path fill="#1CAAD7" d="M126.561,190.998c1.45-1.208,1.395,0.517,2.845-0.692c-0.277,0.752-0.854,1.662,0,0.692
	c1.014-0.166,1.199-1.14,2.133-1.384c0.305,3.203-1.186,4.654-3.555,3.46c-1.148,0.194-1.225-0.654-2.134-0.692
	C125.986,191.821,126.564,191.692,126.561,190.998z"/>
<path fill="#255A94" d="M121.584,192.381c0.841-1.258,3.708-0.544,4.977-1.384c0.003,0.693-0.575,0.822-0.711,1.384
	c0.909,0.038,0.985,0.888,2.134,0.692c0.039,0.422,0.105,0.818,0.711,0.691c1.887,2.182-1.314,3.844-2.134,5.535
	c0.318,1.997,3.06,1.637,3.556,3.461c2.928,0.082,0.126-5.414,2.133-6.229c1.596,2.21-0.514,5.396,0.711,8.304
	c-2.604-3.712-4.053,2.636-6.399,3.46c0.255-2.554-1.769-2.893-3.555-3.46c-2.085,0.047-2.641,1.582-3.555,2.769
	c0.099,1.979,2.966,1.267,4.977,1.385c0,0.23,0,0.461,0,0.691c-1.772,0.582-3.81,0.905-6.399,0.691
	c-1.012-1.782-1.665-3.915-4.266-4.152c-3.734-0.089-2.087,3.522-2.844,4.846c-1.185,0-2.37,0-3.555,0
	c1.925-2.078-1.172-3.461-2.844-4.152c-1.391,0.096-3.374,3.088-1.422,4.152c-0.686,1.408-2.73,1.494-4.977,1.384
	c1.611-1.65-0.325-3.75-2.133-4.152c-2.645-0.003-3.468,3.242-1.422,4.152c-1.484,1.093-3.74,1.437-6.399,1.384
	c0.552-0.615,0.764-1.563,0.711-2.768c-0.772,0.17-0.482,1.375-1.422,1.384c1.482-5.478,2.788-11.126,4.977-15.916
	c1.389,2.187,3.745-0.442,4.266-1.384c-0.802-1.297-0.841-3.334-3.555-2.77c1.583-1.458,0.083-5.917,2.844-6.229
	c-1.603,10.009,7.855,10.783,13.509,8.305c0.321,1.799,6.809,0.296,4.266-0.691c-0.12-1.5,2.521-0.313,3.555-0.691
	c-0.217,1.596,2.054,0.77,2.133,2.076c2.084-0.049,1.558-2.637,4.266-2.076C123.602,192.263,122.421,192.49,121.584,192.381z
	 M120.873,196.534c-1.219,0.89-2.796,1.431-2.844,3.46c0.849,1.711,2.435,2.705,4.266,3.46c1.066-1.5,3.558-1.611,3.555-4.152
	C124.425,198.151,123.216,196.791,120.873,196.534z M93.855,205.53c1.964-0.396,3.987-0.732,3.555-3.461
	C95.405,197.3,88.983,203.552,93.855,205.53z M110.208,202.761c1.335,0.795,5.907,0.114,5.688-2.768
	C114.887,195.672,106.656,198.754,110.208,202.761z M100.965,199.994c0,1.153,0,2.308,0,3.46c2.625,1.845,6.595,1.514,5.688-3.46
	C105.026,199.554,102.364,198.621,100.965,199.994z"/>
<path fill="#1CAAD7" d="M132.961,190.306c-0.828,3.029,0.191,3.559-0.711,6.229c-2.007,0.814,0.795,6.311-2.133,6.229
	c-0.496-1.824-3.237-1.464-3.556-3.461c0.819-1.691,4.021-3.354,2.134-5.535C130.804,195.474,131.808,191.672,132.961,190.306z"/>
<path fill="#1CAAD7" d="M125.85,199.302c0.003,2.539-2.489,2.651-3.555,4.151c-1.832-0.755-3.417-1.749-4.266-3.46
	c0.048-2.029,1.625-2.57,2.844-3.46C123.216,196.791,124.425,198.151,125.85,199.302z"/>
<path fill="#FDFEFD" d="M86.033,220.062c3.445,0.125,6.072-0.549,8.532-1.383C93.383,221.284,89.208,221.124,86.033,220.062z"/>
<path fill="#FDFEFD" d="M95.277,218.679c8.202-0.554,15.061-2.412,23.464-2.77C114.992,217.577,102.019,219.925,95.277,218.679z"/>
<path fill="#FDFEFD" d="M280.852,253.972c-11.031-5.427-19.299-17.183-29.152-21.453c-0.156,0.539-0.596,0.805-1.422,0.691
	c0.619-1.014,1.064-2.193,2.845-2.076C262.25,238.858,271.381,246.579,280.852,253.972z"/>
<path fill="#FDFEFD" d="M281.563,254.663c3.551,2.313,6.521,5.188,9.953,7.611C287.1,261.078,282.992,258.144,281.563,254.663z"/>
<path fill="#1CAAD7" d="M115.896,199.994c0.219,2.882-4.353,3.563-5.688,2.769C106.656,198.754,114.887,195.672,115.896,199.994z"/>
<path fill="#1CAAD7" d="M106.653,199.994c0.907,4.974-3.063,5.305-5.688,3.46c0-1.152,0-2.307,0-3.46
	C102.364,198.621,105.026,199.554,106.653,199.994z"/>
<path fill="#255A94" d="M189.841,202.069c0.115-0.812,1.297-0.584,2.133-0.691c-0.531,2.133,2.451,0.844,1.422,3.46
	c-0.911,0.952-4.251,1.205-4.266-0.69C188.752,203.149,191.902,202.457,189.841,202.069z"/>
<path fill="#1CAAD7" d="M124.428,209.683c0-0.231,0-0.463,0-0.692c-2.011-0.118-4.878,0.596-4.977-1.384
	c0.914-1.188,1.47-2.723,3.555-2.77c1.786,0.568,3.81,0.906,3.555,3.46c2.347-0.823,3.796-7.172,6.399-3.46
	c0.206,2.337,4.039,1.145,4.266,3.46C132.105,207.927,129.24,209.75,124.428,209.683z"/>
<path fill="#255A94" d="M246.722,204.146c1.876-0.211,1.834,1.444,2.134,2.769c-0.908,0.946-3.356,0.946-4.267,0
	C244.389,205.104,244.849,203.937,246.722,204.146z"/>
<path fill="#1CAAD7" d="M317.824,213.833c-2.522,1.777-6.379,0.07-6.397-2.768c0.711-0.922,1.172-2.09,2.134-2.77
	c2.551-0.406,3.438,0.805,4.977,1.385C319.049,211.796,317.809,212.204,317.824,213.833z"/>
<path fill="#1CAAD7" d="M310.714,208.99c0.092-1.988,0.892-3.286,3.558-2.769C313.313,207.366,312.451,208.604,310.714,208.99z"/>
<path fill="#255A94" d="M231.081,207.606c-0.492,1.365-1.896,1.845-3.556,2.076c-0.498-2.131-0.498-1.33,0-3.461
	C229.792,205.63,230.224,206.825,231.081,207.606z"/>
<path fill="#255A94" d="M209.75,211.065c1.056-0.301-0.28-0.885,0-2.075c1.01,0.06,2.014,0.114,2.134-0.692
	c1.664,0.178,0.409,3.041,0,3.46c-2.269,0.595-2.199-1.089-3.556-1.384C208.579,209.403,209.58,210.313,209.75,211.065z"/>
<path fill="#255A94" d="M221.838,208.297c0.781,2.702-4.235,2.774-4.267,0.692C217.506,206.438,221.133,206.606,221.838,208.297z"/>
<path fill="#1CAAD7" d="M87.456,212.45c0.939-0.008,0.65-1.213,1.422-1.385c0.053,1.205-0.159,2.152-0.711,2.769
	c2.659,0.052,4.915-0.291,6.399-1.384c-2.046-0.91-1.223-4.155,1.422-4.152c1.808,0.402,3.744,2.502,2.133,4.152
	c2.247,0.109,4.291,0.023,4.977-1.385c-1.951-1.063,0.031-4.057,1.422-4.151c1.671,0.69,4.769,2.075,2.844,4.151
	c1.185,0,2.37,0,3.555,0c0.757-1.321-0.89-4.934,2.844-4.844c2.601,0.236,3.253,2.369,4.266,4.151c0,0.229,0,0.462,0,0.692
	c-11.318,0.518-20.481,3.134-31.284,4.151C86.804,214.123,86.402,212.579,87.456,212.45z"/>
<path fill="#255A94" d="M204.062,209.683c0.571,3.994-4.902,4.203-4.978,0.69C200.089,209.328,202.539,208.188,204.062,209.683z"/>
<path fill="#255A94" d="M190.552,213.142c-0.227-1.604,0.114-2.656,0.711-3.459c3.02-1.49,3.58,2.887,4.267,1.383
	C197.832,214.237,192.858,214.996,190.552,213.142z"/>
<path fill="#255A94" d="M175.621,216.603c-3.396,0.537-4.203-1.445-4.266-4.152c1.645-1.396,5.455-0.706,6.399,0.691
	c0,0.924,0,1.846,0,2.769C176.606,215.715,176.531,216.563,175.621,216.603z"/>
<path fill="#FDFEFD" d="M177.755,213.142c-0.315-0.615-0.624-1.238-1.423-1.385c2.883-2.4,2.656,7.977-0.711,4.846
	c0.91-0.039,0.985-0.888,2.134-0.692C177.755,214.987,177.755,214.065,177.755,213.142z"/>
<path fill="#FDFEFD" d="M144.337,213.142c0.394-3.418,0.365,0.721,1.423,0.691c0.156-0.539,0.595-0.805,1.422-0.691
	c0.434,0.039,0.842,0.104,0.711,0.691c-1.859-0.193-3.059,0.253-2.845,2.076c-0.691-0.02-0.552-0.848-0.711-1.385
	C144.337,214.065,144.337,213.603,144.337,213.142z"/>
<path fill="#255A94" d="M238.189,212.45c1.465,0.883,3.606,1.104,3.557,3.46C238.994,219.164,234.711,214.995,238.189,212.45z"/>
<path fill="#255A94" d="M250.277,212.45c0.563,2.395-0.791,2.922-1.422,4.152c-2.057-0.307-3.24-1.459-3.556-3.461
	C246.671,211.741,248.162,211.533,250.277,212.45z"/>
<path fill="#255A94" d="M168.511,216.603c-0.934,0.244-1.119,1.217-2.133,1.383c-2.232,0.328-1.879-1.861-3.556-2.075
	c0.306-1.317,1.532-1.738,1.423-3.46C167.465,212.083,168.887,213.468,168.511,216.603z"/>
<path fill="#FDFEFD" d="M155.002,219.37c2.697,1.949,5.145-1.13,4.978-4.15c2.155,1.92-1.506,4.029-2.134,5.535
	c-0.474,0-0.947,0-1.422,0C155.627,220.608,155.317,219.985,155.002,219.37z"/>
<path fill="#255A94" d="M231.792,213.142c0.313,0.616,0.624,1.237,1.422,1.385c0.108,1.722-1.117,2.143-1.422,3.459
	c-2.654,0.277-4.172-0.553-4.267-2.768C229.027,214.603,229.627,213.11,231.792,213.142z"/>
<path fill="#1CAAD7" d="M294.361,213.833c0.236,0,0.474,0,0.711,0c4.271,0.46,5.507,1.852,3.556,4.152
	C297.708,216.112,294.738,216.235,294.361,213.833z"/>
<path fill="#255A94" d="M222.548,215.218c2.065,0.965-0.201,3.415-0.711,4.151c-3.413-0.177-4.03-2.851-2.134-4.845
	C220.651,214.422,221.85,217.339,222.548,215.218z"/>
<path fill="#255A94" d="M156.423,220.754c0.475,0,0.948,0,1.422,0c2.391,1.231,5.232,4.472,1.423,6.228
	c0.135-0.561,0.713-0.688,0.711-1.383c-1.247,2.031-3.388,1.006-2.134,2.768c-0.979-0.34-4.215-3.814-2.844-2.075
	c-1.571-0.717-5.373,2.45-2.844,5.536c1.753,0.091,3.426,0.104,4.266-0.691c2.633,0.484,1.227-2.959,2.845-3.461
	c0,0.461,0,0.924,0,1.385c1.024,0.387,1.735,1.078,2.133,2.076c-5.476,4.911-8.34,2.469-11.376,6.92c-0.237,0-0.475,0-0.711,0
	c0.518-1.889-1.413-1.394-1.422-2.769c-1.649-0.222-2.73,0.11-3.556,0.69c0-1.152,0-2.307,0-3.459c5.573,0.297,3.4-5.929,0-6.229
	c0-0.462,0-0.923,0-1.385c3.078-1.288,0.829-3.11,0-5.536c0.589-1.808-2.149-3.798,0-4.845c0.159,0.537,0.02,1.365,0.711,1.385
	c-0.214-1.823,0.985-2.271,2.845-2.076c0.213,1.869,2.99,1.241,3.555,2.77c0.136,2.899-3.49,2.139-2.844,5.535
	c1.479,0.405,2.298,1.454,3.555,2.076C153.417,222.901,155.166,222.065,156.423,220.754z"/>
<path fill="#255A94" d="M287.962,218.679c0.336,2.172-1.914,1.827-2.133,3.459c-2.15-0.445-4.104-1.08-4.267-3.459
	C281.122,214.937,288.404,214.937,287.962,218.679z"/>
<path fill="#1CAAD7" d="M317.113,215.91c0.832,1.034,0.884,2.831,2.134,3.46c0,0.23,0,0.462,0,0.691
	c2.055,2.404-8.06,3.625-6.398-1.383C313.24,216.754,315.596,216.74,317.113,215.91z"/>
<path fill="#255A94" d="M191.263,221.446c-0.959-6.184,6.416-4.022,6.399,0C195.634,223.144,193.941,222.972,191.263,221.446z"/>
<path fill="#255A94" d="M205.484,220.754c-1.676-0.017-2.094,1.19-4.266,0.69c-0.819-0.816-0.805-2.445-0.711-4.151
	C202.828,215.541,206.882,216.724,205.484,220.754z"/>
<path fill="#255A94" d="M279.43,219.37c-0.828,3.168-3.705,3.971-6.4,2.076C271.572,215.497,278.447,215.724,279.43,219.37z"/>
<path fill="#255A94" d="M270.186,220.062c0.336,2.174-1.914,1.828-2.133,3.461c-2.109-0.254-3.508-1.199-4.268-2.769
	C263.365,217.166,269.806,217.146,270.186,220.062z"/>
<path fill="#FDFEFD" d="M144.337,219.37c0.829,2.426,3.078,4.248,0,5.535C144.997,222.813,143.321,219.524,144.337,219.37z"/>
<path fill="#FDFEFD" d="M174.199,223.522c0.945,0.102,2.646-2.328,2.844-0.692c-3.176,1.983-6.029,4.28-9.953,5.536
	C168.589,225.905,172.062,225.362,174.199,223.522z"/>
<path fill="#255A94" d="M248.855,224.905c-2.774-0.391-2.774-5.143,0-5.535c1.971,0.244,4.186,2.072,2.844,3.46
	C249.921,222.712,249.474,223.894,248.855,224.905z"/>
<path fill="#255A94" d="M162.823,224.214c0.522-2.029,2.157-2.977,3.556-4.152c0.934,0.705,2.621,0.68,3.555,1.385
	c0.461,2.525-0.479,3.686-1.422,4.845C165.441,226.741,164.525,225.095,162.823,224.214z"/>
<path fill="#1CAAD7" d="M331.335,229.058c-3.511-0.043-5.022-2.031-8.533-2.076c0.884-1.446,2.068-2.601,3.556-3.459
	C330.339,224.599,328.514,227.649,331.335,229.058z"/>
<path fill="#1C1112" d="M157.845,228.366c-1.254-1.762,0.887-0.735,2.134-2.768c0.002,0.693-0.576,0.822-0.711,1.383
	c0,0.23,0,0.463,0,0.692c-1.618,0.501-0.212,3.945-2.845,3.46C156.433,229.759,158.364,230.254,157.845,228.366z"/>
<path fill="#FDFEFD" d="M144.337,231.827c3.546,0.994,3.505-3.578,1.423-4.152c-1.98-0.313,0.557,3.771-1.423,3.461
	c0-1.615,0-3.229,0-4.845c3.4,0.3,5.573,6.524,0,6.228C144.337,232.288,144.337,232.058,144.337,231.827z"/>
<path fill="#255A94" d="M243.168,222.83c0.336,3.455-5.266,3.554-5.688,0.692C237.145,220.067,242.745,219.97,243.168,222.83z"/>
<path fill="#255A94" d="M225.393,226.291c-1.929-1.888-1.771,1.789-4.267,1.384c-0.632-1.23-1.985-1.759-1.423-4.152
	C221.807,221.981,226.191,222.843,225.393,226.291z"/>
<path fill="#255A94" d="M216.149,224.905c-0.284,1.801-2.122,2.088-2.133,4.152c-1.769,0.106-2.201-1.086-3.556-1.384
	C209.221,222.796,214.171,223.036,216.149,224.905z"/>
<path fill="#255A94" d="M206.906,229.058c-2.08,1.877-4.535,0.991-5.688-1.384C201.238,222.767,208.263,223.595,206.906,229.058z"/>
<path fill="#1CAAD7" d="M341.999,223.522c1.422,0,2.844,0,4.266,0c-1.334,1.32,0.423,1.252,0,3.459
	C343.365,227.267,341.779,226.272,341.999,223.522z"/>
<path fill="#FDFEFD" d="M161.401,231.134c1.089-0.645,6.12-4.255,4.267-1.384c-5.763,3.618-11.775,6.992-17.775,10.38
	c-0.237,0-0.475,0-0.711,0c-0.219-1.596,2.054-0.77,2.133-2.076c0.236,0,0.474,0,0.711,0
	C153.061,233.603,155.925,236.046,161.401,231.134z"/>
<path fill="#1CAAD7" d="M281.563,235.978c12.037-0.713-0.389,12.81-1.422,2.076C281.982,236.86,282.376,239.071,281.563,235.978z"/>
<path fill="#DA3C2D" d="M385.372,240.823c-2.447,8.691-5.552,16.742-7.822,25.604c-11.494-4.269-21.94-9.555-33.418-13.841
	c1.994-9.134,6.39-19.614,7.822-26.987C363.451,227.558,373.82,236.606,385.372,240.823z"/>
<path fill="#255A94" d="M191.974,229.058c-0.053-1.205,0.159-2.151,0.711-2.768c0.826-0.581,1.906-0.913,3.556-0.691
	c1.04,0.602,2.253,1.035,2.133,2.768C197.974,232.161,193.457,231.306,191.974,229.058z"/>
<path fill="#255A94" d="M271.607,226.981c0.486,3.012-1.277,3.83-2.844,4.846C261.938,231.065,266.919,222.034,271.607,226.981z"/>
<path fill="#1CAAD7" d="M156.423,231.134c-0.84,0.797-2.513,0.783-4.266,0.692c-2.529-3.086,1.272-6.253,2.844-5.536
	c-1.371-1.74,1.865,1.734,2.844,2.075C158.364,230.254,156.433,229.759,156.423,231.134z"/>
<path fill="#255A94" d="M261.654,231.134c-2.356-0.242-3.084-2.072-4.267-3.46c1.273-3.098,5.501-0.149,5.688,2.076
	C262.136,229.758,262.426,230.963,261.654,231.134z"/>
<path fill="#255A94" d="M244.589,229.75c-0.481,1.606-2.362,1.853-2.844,3.46C235.091,235.394,240.043,224.343,244.589,229.75z"/>
<path fill="#255A94" d="M231.081,235.287c-0.943-1.158-1.884-2.319-1.423-4.845c0.916-0.953,3.089-0.686,4.978-0.691
	C236.718,232.487,235.626,235.621,231.081,235.287z"/>
<path fill="#255A94" d="M226.814,233.21c0.185,4.225-8.026,3.594-6.398-1.384C223.494,231.021,225.699,229.528,226.814,233.21z"/>
<path fill="#FDFEFD" d="M211.883,235.978c1.724,2.994-2.81-0.48-1.423-3.459c1.64-0.711,2.293-2.383,4.978-2.076
	c0,0.229,0,0.461,0,0.691C212.607,230.72,209.897,233.999,211.883,235.978z"/>
<path fill="#255A94" d="M211.883,235.978c-1.986-1.979,0.724-5.258,3.555-4.844c0.521,0.646,1.293,1.049,2.133,1.385
	c0,1.152,0,2.307,0,3.459C215.839,237.289,213.352,237.888,211.883,235.978z"/>
<path fill="#1C1112" d="M216.149,246.358c-0.12-1.731,1.093-2.166,2.133-2.769c-1.638,1.115-2.235,4.716,0.711,4.845
	c1.794,2.57-1.359,0.149-2.133-0.691c-1.37,0.281-0.562,2.684-2.844,2.076C214.235,248.187,216.485,248.531,216.149,246.358z"/>
<path fill="#1CAAD7" d="M214.016,249.819c-6.12,2.229-7.918-5.332-1.422-6.229c1.147,0.959,2.251,1.962,3.555,2.769
	C216.485,248.531,214.235,248.187,214.016,249.819z"/>
<path fill="#255A94" d="M206.195,240.13c2.122,0.012,2.417,1.799,4.266,2.076c1.425-1.15,2.635-2.512,4.978-2.77
	c2.109,0.254,3.508,1.201,4.266,2.77c-0.15,0.775-0.788,1.077-1.422,1.384c-1.04,0.603-2.253,1.036-2.133,2.769
	c-1.304-0.807-2.407-1.81-3.555-2.769c-6.496,0.896-4.698,8.459,1.422,6.229c2.282,0.605,1.474-1.795,2.844-2.076
	c0.773,0.842,3.927,3.263,2.133,0.691c-4.537-4.758,5.667,4.063,5.688-2.769c-0.267-2.278-3.78-1.396-3.555-4.151
	c0.541-1.779,1.727-2.934,3.555-3.461c1.465,0.883,3.606,1.104,3.555,3.461c-2.416,3.311-3.084,4.026,0,6.92
	c-0.25,0.908-1.252,1.088-1.422,2.076c-0.633,0.307-1.271,0.607-1.422,1.385c-1.324-0.097-2.375-0.457-2.844-1.385
	c-2.085,0.508-3.058,2.1-4.267,3.461c0.715,0.918,0.673,2.573,2.134,2.768c-0.823,1.736-2.834,2.316-2.845,4.844
	c0.131,0.589-0.277,0.652-0.711,0.691c-0.937-1.822-2.334-2.121-4.266-1.383c-0.875-0.303-1.461-0.887-1.423-2.076
	c1.466-0.42,4.94,1.115,4.267-1.385c1.895-2.189-0.261-4.871-2.133-5.535c-2.601,0.235-3.254,2.369-4.267,4.15
	c-2.066-1.447-2.822-4.172-4.266-6.229c0.576-0.131,0.709-0.693,1.422-0.691c-0.289-1.333-2.756-0.547-2.133-2.768
	c0.934,0.244,1.117,1.218,2.133,1.384c-0.481-1.371-2.363-3.043-2.844-0.692c-0.875-0.302-1.461-0.886-1.422-2.076
	c0-0.461,0-0.922,0-1.384C203.8,242.874,204.324,240.847,206.195,240.13z"/>
<path fill="#FDFEFD" d="M203.351,247.05c0.48-2.351,2.362-0.679,2.844,0.692c-1.016-0.166-1.199-1.14-2.133-1.384
	c-0.623,2.221,1.844,1.435,2.133,2.768c-0.713-0.002-0.846,0.561-1.422,0.691C204.763,248.444,202.834,248.938,203.351,247.05z"/>
<path fill="#1CAAD7" d="M217.571,261.582c0.011-2.526,2.021-3.106,2.845-4.845c-1.461-0.192-1.419-1.848-2.134-2.768
	c1.209-1.361,2.182-2.951,4.267-3.461c0.469,0.93,1.52,1.289,2.844,1.385c0.15-0.775,0.789-1.078,1.422-1.385
	c0.576-0.131,0.709-0.693,1.422-0.691C224.666,253.726,221.596,258.12,217.571,261.582z"/>
<path fill="#1CAAD7" d="M209.039,256.046c1.013-1.781,1.666-3.915,4.267-4.15c1.872,0.664,4.027,3.346,2.133,5.535
	c-0.493,1.365-3.967-0.17-4.267,1.385C209.712,258.622,209.753,256.966,209.039,256.046z"/>
<path fill="#1CAAD7" d="M212.594,260.892c1.932-0.738,3.329-0.439,4.266,1.383c-1.062,0.813-0.838,2.877-2.844,2.769
	C214.776,262.457,212.251,263.071,212.594,260.892z"/>
<path fill="#255A94" d="M291.516,62.975c0.455-1.404,3.324-0.456,3.557-2.076c0.832,0.112,0.601,1.262,0.711,2.076
	C294.77,66.697,294.117,63.152,291.516,62.975z"/>
<path fill="#1CAAD7" d="M117.318,67.126c2.427,0.175,3.417,1.75,6.399,1.384C124.872,74.369,113.299,72.362,117.318,67.126z"/>
<path fill="#1CAAD7" d="M104.52,71.279c-0.094,2.215-1.612,3.044-4.266,2.768c-0.819-0.818-0.805-2.446-0.711-4.152
	C102.2,69.457,103.614,68.805,104.52,71.279z"/>
<path fill="#1CAAD7" d="M113.763,71.971c-2.767,1.406-6.349,2-5.688-2.768C110.178,67.662,114.563,68.523,113.763,71.971z"/>
<path fill="#255A94" d="M221.838,68.511C230.898,63.563,224.311,79.279,221.838,68.511L221.838,68.511z"/>
<path fill="#255A94" d="M270.186,69.895c0,0.231,0,0.461,0,0.692c8.725,1.518-4.24,9.501-2.844,0.692c0-0.231,0-0.461,0-0.692
	C268.617,70.675,268.841,69.74,270.186,69.895z"/>
<path fill="#FDFEFD" d="M157.134,78.199c0.008-1.838-0.268-3.952,0.711-4.844c1.054,0.128,0.652,1.672,0.711,2.768
	c0,0.461,0,0.922,0,1.384c-1.93-0.495,0.51,3.263-1.422,2.768C157.134,79.583,157.134,78.891,157.134,78.199z"/>
<path fill="#255A94" d="M167.8,74.739c1.264-1.292,1.807,0.563,4.266,0c0.305,1.318,1.531,1.739,1.422,3.46
	C170.713,79.57,166.953,78.863,167.8,74.739z"/>
<path fill="#1CAAD7" d="M114.474,80.967c-0.576,0.132-0.709,0.694-1.422,0.692c-2.687,0.078-3.823-1.354-4.266-3.46
	C109.919,73.998,117.937,76.873,114.474,80.967z"/>
<path fill="#255A94" d="M198.374,78.891c1.81,0.084,2.757,1.007,2.845,2.768c-0.691,0.019-0.553,0.847-0.711,1.384
	c-2.459,0.548-3.002-0.769-4.267-1.384C196.53,80.326,198.998,81.112,198.374,78.891z"/>
<path fill="#255A94" d="M226.104,87.195c0-0.231,0-0.461,0-0.692c-2.623-4.072,6.471-0.811,0.711,0.692
	C226.578,87.195,226.34,87.195,226.104,87.195z"/>
<path fill="#FDFEFD" d="M266.631,89.963c-1.256-1.159,0.631-2.319,0-4.844c1.182,1.873,1.182,8.507,0,10.38
	C266.631,93.654,266.631,91.809,266.631,89.963z"/>
<path fill="#255A94" d="M172.777,101.036c-0.305-1.911,2.65-0.65,2.844-2.076C178.149,100.425,174.096,103.105,172.777,101.036z"/>
<path fill="#FDFEFD" d="M154.291,101.036c0,0.922,0,1.845,0,2.768c-1.402,0.48,0.176,3.861-1.422,4.152c0-0.692,0-1.384,0-2.076
	c-0.311-2.379,0.281-3.878,0.711-5.536C155.057,99.569,155.087,99.597,154.291,101.036z"/>
<path fill="#FDFEFD" d="M41.951,109.339c-2.859-0.476-4.059,0.663-6.399,0.692C35.765,107.974,42.222,107.652,41.951,109.339z"/>
<path fill="#FDFEFD" d="M174.199,107.956c0,0.692,0,1.384,0,2.076c-2.928-0.543-3.648,1.063-6.398,0.692
	c-0.002-0.694,0.576-0.824,0.711-1.384C171.295,109.741,172.639,108.744,174.199,107.956z"/>
<path fill="#255A94" d="M165.668,111.416c-0.16-0.537-0.02-1.365-0.711-1.384c-0.13-1.51,0.582-2.202,2.133-2.076
	c0.797,0.146,1.106,0.768,1.422,1.384c-0.135,0.561-0.713,0.69-0.711,1.384C166.652,110.529,166.576,111.377,165.668,111.416z"/>
<path fill="#FDFEFD" d="M152.869,113.492c-2.164,2.4-1.666-3.516-0.711-4.152C153.728,109.426,152.46,112.275,152.869,113.492z"/>
<path fill="#1CAAD7" d="M71.813,116.26c-0.965-0.215-0.59-1.733-0.711-2.769c1.621-0.193,2.673,0.167,2.844,1.384
	c0.131,0.589-0.277,0.652-0.711,0.692C72.659,115.7,72.527,116.262,71.813,116.26z"/>
<path fill="#255A94" d="M73.235,115.568c0.094,1.706,0.107,3.334-0.711,4.151c-1.542,0.117-0.322-2.454-0.711-3.459
	C72.527,116.262,72.659,115.7,73.235,115.568z"/>
<path fill="#1CAAD7" d="M92.433,196.534c-0.514-2.115,0.727-2.521,0.711-4.152c2.714-0.564,2.753,1.473,3.555,2.77
	C96.177,196.091,93.822,198.72,92.433,196.534z"/>
<path fill="#FDFEFD" d="M109.497,194.457c1.675,0.017,2.093-1.192,4.266-0.692C116.306,194.753,109.818,196.256,109.497,194.457z"/>
<path fill="#1CAAD7" d="M243.168,199.302c2.161,0.434,6.124-0.887,7.109,0.691C248.117,199.56,244.154,200.879,243.168,199.302z"/>
<path fill="#255A94" d="M276.586,204.146c-1.709,1.597-5.658,2.164-5.688-1.385c1.297-4.313,4.416,0.202,5.688-0.691
	C276.586,202.761,276.586,203.454,276.586,204.146z"/>
<path fill="#1CAAD7" d="M97.41,202.069c0.432,2.729-1.591,3.064-3.555,3.461C88.983,203.552,95.405,197.3,97.41,202.069z"/>
<path fill="#255A94" d="M210.461,199.994c0.553,0.616,0.765,1.563,0.711,2.769C208.043,204.665,206.343,200.06,210.461,199.994z"/>
<path fill="#255A94" d="M239.613,205.53c0.496,2.559-1.125,3.057-3.557,2.768C235.484,204.931,237.322,204.405,239.613,205.53z"/>
<path fill="#255A94" d="M254.544,206.914c-0.597-0.804-0.938-1.854-0.711-3.46c1.815-0.364,2.489-0.918,3.556,0.691
	C257.717,206.312,256.77,207.235,254.544,206.914z"/>
<path fill="#255A94" d="M175.621,208.297c-2.707,0.329-4.438-0.293-4.977-2.075c-0.121-1.731,1.092-2.166,2.133-2.769
	C175.361,203.476,175.901,205.489,175.621,208.297z"/>
<path fill="#255A94" d="M186.287,214.526c-1.842,1.445-6.061,0.773-5.688-2.076C181.802,209.649,187.189,209.854,186.287,214.526z"
	/>
<path fill="#255A94" d="M266.631,215.218c-1.641-0.941-3.968-1.214-3.557-4.152c0.574-0.594,1.947-0.41,2.134-1.383
	C268.986,210.188,269.27,213.454,266.631,215.218z"/>
<path fill="#255A94" d="M214.727,218.679c-1.005,1.045-3.454,2.186-4.978,0.69c0-0.923,0-1.845,0-2.769
	C211.493,215.108,215.008,216.086,214.727,218.679z"/>
<path fill="#255A94" d="M259.521,218.679c0.631,1.229,1.983,1.758,1.422,4.15c-2.049,1.266-2.225,1.123-4.979,0.691
	C254.548,220.911,255.609,218.024,259.521,218.679z"/>
<path fill="#255A94" d="M228.236,222.83c1.486-0.397,2.028-1.715,4.267-1.384c1.786,1.26,1.786,4.277,0,5.535
	C229.693,226.948,228.271,225.563,228.236,222.83z"/>
<path fill="#1CAAD7" d="M149.314,238.054c-0.079,1.309-2.352,0.48-2.133,2.076c0.236,0,0.474,0,0.711,0
	c-0.195,1.426-2.649,0.651-2.845,2.076c-1.751-2.086-0.721-3.277-0.711-6.229c0.825-0.58,1.906-0.912,3.556-0.691
	C147.901,236.662,149.832,236.166,149.314,238.054z"/>
<path fill="#255A94" d="M225.393,75.431c1.809,0.084,2.758,1.007,2.844,2.768c-1.265,0.615-1.808,1.932-4.267,1.384
	C223.035,77.53,223.341,76.169,225.393,75.431z"/>
<path fill="#1CAAD7" d="M107.364,87.195c0.185,2.256-0.844,3.331-2.844,3.46C97.53,89.77,105.167,81.05,107.364,87.195z"/>
<path fill="#255A94" d="M184.154,89.963c0.2,3.614-2.331,3.715-4.267,2.076C180.05,89.388,182.004,88.975,184.154,89.963z"/>
<path fill="#1CAAD7" d="M117.318,193.074c1.675,0.016,2.094-1.192,4.266-0.692c0.837,0.108,2.018-0.119,2.133,0.692
	c-2.708-0.562-2.182,2.028-4.266,2.075C119.372,193.843,117.101,194.669,117.318,193.074z"/>
<path fill="#1CAAD7" d="M144.337,231.134c1.979,0.313-0.558-3.771,1.423-3.46c2.082,0.574,2.123,5.147-1.423,4.152
	C144.337,231.595,144.337,231.365,144.337,231.134z"/>
<path fill="#1CAAD7" d="M105.942,79.583c-0.094,2.215-1.612,3.044-4.266,2.768C97.502,79.198,104.425,75.022,105.942,79.583z"/>
<path fill="#FDFEFD" d="M274.451,197.226c0.617-1.707-0.182-4.791,2.135-4.845c0,0.462,0,0.923,0,1.384
	c-1.621,0.961-0.266,4.817-0.711,6.922C274.689,202.883,275.636,197.306,274.451,197.226z"/>
<path fill="#255A94" d="M259.521,214.526c-0.949,0.986-4.029,0.986-4.979,0c-0.227-1.604,0.113-2.657,0.711-3.461
	C258.154,210.78,259.74,211.774,259.521,214.526z"/>
<path fill="#FDFEFD" d="M125.139,214.526c3.245,0.391,4.429-1.228,7.821-0.692C131.568,214.819,126.908,216.201,125.139,214.526z"/>
</svg>
